<?xml version="1.0" encoding="UTF-8"?>
<svg version="1.1" xmlns="http://www.w3.org/2000/svg" width="454" height="550">
<path d="M0 0 C2.40356445 1.91772461 2.40356445 1.91772461 4.86328125 4.40234375 C6.19262695 5.73749023 6.19262695 5.73749023 7.54882812 7.09960938 C8.46083984 8.03611328 9.37285156 8.97261719 10.3125 9.9375 C11.70952148 11.33645508 11.70952148 11.33645508 13.13476562 12.76367188 C20 19.71943681 20 19.71943681 20 22 C20.99 22.33 21.98 22.66 23 23 C23 23.66 23 24.32 23 25 C23.57435791 25.24838623 24.14871582 25.49677246 24.74047852 25.75268555 C27.33942136 27.18736939 29.06959671 28.84318058 31.15234375 30.95703125 C31.92900391 31.74013672 32.70566406 32.52324219 33.50585938 33.33007812 C34.30830078 34.14927734 35.11074219 34.96847656 35.9375 35.8125 C36.73607422 36.62009766 37.53464844 37.42769531 38.35742188 38.25976562 C39.89838604 39.81860344 41.43713891 41.37963112 42.97338867 42.94311523 C44.61217853 44.60638527 46.2616885 46.25663284 47.921875 47.8984375 C50.13729112 50.13883951 52.07661984 52.50672942 54 55 C51.375 59.875 51.375 59.875 48 61 C47.31379969 62.32338632 46.65213539 63.65949948 46 65 C44.43955895 67.14167916 42.79050671 69.03044262 41 71 C40.34 71 39.68 71 39 71 C39 71.66 39 72.32 39 73 C33.23058731 74.64840363 33.23058731 74.64840363 30.2578125 73.08203125 C25.72127325 69.35036187 22.3239086 64.71203672 18.89453125 59.9765625 C18.26933594 59.32429688 17.64414062 58.67203125 17 58 C15.68 58 14.36 58 13 58 C12.67 58.99 12.34 59.98 12 61 C11.34 61 10.68 61 10 61 C10 61.66 10 62.32 10 63 C9.34 63 8.68 63 8 63 C7.505 64.485 7.505 64.485 7 66 C6.34 66 5.68 66 5 66 C5 66.66 5 67.32 5 68 C4.34 68 3.68 68 3 68 C2.505 69.485 2.505 69.485 2 71 C1.34 71 0.68 71 0 71 C0 71.66 0 72.32 0 73 C-1.375 74.625 -1.375 74.625 -3 76 C-3.66 76 -4.32 76 -5 76 C-5 76.66 -5 77.32 -5 78 C-5.66 78 -6.32 78 -7 78 C-7.495 79.485 -7.495 79.485 -8 81 C-8.66 81 -9.32 81 -10 81 C-10.268125 81.639375 -10.53625 82.27875 -10.8125 82.9375 C-12 85 -12 85 -15 86 C-15.495 87.485 -15.495 87.485 -16 89 C-16.66 89 -17.32 89 -18 89 C-18 89.66 -18 90.32 -18 91 C-18.66 91 -19.32 91 -20 91 C-20.495 92.485 -20.495 92.485 -21 94 C-21.66 94 -22.32 94 -23 94 C-23 94.66 -23 95.32 -23 96 C-23.66 96 -24.32 96 -25 96 C-25 96.66 -25 97.32 -25 98 C-26.375 99.625 -26.375 99.625 -28 101 C-28.66 101 -29.32 101 -30 101 C-30.495 102.485 -30.495 102.485 -31 104 C-31.66 104 -32.32 104 -33 104 C-33 104.66 -33 105.32 -33 106 C-33.66 106 -34.32 106 -35 106 C-35.495 107.485 -35.495 107.485 -36 109 C-36.66 109 -37.32 109 -38 109 C-38 109.66 -38 110.32 -38 111 C-38.66 111 -39.32 111 -40 111 C-40.495 112.485 -40.495 112.485 -41 114 C-41.66 114 -42.32 114 -43 114 C-43 114.66 -43 115.32 -43 116 C-43.66 116 -44.32 116 -45 116 C-45.495 117.485 -45.495 117.485 -46 119 C-46.66 119 -47.32 119 -48 119 C-48 119.66 -48 120.32 -48 121 C-48.99 121.495 -48.99 121.495 -50 122 C-49.49032204 126.04225853 -48.57908276 127.88665812 -45.5859375 130.62890625 C-44.90789062 131.27150391 -44.22984375 131.91410156 -43.53125 132.57617188 C-42.08757617 133.90607793 -40.64224754 135.23418975 -39.1953125 136.56054688 C-38.51984375 137.20185547 -37.844375 137.84316406 -37.1484375 138.50390625 C-36.52114746 139.07955322 -35.89385742 139.6552002 -35.24755859 140.24829102 C-34 142 -34 142 -34.11572266 144.15600586 C-34.55343994 145.06878296 -34.55343994 145.06878296 -35 146 C-35.99 146.33 -36.98 146.66 -38 147 C-38 147.66 -38 148.32 -38 149 C-38.66 149 -39.32 149 -40 149 C-40.33 149.99 -40.66 150.98 -41 152 C-41.66 152 -42.32 152 -43 152 C-43 152.66 -43 153.32 -43 154 C-43.66 154 -44.32 154 -45 154 C-45.33 154.99 -45.66 155.98 -46 157 C-46.66 157 -47.32 157 -48 157 C-48 157.66 -48 158.32 -48 159 C-48.66 159 -49.32 159 -50 159 C-50.33 159.99 -50.66 160.98 -51 162 C-55.51720311 162.36625971 -55.51720311 162.36625971 -57.8125 160.625 C-59 159 -59 159 -59 157 C-59.66 157 -60.32 157 -61 157 C-62.625 155.625 -62.625 155.625 -64 154 C-64 153.34 -64 152.68 -64 152 C-64.66 152 -65.32 152 -66 152 C-67.625 150.625 -67.625 150.625 -69 149 C-69 148.34 -69 147.68 -69 147 C-69.86625 146.6596875 -69.86625 146.6596875 -70.75 146.3125 C-73.56427613 144.67083893 -75.02737733 142.56440947 -77 140 C-77.66 139.67 -78.32 139.34 -79 139 C-79 138.34 -79 137.68 -79 137 C-79.66 137 -80.32 137 -81 137 C-82.26171875 135.6796875 -82.26171875 135.6796875 -83.6875 133.875 C-86.33033229 130.67781752 -89.14320604 128.04991222 -92.33203125 125.41015625 C-94.69694184 123.41078219 -96.84174836 121.21820307 -99 119 C-99.598125 118.443125 -100.19625 117.88625 -100.8125 117.3125 C-102 116 -102 116 -102 114 C-102.66 114 -103.32 114 -104 114 C-105.625 112.625 -105.625 112.625 -107 111 C-107 110.34 -107 109.68 -107 109 C-107.66 109 -108.32 109 -109 109 C-111 106 -111 106 -111 103 C-110.34 103 -109.68 103 -109 103 C-108.731875 102.360625 -108.46375 101.72125 -108.1875 101.0625 C-107 99 -107 99 -104 98 C-104 97.34 -104 96.68 -104 96 C-102.625 94.375 -102.625 94.375 -101 93 C-100.34 93 -99.68 93 -99 93 C-98.731875 92.360625 -98.46375 91.72125 -98.1875 91.0625 C-97 89 -97 89 -94 88 C-94 87.34 -94 86.68 -94 86 C-89.7565304 86.50009694 -87.93391508 87.6260883 -85.0625 90.75 C-82.65761056 93.29153088 -80.29173885 95.68373612 -77.5625 97.875 C-75 100 -75 100 -74 102 C-71.12412774 100.68540518 -68.95542366 99.24593563 -66.64453125 97.09375 C-66.02690918 96.51995605 -65.40928711 95.94616211 -64.77294922 95.35498047 C-64.12600098 94.74283691 -63.47905273 94.13069336 -62.8125 93.5 C-62.13977051 92.86852051 -61.46704102 92.23704102 -60.77392578 91.58642578 C-56.37366333 87.4150236 -52.28540196 83.07430963 -48.30859375 78.49609375 C-44.9918245 74.90994223 -41.37615538 71.68512307 -37.75024414 68.41650391 C-33.67399072 64.71147747 -30.00525963 60.79436067 -26.48828125 56.546875 C-25.99714844 56.03640625 -25.50601563 55.5259375 -25 55 C-24.34 55 -23.68 55 -23 55 C-22.731875 54.360625 -22.46375 53.72125 -22.1875 53.0625 C-21 51 -21 51 -18 50 C-18 49.34 -18 48.68 -18 48 C-16.390625 46.44921875 -16.390625 46.44921875 -14.25 44.6875 C-11.09829823 42.01637687 -8.44230671 39.35817172 -6 36 C-10.48447474 30.41668046 -15.20782288 26.0987841 -21.05859375 21.95703125 C-23 20 -23 20 -23.28515625 17.26171875 C-23.19105469 16.51535156 -23.09695312 15.76898438 -23 15 C-22.34 15 -21.68 15 -21 15 C-20.67 14.01 -20.34 13.02 -20 12 C-19.34 12 -18.68 12 -18 12 C-18 11.34 -18 10.68 -18 10 C-17.34 10 -16.68 10 -16 10 C-15.67 9.01 -15.34 8.02 -15 7 C-14.34 7 -13.68 7 -13 7 C-13 6.34 -13 5.68 -13 5 C-12.34 5 -11.68 5 -11 5 C-10.67 4.01 -10.34 3.02 -10 2 C-6.32960528 -0.85475145 -4.40819886 -1.42905621 0 0 Z " fill="#446398" transform="translate(255,154)"/>
<path d="M0 0 C3.38751971 2.59196584 6.5145293 5.44500671 9.640625 8.34375 C11.65369072 10.20096547 13.70532246 11.95614875 15.8125 13.703125 C20.63200351 17.87081042 24.85754316 22.62977185 29.13964844 27.33642578 C31.9705234 30.43017898 34.68871063 33.07283586 38.0625 35.578125 C38.0625 36.238125 38.0625 36.898125 38.0625 37.578125 C39.5475 38.073125 39.5475 38.073125 41.0625 38.578125 C41.80249023 40.80151367 41.80249023 40.80151367 42.0625 43.578125 C40.52368164 45.7980957 40.52368164 45.7980957 38.22265625 48.00390625 C37.40732422 48.79990234 36.59199219 49.59589844 35.75195312 50.41601562 C34.88505859 51.23263672 34.01816406 52.04925781 33.125 52.890625 C32.26197266 53.72658203 31.39894531 54.56253906 30.50976562 55.42382812 C28.3734645 57.48931264 26.22445651 59.53956422 24.0625 61.578125 C19.9778386 60.21881651 17.59385013 58.46631064 14.59375 55.40234375 C13.36591797 54.16000977 13.36591797 54.16000977 12.11328125 52.89257812 C11.27152344 52.02568359 10.42976563 51.15878906 9.5625 50.265625 C8.72074219 49.41033203 7.87898438 48.55503906 7.01171875 47.67382812 C5.39012844 46.02542412 3.77150774 44.37409214 2.15625 42.71948242 C0.54175441 41.06827664 -1.08579615 39.42982885 -2.71875 37.796875 C-4.30934193 36.20628307 -5.88009879 34.59576032 -7.4375 32.97265625 C-8.2625 32.12058594 -9.0875 31.26851562 -9.9375 30.390625 C-10.7625 29.53082031 -11.5875 28.67101562 -12.4375 27.78515625 C-16.63790683 24.0769846 -20.34712503 23.15289215 -25.953125 23.33203125 C-30.65603239 23.91526583 -33.38254142 26.0102604 -36.625 29.328125 C-39.03638633 32.42416141 -39.03638633 32.42416141 -40.15234375 35.8046875 C-42.08065315 40.4429046 -45.34118621 43.65242566 -48.8125 47.203125 C-49.42480469 47.84507812 -50.03710938 48.48703125 -50.66796875 49.1484375 C-51.86294203 50.39714619 -53.06678317 51.63744236 -54.28027344 52.86816406 C-55.32443363 53.94555033 -56.34277574 55.04918297 -57.32128906 56.18652344 C-58.5703125 57.6015625 -58.5703125 57.6015625 -60.9375 59.578125 C-63.75 59.390625 -63.75 59.390625 -65.9375 58.578125 C-70.69497303 45.32302718 -71.34698705 32.55948536 -65.57421875 19.4921875 C-62.96200614 14.45675958 -60.30005053 10.28629295 -55.9375 6.578125 C-55.41800781 6.11535156 -54.89851563 5.65257812 -54.36328125 5.17578125 C-50.24740305 1.578125 -50.24740305 1.578125 -47.9375 1.578125 C-47.9375 0.918125 -47.9375 0.258125 -47.9375 -0.421875 C-46.0223421 -1.23792499 -44.10531166 -2.04958132 -42.1875 -2.859375 C-41.12015625 -3.31183594 -40.0528125 -3.76429688 -38.953125 -4.23046875 C-26.49534465 -9.15226021 -11.0933713 -7.42540176 0 0 Z " fill="#446498" transform="translate(178.9375,167.421875)"/>
<path d="M0 0 C4.28806873 0.47645208 6.26647487 1.65902484 9 5 C9 5.66 9 6.32 9 7 C9.66 7 10.32 7 11 7 C11 7.66 11 8.32 11 9 C11.54140625 9.2165625 12.0828125 9.433125 12.640625 9.65625 C15.81645344 11.46499997 18.20728081 13.91723799 20.75 16.5 C21.25660156 16.99886719 21.76320313 17.49773437 22.28515625 18.01171875 C26 21.74658861 26 21.74658861 26 24 C26.99 24.33 27.98 24.66 29 25 C29 25.66 29 26.32 29 27 C29.66 27 30.32 27 31 27 C32.625 28.375 32.625 28.375 34 30 C34 30.66 34 31.32 34 32 C34.66 32 35.32 32 36 32 C36 32.66 36 33.32 36 34 C44.21984776 37.13137057 50.69017786 38.04632024 59.125 34.96875 C61.19676355 34.10645626 61.19676355 34.10645626 62.3125 31.8125 C62.539375 30.884375 62.76625 29.95625 63 29 C65.63034955 22.22793984 69.73675495 17.89317313 75 13 C76.051875 11.89398438 76.051875 11.89398438 77.125 10.765625 C79 9 79 9 81 9 C81 8.34 81 7.68 81 7 C81.66 7 82.32 7 83 7 C83.226875 6.360625 83.45375 5.72125 83.6875 5.0625 C85 3 85 3 87.58203125 2.37109375 C88.37996094 2.24863281 89.17789063 2.12617188 90 2 C93.65928383 8.35473844 94.40945481 14.37381701 94.4375 21.5625 C94.44716797 22.35309814 94.45683594 23.14369629 94.46679688 23.95825195 C94.29822132 35.9308348 88.76348733 46.08627461 80.75 54.8125 C71.04635787 63.94533965 58.82159361 67.3259439 45.828125 67.1484375 C25.35439709 66.07384957 13.49920315 51.66338265 0 38 C-2.67048349 35.30017054 -5.36753908 32.64754869 -8.1484375 30.0625 C-9.22409122 29.04180669 -10.29961076 28.02097196 -11.375 27 C-11.93316406 26.49210937 -12.49132812 25.98421875 -13.06640625 25.4609375 C-16.98262825 21.68976076 -16.98262825 21.68976076 -17.06640625 18.36328125 C-15.88202639 15.73855666 -14.64195337 14.17184324 -12.5625 12.1875 C-11.94503906 11.58292969 -11.32757813 10.97835937 -10.69140625 10.35546875 C-9 9 -9 9 -7 9 C-7 8.34 -7 7.68 -7 7 C-6.34 7 -5.68 7 -5 7 C-4.67 6.01 -4.34 5.02 -4 4 C-3.34 4 -2.68 4 -2 4 C-2 3.34 -2 2.68 -2 2 C-1.34 2 -0.68 2 0 2 C0 1.34 0 0.68 0 0 Z " fill="#456498" transform="translate(249,240)"/>
<path d="M0 0 C0.70125 0.28875 1.4025 0.5775 2.125 0.875 C2.62 2.36 2.62 2.36 3.125 3.875 C3.785 3.875 4.445 3.875 5.125 3.875 C6.67578125 5.484375 6.67578125 5.484375 8.4375 7.625 C11.10862313 10.77670177 13.76682828 13.43269329 17.125 15.875 C16.57854896 19.78829453 14.82564387 21.46218985 12 24.125 C9.07494539 26.94410775 6.29654396 29.76158239 3.6875 32.875 C0.39344862 36.71177838 -3.26106567 39.97843246 -7.0625 43.3046875 C-9.16261243 45.22395692 -11.15137646 47.15319261 -13.125 49.1953125 C-13.68493652 49.7725708 -14.24487305 50.3498291 -14.82177734 50.94458008 C-15.9091714 52.07389433 -16.98822675 53.21132183 -18.05712891 54.3581543 C-26.45418081 63.05121356 -36.51456152 64.91179511 -48.25 65.1875 C-61.89002641 64.92677515 -71.04382365 61.39529789 -80.94140625 51.890625 C-90.5581686 41.50535249 -93.28088235 31.17436923 -93.0703125 17.26171875 C-92.74428643 11.60842661 -92.07163579 6.66995368 -88.875 1.875 C-87.555 1.875 -86.235 1.875 -84.875 1.875 C-84.875 2.535 -84.875 3.195 -84.875 3.875 C-84.215 3.875 -83.555 3.875 -82.875 3.875 C-81.6484375 5.16015625 -81.6484375 5.16015625 -80.25 6.9375 C-77.93897115 9.74698605 -75.54080251 12.10488894 -72.75 14.4375 C-66.64022758 19.68608545 -64.09986533 25.29023182 -61.875 32.875 C-61.215 32.875 -60.555 32.875 -59.875 32.875 C-59.875 33.535 -59.875 34.195 -59.875 34.875 C-52.48662493 36.9859643 -46.0993265 38.28535804 -38.77270508 34.98754883 C-35.0484499 32.8041665 -32.21368429 29.66171863 -29.25 26.5625 C-28.60804688 25.91087891 -27.96609375 25.25925781 -27.3046875 24.58789062 C-24.46980166 21.68619907 -21.72706817 18.75545952 -19.16015625 15.61328125 C-17.19502039 13.25847743 -15.28282071 11.331832 -12.9375 9.375 C-10.31781163 7.16894663 -7.97450703 4.92135835 -5.6875 2.375 C-2.875 -0.125 -2.875 -0.125 0 0 Z " fill="#C2C2C2" transform="translate(246.875,285.125)"/>
<path d="M0 0 C7.1967025 4.42561156 13.97968188 9.44216365 18.10791016 16.95800781 C18.58873047 17.74691406 19.06955078 18.53582031 19.56494141 19.34863281 C23.11552767 26.19549338 23.56901678 32.63885452 23.60791016 40.20800781 C23.61733643 41.61010498 23.61733643 41.61010498 23.62695312 43.04052734 C23.51796329 48.99052564 22.51139031 53.51182406 20.10791016 58.95800781 C16.54776369 58.18852237 14.75268418 57.05554709 12.04541016 54.58300781 C11.37380859 53.97714844 10.70220703 53.37128906 10.01025391 52.74707031 C9.06859375 51.86148438 9.06859375 51.86148438 8.10791016 50.95800781 C7.53169922 50.42949219 6.95548828 49.90097656 6.36181641 49.35644531 C5.10791016 47.95800781 5.10791016 47.95800781 5.10791016 45.95800781 C4.55103516 45.77238281 3.99416016 45.58675781 3.42041016 45.39550781 C-1.38254309 42.40988823 -3.79386897 37.18451388 -6.26708984 32.27050781 C-8.68505587 27.88373354 -11.01845855 25.38144751 -15.89208984 23.95800781 C-22.67734646 22.92000559 -27.2274121 24.03163247 -32.89208984 27.95800781 C-35.33693422 29.93018228 -37.6208247 32.03963872 -39.89208984 34.20800781 C-40.81272217 35.07462036 -40.81272217 35.07462036 -41.75195312 35.95874023 C-45.4875761 39.51101061 -49.00287185 43.16324743 -52.31396484 47.11816406 C-56.68547534 52.21465278 -61.51856508 56.92786424 -66.89208984 60.95800781 C-71.73518838 58.79021471 -74.97919994 55.27691555 -78.70458984 51.58300781 C-79.76323242 50.57367188 -79.76323242 50.57367188 -80.84326172 49.54394531 C-81.50519531 48.88910156 -82.16712891 48.23425781 -82.84912109 47.55957031 C-83.45731689 46.9648291 -84.0655127 46.37008789 -84.69213867 45.75732422 C-85.89208984 43.95800781 -85.89208984 43.95800781 -85.68676758 41.85571289 C-84.62621763 39.32310008 -83.1289914 37.90657038 -81.14208984 36.02050781 C-80.12888672 35.04791016 -80.12888672 35.04791016 -79.09521484 34.05566406 C-78.36818359 33.3634375 -77.64115234 32.67121094 -76.89208984 31.95800781 C-73.7449133 28.83898132 -70.63670695 25.68246096 -67.52880859 22.52441406 C-65.87920035 20.85631542 -64.2294571 19.18835028 -62.57958984 17.52050781 C-61.76296875 16.68712891 -60.94634766 15.85375 -60.10498047 14.99511719 C-50.64076648 5.45549113 -50.64076648 5.45549113 -44.89208984 1.95800781 C-44.23208984 1.95800781 -43.57208984 1.95800781 -42.89208984 1.95800781 C-42.89208984 1.29800781 -42.89208984 0.63800781 -42.89208984 -0.04199219 C-28.08133194 -5.24526974 -14.70023738 -8.09556299 0 0 Z " fill="#C2C2C2" transform="translate(274.89208984375,123.0419921875)"/>
<path d="M0 0 C4.96531089 2.55385971 8.46364981 6.235591 12.3125 10.1875 C12.95767578 10.84169922 13.60285156 11.49589844 14.26757812 12.16992188 C15.84970516 13.77548783 17.4269513 15.3855469 19 17 C17.71279055 19.7988262 16.33473684 21.95085976 14.2421875 24.20703125 C13.70303711 24.79009033 13.16388672 25.37314941 12.60839844 25.97387695 C12.03637695 26.58062256 11.46435547 27.18736816 10.875 27.8125 C10.28750977 28.44051514 9.70001953 29.06853027 9.09472656 29.71557617 C5.52943641 33.48934848 1.87625859 37.03091912 -2.10546875 40.3671875 C-7.32855351 44.86873272 -12.09729915 49.878389 -16.5625 55.125 C-19.44855957 58.48985287 -22.57235549 61.33936158 -25.9453125 64.20703125 C-30.74792029 68.39790003 -35.26851585 72.82184815 -39 78 C-45.53178496 77.87772009 -48.63624641 74.14646902 -52.9375 69.75 C-53.98260742 68.74646484 -53.98260742 68.74646484 -55.04882812 67.72265625 C-55.70173828 67.06652344 -56.35464844 66.41039062 -57.02734375 65.734375 C-57.62281006 65.13850586 -58.21827637 64.54263672 -58.83178711 63.92871094 C-60 62 -60 62 -59.77709961 59.36865234 C-58.85704893 56.56427542 -57.9340548 55.67512028 -55.625 53.875 C-51.98395188 50.87803621 -48.57961091 47.71133513 -45.25 44.375 C-44.34765625 43.47523438 -43.4453125 42.57546875 -42.515625 41.6484375 C-39.9913433 39.06715582 -39.9913433 39.06715582 -37.890625 36.35546875 C-36.19874446 34.24760932 -34.57717527 32.64570335 -32.5 30.9375 C-28.77790167 27.75311568 -25.27812811 24.39512558 -21.8125 20.9375 C-21.31363281 20.44306396 -20.81476563 19.94862793 -20.30078125 19.43920898 C-17.87277262 17.00191774 -15.57097133 14.52883707 -13.39453125 11.86328125 C-11.3350933 9.40069068 -9.30712683 7.32923 -6.875 5.25 C-6.21242188 4.67765625 -5.54984375 4.1053125 -4.8671875 3.515625 C-3 2 -3 2 0 0 Z " fill="#C2C2C2" transform="translate(337,193)"/>
<path d="M0 0 C3.72674382 1.31988844 5.27446516 3.21216223 8 6.0625 C9.32451172 7.38701172 9.32451172 7.38701172 10.67578125 8.73828125 C13.1171875 11.1796875 15.55859375 13.62109375 18 16.0625 C14.97367129 23.29575817 7.66573897 28.70480146 1.8125 33.6875 C-1.51569602 36.53643579 -4.32068304 39.62524007 -7.15625 42.95703125 C-11.76890896 48.22445324 -16.7955676 53.08931285 -22.125 57.625 C-25.48513705 60.50701478 -28.33313517 63.62293781 -31.19140625 66.99609375 C-34.28159768 70.52678763 -37.64476851 73.78570249 -41 77.0625 C-44.39859703 75.59283642 -46.64963709 73.68212486 -49.25 71.0625 C-50.30960938 70.010625 -50.30960938 70.010625 -51.390625 68.9375 C-53 67.0625 -53 67.0625 -53 65.0625 C-53.99 64.7325 -54.98 64.4025 -56 64.0625 C-56 63.4025 -56 62.7425 -56 62.0625 C-56.66 62.0625 -57.32 62.0625 -58 62.0625 C-58 61.4025 -58 60.7425 -58 60.0625 C-58.66 60.0625 -59.32 60.0625 -60 60.0625 C-59.52354792 55.77443127 -58.34097516 53.79602513 -55 51.0625 C-54.34 51.0625 -53.68 51.0625 -53 51.0625 C-52.75161377 50.48814209 -52.50322754 49.91378418 -52.24731445 49.32202148 C-50.81263061 46.72307864 -49.15681942 44.99290329 -47.04296875 42.91015625 C-46.25986328 42.13349609 -45.47675781 41.35683594 -44.66992188 40.55664062 C-43.85072266 39.75419922 -43.03152344 38.95175781 -42.1875 38.125 C-41.37990234 37.32642578 -40.57230469 36.52785156 -39.74023438 35.70507812 C-38.18246347 34.16516864 -36.62288837 32.62708155 -35.0612793 31.09106445 C-30.62213369 26.7339075 -30.62213369 26.7339075 -26.3125 22.25 C-25 21.0625 -25 21.0625 -23 21.0625 C-22.79375 20.52625 -22.5875 19.99 -22.375 19.4375 C-20.46749574 16.14271991 -17.95180616 13.46886372 -15 11.0625 C-14.34 11.0625 -13.68 11.0625 -13 11.0625 C-12.731875 10.423125 -12.46375 9.78375 -12.1875 9.125 C-11 7.0625 -11 7.0625 -8 6.0625 C-8 5.4025 -8 4.7425 -8 4.0625 C-5.31804781 1.30166687 -3.90844435 0.08142592 0 0 Z " fill="#C2C2C2" transform="translate(159,197.9375)"/>
<path d="M0 0 C1.32 0 2.64 0 4 0 C4 0.66 4 1.32 4 2 C4.680625 2.165 5.36125 2.33 6.0625 2.5 C9.73604105 4.37585075 11.67228256 6.81815235 14.28515625 9.95703125 C16.39024441 12.46491532 18.6510144 14.72219579 21 17 C17.39297497 25.03701209 7.95902971 33.38225922 0 37 C-0.4846875 36.50371094 -0.969375 36.00742188 -1.46875 35.49609375 C-5.6082042 31.30091613 -9.80367571 27.38966475 -14.43359375 23.73828125 C-16.46586129 21.48302176 -16.76210676 20.01144852 -17 17 C-15.76831055 15.05541992 -15.76831055 15.05541992 -13.88671875 13.23046875 C-13.21576172 12.56982422 -12.54480469 11.90917969 -11.85351562 11.22851562 C-11.13873047 10.55498047 -10.42394531 9.88144531 -9.6875 9.1875 C-8.98431641 8.49462891 -8.28113281 7.80175781 -7.55664062 7.08789062 C-2.3083436 2 -2.3083436 2 0 2 C0 1.34 0 0.68 0 0 Z " fill="#426297" transform="translate(201,104)"/>
<path d="M0 0 C2.6673362 0.95963057 4.02470467 1.92509303 6.02563477 3.90991211 C6.64116211 4.5202832 7.25668945 5.1306543 7.89086914 5.75952148 C8.51670898 6.40083008 9.14254883 7.04213867 9.78735352 7.70288086 C10.4325293 8.33258789 11.07770508 8.96229492 11.74243164 9.61108398 C12.35151367 10.22532227 12.9605957 10.83956055 13.58813477 11.47241211 C14.14283447 12.03162354 14.69753418 12.59083496 15.26904297 13.16699219 C16.47485352 14.89038086 16.47485352 14.89038086 16.47485352 18.89038086 C15.67047852 19.15850586 14.86610352 19.42663086 14.03735352 19.70288086 C13.19172852 20.09475586 12.34610352 20.48663086 11.47485352 20.89038086 C11.14485352 21.88038086 10.81485352 22.87038086 10.47485352 23.89038086 C9.81485352 23.89038086 9.15485352 23.89038086 8.47485352 23.89038086 C8.47485352 24.55038086 8.47485352 25.21038086 8.47485352 25.89038086 C7.81485352 25.89038086 7.15485352 25.89038086 6.47485352 25.89038086 C6.47485352 26.55038086 6.47485352 27.21038086 6.47485352 27.89038086 C5.81485352 27.89038086 5.15485352 27.89038086 4.47485352 27.89038086 C4.22735352 28.46788086 3.97985352 29.04538086 3.72485352 29.64038086 C2.26213862 32.27326768 0.83658583 34.01488755 -1.52514648 35.89038086 C-6.56778471 35.34258948 -9.42031633 31.54736592 -12.83764648 28.14038086 C-13.49571289 27.51905273 -14.1537793 26.89772461 -14.83178711 26.25756836 C-15.75701172 25.34104492 -15.75701172 25.34104492 -16.70092773 24.40600586 C-17.55037964 23.57504395 -17.55037964 23.57504395 -18.41699219 22.72729492 C-19.52514648 20.89038086 -19.52514648 20.89038086 -19.41552734 18.42211914 C-17.79549184 13.81565679 -14.18378604 10.89401479 -10.77514648 7.51538086 C-10.05842773 6.76643555 -9.34170898 6.01749023 -8.60327148 5.24584961 C-7.55139648 4.19204102 -7.55139648 4.19204102 -6.47827148 3.11694336 C-5.84050781 2.47321777 -5.20274414 1.82949219 -4.5456543 1.16625977 C-2.52514648 -0.10961914 -2.52514648 -0.10961914 0 0 Z " fill="#436397" transform="translate(251.525146484375,328.109619140625)"/>
<path d="M0 0 C8.91 0 17.82 0 27 0 C27 3.3 27 6.6 27 10 C26.01 10 25.02 10 24 10 C23.67 8.68 23.34 7.36 23 6 C19.04 5.67 15.08 5.34 11 5 C11 7.97 11 10.94 11 14 C13.64 13.67 16.28 13.34 19 13 C19.33 12.01 19.66 11.02 20 10 C20.99 10 21.98 10 23 10 C23 14.29 23 18.58 23 23 C22.01 23 21.02 23 20 23 C19.505 20.525 19.505 20.525 19 18 C16.36 18 13.72 18 11 18 C11 21.96 11 25.92 11 30 C19.0743541 30.21287471 19.0743541 30.21287471 25.5625 26.4375 C26.036875 25.633125 26.51125 24.82875 27 24 C27.99 24 28.98 24 30 24 C29.42732628 28.10416164 28.5731146 31.0672135 27 35 C18.09 35 9.18 35 0 35 C-0.495 33.515 -0.495 33.515 -1 32 C0.65 31.34 2.3 30.68 4 30 C4 21.75 4 13.5 4 5 C2.68 4.34 1.36 3.68 0 3 C0 2.01 0 1.02 0 0 Z " fill="#415C8D" transform="translate(238,379)"/>
<path d="M0 0 C1.32 0 2.64 0 4 0 C4.3242395 0.77694214 4.3242395 0.77694214 4.6550293 1.56958008 C6.75341463 6.59177137 8.86537214 11.60801801 10.99121094 16.61865234 C11.84560608 18.63553769 12.69309873 20.65534494 13.5390625 22.67578125 C13.95929688 23.64902344 14.37953125 24.62226563 14.8125 25.625 C15.34810547 26.88183594 15.34810547 26.88183594 15.89453125 28.1640625 C16.93302078 30.33856463 16.93302078 30.33856463 20 31 C20 32.32 20 33.64 20 35 C15.71 35 11.42 35 7 35 C7 33.68 7 32.36 7 31 C7.66 31 8.32 31 9 31 C8.34 28.69 7.68 26.38 7 24 C3.04 24 -0.92 24 -5 24 C-5.66 25.98 -6.32 27.96 -7 30 C-6.01 30.66 -5.02 31.32 -4 32 C-4 32.99 -4 33.98 -4 35 C-7.96 35 -11.92 35 -16 35 C-16 33.68 -16 32.36 -16 31 C-15.01 31 -14.02 31 -13 31 C-12.7628125 30.21753906 -12.525625 29.43507813 -12.28125 28.62890625 C-10.6235034 23.93364224 -8.57201654 19.46217509 -6.5 14.9375 C-5.69696653 13.17621414 -4.89485396 11.41450807 -4.09375 9.65234375 C-3.73990234 8.87882568 -3.38605469 8.10530762 -3.02148438 7.30834961 C-1.9532395 4.89433066 -0.96636961 2.45637039 0 0 Z M1 10 C0.32845067 11.28913487 -0.33708859 12.58140204 -1 13.875 C-1.37125 14.59429687 -1.7425 15.31359375 -2.125 16.0546875 C-3.13673746 17.94848977 -3.13673746 17.94848977 -3 20 C-0.03 20 2.94 20 6 20 C4.68 16.7 3.36 13.4 2 10 C1.67 10 1.34 10 1 10 Z " fill="#5F779F" transform="translate(124,379)"/>
<path d="M0 0 C1.75390625 1.26953125 1.75390625 1.26953125 2.36328125 3.65234375 C2.4096875 4.55726563 2.45609375 5.4621875 2.50390625 6.39453125 C2.560625 7.30460937 2.61734375 8.2146875 2.67578125 9.15234375 C2.7015625 9.85101563 2.72734375 10.5496875 2.75390625 11.26953125 C1.43390625 11.26953125 0.11390625 11.26953125 -1.24609375 11.26953125 C-1.69984375 10.30015625 -2.15359375 9.33078125 -2.62109375 8.33203125 C-3.90395596 5.19873543 -3.90395596 5.19873543 -6.24609375 4.26953125 C-12.62295788 3.76578126 -12.62295788 3.76578126 -18.24609375 6.26953125 C-21.66542648 10.17734008 -21.64559816 13.93085269 -21.4609375 18.89453125 C-21.19706018 21.81157512 -20.92309254 23.83026029 -19.24609375 26.26953125 C-13.50551065 29.1398228 -7.29778875 28.98112176 -1.24609375 27.26953125 C-0.25609375 26.93953125 0.73390625 26.60953125 1.75390625 26.26953125 C2.08390625 27.58953125 2.41390625 28.90953125 2.75390625 30.26953125 C-4.12709536 34.58702246 -10.18938133 35.2989417 -18.24609375 34.26953125 C-23.17026667 32.02341728 -25.83221324 29.09729227 -28.24609375 24.26953125 C-29.8441464 17.74597386 -29.60559901 12.14866546 -26.24609375 6.26953125 C-19.82156794 -2.23351762 -9.62901437 -3.13152293 0 0 Z " fill="#637AA0" transform="translate(191.24609375,379.73046875)"/>
<path d="M0 0 C9.24 0 18.48 0 28 0 C28 3.3 28 6.6 28 10 C27.01 10 26.02 10 25 10 C24.67 8.35 24.34 6.7 24 5 C18.06 5.495 18.06 5.495 12 6 C11.67 8.64 11.34 11.28 11 14 C13.64 14 16.28 14 19 14 C19.33 12.68 19.66 11.36 20 10 C20.99 10 21.98 10 23 10 C23 14.29 23 18.58 23 23 C21.68 22.67 20.36 22.34 19 22 C19 20.68 19 19.36 19 18 C16.36 18 13.72 18 11 18 C11.33 21.96 11.66 25.92 12 30 C13.98 30.66 15.96 31.32 18 32 C17.67 32.99 17.34 33.98 17 35 C11.39 35 5.78 35 0 35 C0 34.01 0 33.02 0 32 C1.32 31.34 2.64 30.68 4 30 C4.33 21.42 4.66 12.84 5 4 C3.35 3.67 1.7 3.34 0 3 C0 2.01 0 1.02 0 0 Z " fill="#3F5B8B" transform="translate(303,379)"/>
<path d="M0 0 C3.73051229 0.02285908 7.45798188 0.10024673 11.1875 0.1875 C12.77014648 0.19620117 12.77014648 0.19620117 14.38476562 0.20507812 C22.21343625 0.42734322 22.21343625 0.42734322 26.203125 3.33203125 C28.58345438 6.86630292 28.67234742 8.81650496 28 13 C25.80429541 16.52881094 23.82561979 18.45450505 20 20 C16.97207178 20.25065631 14.04558972 20.08957617 11 20 C11.33 23.3 11.66 26.6 12 30 C13.98 30.66 15.96 31.32 18 32 C17.67 32.99 17.34 33.98 17 35 C11.39 35 5.78 35 0 35 C0 34.01 0 33.02 0 32 C1.65 31.67 3.3 31.34 5 31 C5 22.09 5 13.18 5 4 C3.35 3.67 1.7 3.34 0 3 C0 2.01 0 1.02 0 0 Z M11 6 C10.63583953 8.43693311 10.63583953 8.43693311 10.8125 11.125 C10.83957031 12.03507812 10.86664063 12.94515625 10.89453125 13.8828125 C10.92933594 14.58148438 10.96414062 15.28015625 11 16 C14.21729991 17.0111514 15.60136553 17.17213761 18.75 15.8125 C21.04920232 14.20270771 21.04920232 14.20270771 22 12.125 C22 8.96367657 20.97056425 7.43036258 19 5 C15.18966533 3.5711245 14.4802327 3.67984487 11 6 Z " fill="#426090" transform="translate(209,379)"/>
<path d="M0 0 C0 3.3 0 6.6 0 10 C-0.99 10 -1.98 10 -3 10 C-3.45375 9.030625 -3.9075 8.06125 -4.375 7.0625 C-5.65786221 3.92920418 -5.65786221 3.92920418 -8 3 C-10.07564676 2.80241769 -10.07564676 2.80241769 -12.375 2.8125 C-13.14585937 2.79832031 -13.91671875 2.78414063 -14.7109375 2.76953125 C-17.30667885 3.03087722 -18.83191414 3.55151437 -21 5 C-23.36331461 8.71134244 -24.0225277 12.33543288 -23.875 16.6875 C-22.81998479 20.68148615 -21.81261818 23.89078589 -18.16796875 26.12109375 C-12.58142758 28.38590774 -6.42350856 27.22502915 -1 25 C-0.67 26.32 -0.34 27.64 0 29 C-6.97086322 33.21920669 -11.81625371 33.51833716 -20 33 C-24.38305739 31.7696681 -26.1330803 30.22735454 -28.3125 26.375 C-30.91039868 20.41511479 -31.91885163 14.8409081 -29.6875 8.625 C-28 5 -28 5 -26 2 C-25.34 2 -24.68 2 -24 2 C-24 1.34 -24 0.68 -24 0 C-15.78203578 -3.59155473 -8.14085595 -4.07042797 0 0 Z " fill="#6B82A8" transform="translate(301,381)"/>
<path d="M0 0 C5.28 0 10.56 0 16 0 C16 0.99 16 1.98 16 3 C14.35 3.33 12.7 3.66 11 4 C11 12.91 11 21.82 11 31 C12.65 31.33 14.3 31.66 16 32 C16 32.99 16 33.98 16 35 C10.72 35 5.44 35 0 35 C0.33 33.68 0.66 32.36 1 31 C1.99 30.67 2.98 30.34 4 30 C4 21.75 4 13.5 4 5 C2.68 4.34 1.36 3.68 0 3 C0 2.01 0 1.02 0 0 Z " fill="#496392" transform="translate(145,379)"/>
<path d="M0 0 C3.73051229 0.02285908 7.45798188 0.10024673 11.1875 0.1875 C12.77014648 0.19620117 12.77014648 0.19620117 14.38476562 0.20507812 C22.21343625 0.42734322 22.21343625 0.42734322 26.203125 3.33203125 C28.58345438 6.86630292 28.67234742 8.81650496 28 13 C26.26613148 15.84849829 25.03179693 17.51634519 22 18.9375 C19.50088598 19.01559731 18.1134673 18.28317658 16 17 C17.375 15.5 17.375 15.5 19 14 C19.66 14 20.32 14 21 14 C20.76586026 8.96521559 20.76586026 8.96521559 17.9375 5.0625 C17.298125 4.711875 16.65875 4.36125 16 4 C16.33 3.67 16.66 3.34 17 3 C14.03 2.67 11.06 2.34 8 2 C6.94163339 5.17509982 6.79756211 7.64282383 6.68359375 10.98046875 C6.64169922 12.14384766 6.59980469 13.30722656 6.55664062 14.50585938 C6.51732422 15.72080078 6.47800781 16.93574219 6.4375 18.1875 C6.39431641 19.41404297 6.35113281 20.64058594 6.30664062 21.90429688 C6.2004691 24.93608381 6.09842048 27.96795315 6 31 C5.67 31 5.34 31 5 31 C5 22.09 5 13.18 5 4 C3.35 3.67 1.7 3.34 0 3 C0 2.01 0 1.02 0 0 Z " fill="#607BA4" transform="translate(209,379)"/>
<path d="M0 0 C0 3.3 0 6.6 0 10 C-0.99 10 -1.98 10 -3 10 C-3.45375 9.030625 -3.9075 8.06125 -4.375 7.0625 C-5.65786221 3.92920418 -5.65786221 3.92920418 -8 3 C-10.07564676 2.80241769 -10.07564676 2.80241769 -12.375 2.8125 C-13.14585937 2.79832031 -13.91671875 2.78414063 -14.7109375 2.76953125 C-17.32032294 3.03225094 -18.83476577 3.5177903 -21 5 C-22.11473134 6.93103908 -22.11473134 6.93103908 -22.75 9.125 C-22.99234375 9.84945313 -23.2346875 10.57390625 -23.484375 11.3203125 C-23.65453125 11.87460937 -23.8246875 12.42890625 -24 13 C-25.65 11.35 -27.3 9.7 -29 8 C-28.1875 5.5625 -28.1875 5.5625 -27 3 C-26.01 2.67 -25.02 2.34 -24 2 C-24 1.34 -24 0.68 -24 0 C-15.78203578 -3.59155473 -8.14085595 -4.07042797 0 0 Z " fill="#5B719C" transform="translate(301,381)"/>
<path d="M0 0 C4.29 0 8.58 0 13 0 C13 0.33 13 0.66 13 1 C9.04 1 5.08 1 1 1 C1 3.97 1 6.94 1 10 C3.64 9.67 6.28 9.34 9 9 C9.33 8.01 9.66 7.02 10 6 C10.99 6 11.98 6 13 6 C13 10.29 13 14.58 13 19 C12.01 19 11.02 19 10 19 C9.67 17.35 9.34 15.7 9 14 C6.36 14 3.72 14 1 14 C1 17.96 1 21.92 1 26 C9.0743541 26.21287471 9.0743541 26.21287471 15.5625 22.4375 C16.036875 21.633125 16.51125 20.82875 17 20 C17.99 20 18.98 20 20 20 C19.44894091 23.9492568 18.61064629 27.34920174 17 31 C14.36 31 11.72 31 9 31 C10.32 30.01 11.64 29.02 13 28 C8.71 27.67 4.42 27.34 0 27 C0 22.38 0 17.76 0 13 C2.97 13 5.94 13 9 13 C9 12.34 9 11.68 9 11 C6.03 11 3.06 11 0 11 C0 7.37 0 3.74 0 0 Z " fill="#899BBB" transform="translate(248,383)"/>
<path d="M0 0 C1.65 0.33 3.3 0.66 5 1 C3.125 5.75 3.125 5.75 2 8 C3.98 8 5.96 8 8 8 C8 8.33 8 8.66 8 9 C6.35 9 4.7 9 3 9 C3 9.66 3 10.32 3 11 C5.97 11 8.94 11 12 11 C12 11.33 12 11.66 12 12 C8.04 12 4.08 12 0 12 C-0.66 13.98 -1.32 15.96 -2 18 C-1.01 18.66 -0.02 19.32 1 20 C1 20.99 1 21.98 1 23 C-2.96 23 -6.92 23 -11 23 C-11 21.68 -11 20.36 -11 19 C-10.01 19 -9.02 19 -8 19 C-7.73445313 18.15179688 -7.46890625 17.30359375 -7.1953125 16.4296875 C-5.95559534 12.87259054 -4.47517384 9.53406601 -2.875 6.125 C-2.33617188 4.97257812 -1.79734375 3.82015625 -1.2421875 2.6328125 C-0.62730469 1.32957031 -0.62730469 1.32957031 0 0 Z " fill="#7087AB" transform="translate(119,391)"/>
<path d="M0 0 C0.33 0.66 0.66 1.32 1 2 C8.26553295 5.18974617 14.74508105 4.41830632 22 2 C22.33 3.32 22.66 4.64 23 6 C16.12793357 10.31188482 10.04815998 11.04657477 2 10 C-1.47301972 8.73238014 -3.42803608 6.93594097 -5.375 3.75 C-5.58125 3.1725 -5.7875 2.595 -6 2 C-3.03 2.495 -3.03 2.495 0 3 C0 2.01 0 1.02 0 0 Z " fill="#768AAE" transform="translate(171,404)"/>
<path d="M0 0 C13.365 0.495 13.365 0.495 27 1 C26.01 1.495 26.01 1.495 25 2 C25 2.66 25 3.32 25 4 C20.38 4 15.76 4 11 4 C10.67 7.96 10.34 11.92 10 16 C9.01 16.33 8.02 16.66 7 17 C4.71428571 8.57142857 4.71428571 8.57142857 5 4 C3.35 3.67 1.7 3.34 0 3 C0 2.01 0 1.02 0 0 Z " fill="#3D5988" transform="translate(303,379)"/>
<path d="M0 0 C8.91 0 17.82 0 27 0 C27 3.3 27 6.6 27 10 C26.01 10 25.02 10 24 10 C23.34 8.02 22.68 6.04 22 4 C17.71 3.67 13.42 3.34 9 3 C9 3.66 9 4.32 9 5 C8.34 5 7.68 5 7 5 C6.67 11.6 6.34 18.2 6 25 C5.67 25 5.34 25 5 25 C4.67 18.4 4.34 11.8 4 5 C2.68 4.34 1.36 3.68 0 3 C0 2.01 0 1.02 0 0 Z " fill="#4C628B" transform="translate(238,379)"/>
<path d="M0 0 C5.28 0 10.56 0 16 0 C16 0.99 16 1.98 16 3 C14.35 3.33 12.7 3.66 11 4 C11 12.91 11 21.82 11 31 C10.67 31 10.34 31 10 31 C9.67 21.76 9.34 12.52 9 3 C8.01 3 7.02 3 6 3 C6.01047363 3.82725586 6.02094727 4.65451172 6.03173828 5.50683594 C6.07330912 9.2545264 6.09932992 13.00216832 6.125 16.75 C6.14175781 18.05195313 6.15851563 19.35390625 6.17578125 20.6953125 C6.18222656 21.94570313 6.18867188 23.19609375 6.1953125 24.484375 C6.20578613 25.63647461 6.21625977 26.78857422 6.22705078 27.97558594 C6.00758762 30.89892966 5.52728122 32.53732509 4 35 C2.68 35 1.36 35 0 35 C0.3125 33.0625 0.3125 33.0625 1 31 C1.99 30.67 2.98 30.34 4 30 C4 21.75 4 13.5 4 5 C2.68 4.34 1.36 3.68 0 3 C0 2.01 0 1.02 0 0 Z " fill="#7C8FB0" transform="translate(145,379)"/>
<path d="M0 0 C1.65 0.33 3.3 0.66 5 1 C5 1.66 5 2.32 5 3 C5.99 3.33 6.98 3.66 8 4 C8.90234375 6.07421875 8.90234375 6.07421875 9 9 C7.18392567 11.60743634 4.89370853 13.66778816 2.5625 15.8125 C1.62567383 16.7087207 1.62567383 16.7087207 0.66992188 17.62304688 C-0.87361502 19.09588743 -2.43515877 20.54981471 -4 22 C-4.33 21.01 -4.66 20.02 -5 19 C-4.01 18.67 -3.02 18.34 -2 18 C-2.2475 17.484375 -2.495 16.96875 -2.75 16.4375 C-3.15027964 12.53477349 -1.06779228 10.25833935 1 7 C0.34 6.67 -0.32 6.34 -1 6 C-0.67 4.02 -0.34 2.04 0 0 Z " fill="#3E5F94" transform="translate(212,202)"/>
<path d="M0 0 C3.3 0 6.6 0 10 0 C10 0.33 10 0.66 10 1 C7.03 1 4.06 1 1 1 C1.33 4.3 1.66 7.6 2 11 C3.98 11.66 5.96 12.32 8 13 C7.67 13.99 7.34 14.98 7 16 C1.39 16 -4.22 16 -10 16 C-10 15.01 -10 14.02 -10 13 C-8.35 12.67 -6.7 12.34 -5 12 C-5 12.66 -5 13.32 -5 14 C-4.01 14 -3.02 14 -2 14 C-2.165 13.505 -2.33 13.01 -2.5 12.5 C-3.20688818 8.96555911 -3.06005155 5.60309299 -3 2 C-2.01 2 -1.02 2 0 2 C0 1.34 0 0.68 0 0 Z " fill="#446191" transform="translate(219,398)"/>
<path d="M0 0 C0.33 0 0.66 0 1 0 C1.33 5.94 1.66 11.88 2 18 C3.32 18 4.64 18 6 18 C6.33 18.99 6.66 19.98 7 21 C10.00847418 22.22520264 10.00847418 22.22520264 13 23 C12.67 23.99 12.34 24.98 12 26 C6.39 26 0.78 26 -5 26 C-5 25.01 -5 24.02 -5 23 C-3.68 22.34 -2.36 21.68 -1 21 C-0.67 14.07 -0.34 7.14 0 0 Z " fill="#6F84AD" transform="translate(308,388)"/>
<path d="M0 0 C1.32 1.32 2.64 2.64 4 4 C1.77810176 6.22189824 -0.08482708 6.92598892 -3 8 C-3.33 10.64 -3.66 13.28 -4 16 C-3.34 16.33 -2.68 16.66 -2 17 C-2 17.66 -2 18.32 -2 19 C-0.68 19.33 0.64 19.66 2 20 C1.67 20.99 1.34 21.98 1 23 C-3.15393328 20.39171631 -6.88993733 17.86401726 -10 14 C-9.83026608 9.34003238 -7.73025077 7.29474369 -4.4375 4.1875 C-3.61121094 3.39730469 -2.78492188 2.60710937 -1.93359375 1.79296875 C-1.29550781 1.20128906 -0.65742188 0.60960938 0 0 Z " fill="#516D98" transform="translate(194,111)"/>
<path d="M0 0 C0.33 0 0.66 0 1 0 C1.33 2.31 1.66 4.62 2 7 C2.98742187 6.96519531 3.97484375 6.93039062 4.9921875 6.89453125 C6.27351562 6.86746094 7.55484375 6.84039062 8.875 6.8125 C10.78925781 6.76029297 10.78925781 6.76029297 12.7421875 6.70703125 C14.35480469 6.85205078 14.35480469 6.85205078 16 7 C16.99 8.485 16.99 8.485 18 10 C9.42 10.33 0.84 10.66 -8 11 C-8.33 10.01 -8.66 9.02 -9 8 C-7.329375 7.4121875 -7.329375 7.4121875 -5.625 6.8125 C-2.68039334 5.57517033 -2.14117455 5.26393503 -0.5625 2.3125 C-0.376875 1.549375 -0.19125 0.78625 0 0 Z " fill="#4B6599" transform="translate(246,403)"/>
<path d="M0 0 C1.58409994 0.11487748 3.16728963 0.24234508 4.75 0.375 C6.07257813 0.47941406 6.07257813 0.47941406 7.421875 0.5859375 C10.10454051 1.01678984 11.81663335 1.3723994 14 3 C14.609375 5.3828125 14.609375 5.3828125 14.75 8.125 C14.80671875 9.03507812 14.8634375 9.94515625 14.921875 10.8828125 C14.94765625 11.58148438 14.9734375 12.28015625 15 13 C13.68 13 12.36 13 11 13 C10.71125 12.05125 10.4225 11.1025 10.125 10.125 C7.65162738 6.48768733 6.94871195 6.42065039 2.8125 5.625 C1.21181405 5.39142351 -0.39185505 5.17499514 -2 5 C-2 4.67 -2 4.34 -2 4 C-0.02 4 1.96 4 4 4 C4 3.34 4 2.68 4 2 C2.35 2 0.7 2 -1 2 C-0.67 1.34 -0.34 0.68 0 0 Z " fill="#7889AC" transform="translate(179,378)"/>
<path d="M0 0 C1.32 0 2.64 0 4 0 C4.97533063 2.63339271 5.019574 3.92348347 4.3125 6.6875 C3 9 3 9 1.0625 9.8125 C-1 10 -1 10 -4 10 C-4 10.66 -4 11.32 -4 12 C-6.97 11.505 -6.97 11.505 -10 11 C-10 10.34 -10 9.68 -10 9 C-8.35 8.34 -6.7 7.68 -5 7 C-5 6.34 -5 5.68 -5 5 C-4.34 5 -3.68 5 -3 5 C-2.690625 4.360625 -2.38125 3.72125 -2.0625 3.0625 C-1 1 -1 1 0 0 Z " fill="#536D9A" transform="translate(335,242)"/>
<path d="M0 0 C2.31 0.66 4.62 1.32 7 2 C7.33 3.65 7.66 5.3 8 7 C7.195625 7.268125 6.39125 7.53625 5.5625 7.8125 C4.716875 8.204375 3.87125 8.59625 3 9 C2.67 9.99 2.34 10.98 2 12 C1.34 12 0.68 12 0 12 C0 12.66 0 13.32 0 14 C-0.66 14 -1.32 14 -2 14 C-1.34 12.68 -0.68 11.36 0 10 C-0.66 9.67 -1.32 9.34 -2 9 C-1.34 6.03 -0.68 3.06 0 0 Z " fill="#59749F" transform="translate(260,340)"/>
<path d="M0 0 C1.65 0 3.3 0 5 0 C4.67 1.65 4.34 3.3 4 5 C4.99 5.66 5.98 6.32 7 7 C7 7.99 7 8.98 7 10 C3.04 10 -0.92 10 -5 10 C-5 8.68 -5 7.36 -5 6 C-4.01 6 -3.02 6 -2 6 C-1.34 4.02 -0.68 2.04 0 0 Z " fill="#6F81A3" transform="translate(113,404)"/>
<path d="M0 0 C1.953125 0.5859375 1.953125 0.5859375 4 2 C4.609375 5.0390625 4.609375 5.0390625 4.75 8.625 C4.80671875 9.81351562 4.8634375 11.00203125 4.921875 12.2265625 C4.94765625 13.14179688 4.9734375 14.05703125 5 15 C4.67 14.34 4.34 13.68 4 13 C2.35 13.33 0.7 13.66 -1 14 C-2.51708428 4.58997722 -2.51708428 4.58997722 0 0 Z " fill="#5D73A0" transform="translate(272,389)"/>
<path d="M0 0 C0.06058594 0.65226562 0.12117187 1.30453125 0.18359375 1.9765625 C0.63519991 6.68716217 1.14195039 11.34201638 2 16 C-0.31 15.67 -2.62 15.34 -5 15 C-5.6286358 4.8719787 -5.6286358 4.8719787 -3.0625 1.3125 C-1 0 -1 0 0 0 Z " fill="#435F8D" transform="translate(169,391)"/>
<path d="M0 0 C6.6 0.33 13.2 0.66 20 1 C20 1.33 20 1.66 20 2 C16.04 2 12.08 2 8 2 C6.94163339 5.17509982 6.79756211 7.64282383 6.68359375 10.98046875 C6.64169922 12.14384766 6.59980469 13.30722656 6.55664062 14.50585938 C6.51732422 15.72080078 6.47800781 16.93574219 6.4375 18.1875 C6.39431641 19.41404297 6.35113281 20.64058594 6.30664062 21.90429688 C6.2004691 24.93608381 6.09842048 27.96795315 6 31 C5.67 31 5.34 31 5 31 C5 22.09 5 13.18 5 4 C3.35 3.67 1.7 3.34 0 3 C0 2.01 0 1.02 0 0 Z " fill="#8297B9" transform="translate(209,379)"/>
<path d="M0 0 C0.66 0 1.32 0 2 0 C2.66 1.65 3.32 3.3 4 5 C-5.22551253 14.59453303 -5.22551253 14.59453303 -11 18 C-11 17.34 -11 16.68 -11 16 C-11.66 15.67 -12.32 15.34 -13 15 C-10 13 -10 13 -6 13 C-5.8453125 11.8553125 -5.8453125 11.8553125 -5.6875 10.6875 C-4.95288806 7.81583516 -4.3283935 6.76957906 -2 5 C-1.34 5 -0.68 5 0 5 C0 3.35 0 1.7 0 0 Z " fill="#7288A8" transform="translate(218,118)"/>
<path d="M0 0 C3.96 0 7.92 0 12 0 C11.67 1.65 11.34 3.3 11 5 C7.37 5 3.74 5 0 5 C0 3.35 0 1.7 0 0 Z " fill="#63789C" transform="translate(196,399)"/>
<path d="M0 0 C0.99 0.33 1.98 0.66 3 1 C3.33 1.99 3.66 2.98 4 4 C4.66 4.66 5.32 5.32 6 6 C4.68 7.32 3.36 8.64 2 10 C-1.7952131 8.50902342 -3.61042731 6.24299151 -6 3 C-4.68 3.33 -3.36 3.66 -2 4 C-1.34 2.68 -0.68 1.36 0 0 Z " fill="#526E9F" transform="translate(201,131)"/>
<path d="M0 0 C0.99 0.33 1.98 0.66 3 1 C3 1.99 3 2.98 3 4 C1.75823305 4.70226141 0.50614401 5.38629109 -0.75 6.0625 C-1.44609375 6.44535156 -2.1421875 6.82820313 -2.859375 7.22265625 C-5.36140628 8.1312406 -6.5332355 7.88336837 -9 7 C-8.34 6.34 -7.68 5.68 -7 5 C-9.97 4.505 -9.97 4.505 -13 4 C-13 3.67 -13 3.34 -13 3 C-12.22914063 2.86722656 -11.45828125 2.73445313 -10.6640625 2.59765625 C-9.66117188 2.42105469 -8.65828125 2.24445313 -7.625 2.0625 C-6.62726563 1.88847656 -5.62953125 1.71445312 -4.6015625 1.53515625 C-2.03090344 1.12287938 -2.03090344 1.12287938 0 0 Z " fill="#7689A9" transform="translate(191,406)"/>
<path d="M0 0 C0.66666667 1.33333333 1.33333333 2.66666667 2 4 C2.53625 5.03125 3.0725 6.0625 3.625 7.125 C5 10 5 10 5 12 C3.02 12 1.04 12 -1 12 C-1.67154933 10.71086513 -2.33708859 9.41859796 -3 8.125 C-3.37125 7.40570313 -3.7425 6.68640625 -4.125 5.9453125 C-5 4 -5 4 -5 2 C-4.01 2 -3.02 2 -2 2 C-1.67 2.99 -1.34 3.98 -1 5 C-0.67 3.35 -0.34 1.7 0 0 Z " fill="#667DA5" transform="translate(131,388)"/>
<path d="M0 0 C2.31 0 4.62 0 7 0 C7 3.3 7 6.6 7 10 C6.01 10 5.02 10 4 10 C3.67 8.35 3.34 6.7 3 5 C-3.435 5.495 -3.435 5.495 -10 6 C-10 5.34 -10 4.68 -10 4 C-5.38 4 -0.76 4 4 4 C4 3.34 4 2.68 4 2 C2.68 1.34 1.36 0.68 0 0 Z " fill="#8194B7" transform="translate(324,379)"/>
<path d="M0 0 C0.66 0.33 1.32 0.66 2 1 C0.75 4.4375 0.75 4.4375 -1 8 C-3.1875 8.9375 -3.1875 8.9375 -5 9 C-4.65555119 11.47266765 -4.65555119 11.47266765 -4 14 C-3.34 14.33 -2.68 14.66 -2 15 C-5 15 -5 15 -6.75 13.8125 C-8 12 -8 12 -8.125 9.75 C-6.42131494 5.58543651 -3.29395038 2.98433625 0 0 Z " fill="#7387A9" transform="translate(240,249)"/>
<path d="M0 0 C5.50719921 3.90510489 10.35827355 8.09717644 15 13 C11.25 14.125 11.25 14.125 9 13 C9 11.68 9 10.36 9 9 C7.88625 8.814375 6.7725 8.62875 5.625 8.4375 C3.830625 7.7259375 3.830625 7.7259375 2 7 C0.5625 3.375 0.5625 3.375 0 0 Z " fill="#6678A0" transform="translate(186,174)"/>
<path d="M0 0 C0 0.66 0 1.32 0 2 C1.98 1.67 3.96 1.34 6 1 C6 0.67 6 0.34 6 0 C8.31 0.33 10.62 0.66 13 1 C12.67 1.99 12.34 2.98 12 4 C6.39 4 0.78 4 -5 4 C-5 3.01 -5 2.02 -5 1 C-3 0 -3 0 0 0 Z " fill="#617199" transform="translate(214,410)"/>
<path d="M0 0 C0.99 0.66 1.98 1.32 3 2 C0.69 4.64 -1.62 7.28 -4 10 C-8.59037956 8.85240511 -9.33669182 7.70960782 -12 4 C-10.68 4 -9.36 4 -8 4 C-8 4.66 -8 5.32 -8 6 C-6.68 6 -5.36 6 -4 6 C-3.67 5.34 -3.34 4.68 -3 4 C-2.34 4 -1.68 4 -1 4 C-0.67 2.68 -0.34 1.36 0 0 Z " fill="#7387A6" transform="translate(254,354)"/>
<path d="M0 0 C0.33 0.66 0.66 1.32 1 2 C-0.3921875 2.1546875 -0.3921875 2.1546875 -1.8125 2.3125 C-5.20332568 3.04385456 -5.73346842 3.63044426 -8 6 C-9.32 6 -10.64 6 -12 6 C-12 6.66 -12 7.32 -12 8 C-13.5 9.625 -13.5 9.625 -15 11 C-15.99 10.67 -16.98 10.34 -18 10 C-17.34 10 -16.68 10 -16 10 C-15.67 9.01 -15.34 8.02 -15 7 C-14.34 7 -13.68 7 -13 7 C-13 6.34 -13 5.68 -13 5 C-12.34 5 -11.68 5 -11 5 C-10.67 4.01 -10.34 3.02 -10 2 C-6.43765117 -0.77071576 -4.31146334 -1.55691732 0 0 Z " fill="#7D8FAD" transform="translate(255,154)"/>
<path d="M0 0 C0.66 0 1.32 0 2 0 C2.05804281 4.41661151 2.09361104 8.83312496 2.125 13.25 C2.14175781 14.50425781 2.15851563 15.75851562 2.17578125 17.05078125 C2.18222656 18.25605469 2.18867188 19.46132813 2.1953125 20.703125 C2.20578613 21.81333008 2.21625977 22.92353516 2.22705078 24.06738281 C2.00468334 26.93950942 1.49281575 28.57223735 0 31 C-1.32 31 -2.64 31 -4 31 C-3.6875 29.0625 -3.6875 29.0625 -3 27 C-2.01 26.67 -1.02 26.34 0 26 C0 17.42 0 8.84 0 0 Z " fill="#899DBC" transform="translate(149,383)"/>
<path d="M0 0 C1.99954746 -0.04254356 4.00041636 -0.04080783 6 0 C7.66342837 1.66342837 7.36048097 3.7825709 7.5625 6.0625 C7.64628906 6.98160156 7.73007813 7.90070313 7.81640625 8.84765625 C7.87699219 9.55792969 7.93757812 10.26820313 8 11 C6.68 11 5.36 11 4 11 C3.67 8.03 3.34 5.06 3 2 C2.01 1.67 1.02 1.34 0 1 C0 0.67 0 0.34 0 0 Z " fill="#596D92" transform="translate(186,380)"/>
<path d="M0 0 C2.29109597 -0.08075665 4.58299267 -0.13907731 6.875 -0.1875 C8.78925781 -0.23970703 8.78925781 -0.23970703 10.7421875 -0.29296875 C11.81726563 -0.19628906 12.89234375 -0.09960938 14 0 C14.66 0.99 15.32 1.98 16 3 C10.06 3 4.12 3 -2 3 C-1.34 2.67 -0.68 2.34 0 2 C0 1.34 0 0.68 0 0 Z " fill="#425683" transform="translate(248,410)"/>
<path d="M0 0 C1.32 0 2.64 0 4 0 C5.42944945 2.35438733 6.08661261 3.48032433 5.625 6.25 C5.41875 6.8275 5.2125 7.405 5 8 C2.37886292 8 0.49064888 7.68707555 -2 7 C-1.34 4.69 -0.68 2.38 0 0 Z " fill="#637DA1" transform="translate(124,379)"/>
<path d="M0 0 C0.33 0.99 0.66 1.98 1 3 C-1.97 5.97 -4.94 8.94 -8 12 C-8.33 11.01 -8.66 10.02 -9 9 C-8.01 8.67 -7.02 8.34 -6 8 C-6.33 6.68 -6.66 5.36 -7 4 C-2.25 0 -2.25 0 0 0 Z " fill="#607AA4" transform="translate(216,212)"/>
<path d="M0 0 C-0.25 1.875 -0.25 1.875 -1 4 C-3.95545121 6.11103658 -6.43855901 6.19785783 -10 6 C-10 5.01 -10 4.02 -10 3 C-9.01 3 -8.02 3 -7 3 C-7 2.34 -7 1.68 -7 1 C-3.375 -1.125 -3.375 -1.125 0 0 Z " fill="#4D648C" transform="translate(301,407)"/>
<path d="M0 0 C0.33 0 0.66 0 1 0 C1 3.3 1 6.6 1 10 C0.01 10 -0.98 10 -2 10 C-2.45375 9.05125 -2.9075 8.1025 -3.375 7.125 C-4.80238254 3.99686321 -4.80238254 3.99686321 -7 2 C-4.69 2 -2.38 2 0 2 C0 1.34 0 0.68 0 0 Z " fill="#A8B9CF" transform="translate(300,381)"/>
<path d="M0 0 C1.65 0 3.3 0 5 0 C5.268125 0.639375 5.53625 1.27875 5.8125 1.9375 C6.88667752 4.33131686 6.88667752 4.33131686 10 5 C10 5.99 10 6.98 10 8 C10.99 8.33 11.98 8.66 13 9 C12.01 9.495 12.01 9.495 11 10 C6.13431512 7.83747339 3.24066165 4.06474743 0 0 Z " fill="#7688AA" transform="translate(191,219)"/>
<path d="M0 0 C-0.33 0.99 -0.66 1.98 -1 3 C-5.29 2.67 -9.58 2.34 -14 2 C-14 1.34 -14 0.68 -14 0 C-9.49048355 -1.09321611 -4.27999354 -2.13999677 0 0 Z " fill="#425C86" transform="translate(136,400)"/>
<path d="M0 0 C0.66 0 1.32 0 2 0 C1.875 2.25 1.875 2.25 1 5 C-1.75 7.375 -1.75 7.375 -5 9 C-7.875 8.75 -7.875 8.75 -10 8 C-9.67 6.68 -9.34 5.36 -9 4 C-8.67 4.66 -8.34 5.32 -8 6 C-5.43509874 4.9007566 -3.87156808 3.87156808 -1.875 1.875 C-1.25625 1.25625 -0.6375 0.6375 0 0 Z " fill="#6578A4" transform="translate(189,250)"/>
<path d="M0 0 C0.33 0 0.66 0 1 0 C1.1679774 4.08328052 1.33415521 8.16663235 1.5 12.25 C1.54769531 13.40886719 1.59539062 14.56773437 1.64453125 15.76171875 C1.71220703 17.43427734 1.71220703 17.43427734 1.78125 19.140625 C1.82314453 20.16704102 1.86503906 21.19345703 1.90820312 22.25097656 C1.98329057 24.4996058 2 26.75011743 2 29 C1.01 29 0.02 29 -1 29 C-0.67 19.43 -0.34 9.86 0 0 Z " fill="#435A85" transform="translate(215,383)"/>
<path d="M0 0 C0.99 0 1.98 0 3 0 C3.33 0.99 3.66 1.98 4 3 C3.34 3 2.68 3 2 3 C1.67 9.6 1.34 16.2 1 23 C0.67 23 0.34 23 0 23 C-0.19635974 19.54210946 -0.38058252 16.08367803 -0.5625 12.625 C-0.61857422 11.64015625 -0.67464844 10.6553125 -0.73242188 9.640625 C-0.80493164 8.22910156 -0.80493164 8.22910156 -0.87890625 6.7890625 C-0.9260376 5.91975098 -0.97316895 5.05043945 -1.02172852 4.15478516 C-1 2 -1 2 0 0 Z " fill="#6F83A9" transform="translate(243,381)"/>
<path d="M0 0 C0.66 1.32 1.32 2.64 2 4 C1.34 4.66 0.68 5.32 0 6 C-0.33 6.66 -0.66 7.32 -1 8 C-2.84765625 8.6328125 -2.84765625 8.6328125 -5.0625 9.125 C-5.79597656 9.29257812 -6.52945312 9.46015625 -7.28515625 9.6328125 C-7.85105469 9.75398438 -8.41695313 9.87515625 -9 10 C-8.06409496 8.8944811 -7.12620142 7.79064547 -6.1875 6.6875 C-5.66542969 6.07261719 -5.14335937 5.45773437 -4.60546875 4.82421875 C-3.12827531 3.14575321 -1.59960869 1.56117966 0 0 Z " fill="#677CA0" transform="translate(324,253)"/>
<path d="M0 0 C0.99 0.33 1.98 0.66 3 1 C1.37660195 2.70884005 -0.29319053 4.37446717 -2 6 C-2.66 6 -3.32 6 -4 6 C-4.33 6.99 -4.66 7.98 -5 9 C-7.4375 11.6875 -7.4375 11.6875 -10 14 C-10.66 14 -11.32 14 -12 14 C-12.33 14.66 -12.66 15.32 -13 16 C-12.42308522 12.83145253 -11.58353113 11.21773541 -9.27734375 8.984375 C-8.73916016 8.45585937 -8.20097656 7.92734375 -7.64648438 7.3828125 C-7.08251953 6.84398437 -6.51855469 6.30515625 -5.9375 5.75 C-5.36966797 5.19570312 -4.80183594 4.64140625 -4.21679688 4.0703125 C-2.81787531 2.70665786 -1.40980886 1.35239583 0 0 Z " fill="#B9BABC" transform="translate(319,210)"/>
<path d="M0 0 C1.65 0 3.3 0 5 0 C4.45276317 3.37462715 3.9451 5.08235 2 8 C1.01 7.67 0.02 7.34 -1 7 C-2 4 -2 4 -1.0625 1.8125 C-0.5365625 0.9153125 -0.5365625 0.9153125 0 0 Z " fill="#506996" transform="translate(113,404)"/>
<path d="M0 0 C1.32 0.66 2.64 1.32 4 2 C4 3.65 4 5.3 4 7 C3.34 7 2.68 7 2 7 C1.34 8.32 0.68 9.64 0 11 C-0.19491452 9.54263913 -0.38069358 8.08405407 -0.5625 6.625 C-0.66691406 5.81289063 -0.77132813 5.00078125 -0.87890625 4.1640625 C-1 2 -1 2 0 0 Z " fill="#3D5C8E" transform="translate(272,389)"/>
<path d="M0 0 C0.66 0.33 1.32 0.66 2 1 C2 3.97 2 6.94 2 10 C1.01 10.33 0.02 10.66 -1 11 C-1.66 8.03 -2.32 5.06 -3 2 C-2.01 1.34 -1.02 0.68 0 0 Z " fill="#416196" transform="translate(311,385)"/>
<path d="M0 0 C1.32 0 2.64 0 4 0 C4.97533063 2.63339271 5.019574 3.92348347 4.3125 6.6875 C3 9 3 9 0.875 9.8125 C0.25625 9.874375 -0.3625 9.93625 -1 10 C-0.34 8.35 0.32 6.7 1 5 C0.01 4.01 -0.98 3.02 -2 2 C-1.34 1.34 -0.68 0.68 0 0 Z " fill="#5D74A4" transform="translate(335,242)"/>
<path d="M0 0 C3.24208567 0.35049575 4.61527704 0.56221181 6.8125 3.0625 C7.204375 3.701875 7.59625 4.34125 8 5 C4.65747276 5.07427838 2.1964086 5.06546953 -1 4 C-1.99 4 -2.98 4 -4 4 C-2.68 3.34 -1.36 2.68 0 2 C0 1.34 0 0.68 0 0 Z " fill="#7C8EAC" transform="translate(161,240)"/>
<path d="M0 0 C3.81684226 1.55500981 6.19195732 4.03595495 9 7 C6.69 7.33 4.38 7.66 2 8 C0.74335022 5.09399739 0 3.20395416 0 0 Z " fill="#6B85A9" transform="translate(177,167)"/>
<path d="M0 0 C2.97 0.33 5.94 0.66 9 1 C9 1.99 9 2.98 9 4 C1.375 5.25 1.375 5.25 -2 3 C-1.01 3 -0.02 3 1 3 C0.67 2.01 0.34 1.02 0 0 Z " fill="#415D86" transform="translate(176,409)"/>
<path d="M0 0 C0.99 0 1.98 0 3 0 C3 4.29 3 8.58 3 13 C2.01 12.67 1.02 12.34 0 12 C0.66 12 1.32 12 2 12 C2 9.03 2 6.06 2 3 C1.34 3 0.68 3 0 3 C0 3.66 0 4.32 0 5 C-2.97 5 -5.94 5 -9 5 C-9 4.67 -9 4.34 -9 4 C-6.36 4 -3.72 4 -1 4 C-0.67 2.68 -0.34 1.36 0 0 Z " fill="#909CBC" transform="translate(323,389)"/>
<path d="M0 0 C0 0.33 0 0.66 0 1 C-0.66386719 1.10957031 -1.32773438 1.21914062 -2.01171875 1.33203125 C-6.9233205 2.2139685 -10.88838567 3.00973503 -15 6 C-15.99 6.66 -16.98 7.32 -18 8 C-18.33 7.01 -18.66 6.02 -19 5 C-18.34 5 -17.68 5 -17 5 C-17 4.34 -17 3.68 -17 3 C-16.01 3 -15.02 3 -14 3 C-14 2.34 -14 1.68 -14 1 C-9.32798795 -0.20568053 -4.78503708 -0.09382426 0 0 Z " fill="#7D8EAD" transform="translate(159,189)"/>
<path d="M0 0 C3.3 0 6.6 0 10 0 C10 3.3 10 6.6 10 10 C9.01 10 8.02 10 7 10 C6.75 4.375 6.75 4.375 9 1 C6.03 1 3.06 1 0 1 C0 0.67 0 0.34 0 0 Z " fill="#6E82A0" transform="translate(255,379)"/>
<path d="M0 0 C6.625 -0.125 6.625 -0.125 10 1 C10 1.99 10 2.98 10 4 C3.375 4.25 3.375 4.25 0 2 C0 1.34 0 0.68 0 0 Z " fill="#4D6692" transform="translate(290,379)"/>
<path d="M0 0 C0.66 0.99 1.32 1.98 2 3 C0.90536178 4.17561146 -0.20107186 5.3402489 -1.3125 6.5 C-1.92738281 7.1496875 -2.54226563 7.799375 -3.17578125 8.46875 C-5 10 -5 10 -8 10 C-7.75 8.125 -7.75 8.125 -7 6 C-5 4.875 -5 4.875 -3 4 C-2.67 3.34 -2.34 2.68 -2 2 C-1.34 2 -0.68 2 0 2 C0 1.34 0 0.68 0 0 Z " fill="#5D729A" transform="translate(331,288)"/>
<path d="M0 0 C1.52299523 2.93720508 2.80100302 5.9168649 4 9 C2.68 8.67 1.36 8.34 0 8 C0 7.34 0 6.68 0 6 C-0.66 6 -1.32 6 -2 6 C-3.625 4.5 -3.625 4.5 -5 3 C-4.67 2.34 -4.34 1.68 -4 1 C-1.9375 0.375 -1.9375 0.375 0 0 Z " fill="#7183AA" transform="translate(153,262)"/>
<path d="M0 0 C3.11956076 1.03985359 3.84927828 1.67722054 6 4 C7.0828125 4.99 7.0828125 4.99 8.1875 6 C10 8 10 8 10 11 C8 11 8 11 6.375 9.625 C5 8 5 8 5 6 C4.34 6 3.68 6 3 6 C1.375 4.6875 1.375 4.6875 0 3 C0 2.01 0 1.02 0 0 Z " fill="#7A8DAB" transform="translate(186,300)"/>
<path d="M0 0 C0.99 0.33 1.98 0.66 3 1 C3 1.66 3 2.32 3 3 C3.99 3.33 4.98 3.66 6 4 C6.33 5.65 6.66 7.3 7 9 C5.68 9.99 4.36 10.98 3 12 C3.33 10.35 3.66 8.7 4 7 C3.34 6.67 2.68 6.34 2 6 C2 4.68 2 3.36 2 2 C1.34 2 0.68 2 0 2 C0 1.34 0 0.68 0 0 Z " fill="#7085A7" transform="translate(214,202)"/>
<path d="M0 0 C0.66 0 1.32 0 2 0 C2 2.97 2 5.94 2 9 C1.01 9 0.02 9 -1 9 C-1 7.68 -1 6.36 -1 5 C-2.65 5 -4.3 5 -6 5 C-6 4.67 -6 4.34 -6 4 C-4.35 4 -2.7 4 -1 4 C-0.67 2.68 -0.34 1.36 0 0 Z " fill="#57719B" transform="translate(323,392)"/>
<path d="M0 0 C2.31 0.33 4.62 0.66 7 1 C6.67 2.98 6.34 4.96 6 7 C6.66 7.33 7.32 7.66 8 8 C5 8 5 8 2.875 6.25 C1.03354564 4.04025476 0.39987019 2.79909134 0 0 Z " fill="#62789F" transform="translate(175,289)"/>
<path d="M0 0 C0 1.98 0 3.96 0 6 C-0.99 6.33 -1.98 6.66 -3 7 C-3.33 7.66 -3.66 8.32 -4 9 C-4.66 7.35 -5.32 5.7 -6 4 C-1.125 0 -1.125 0 0 0 Z " fill="#426090" transform="translate(343,260)"/>
<path d="M0 0 C0.28875 0.639375 0.5775 1.27875 0.875 1.9375 C1.82823451 4.15206079 1.82823451 4.15206079 4 5 C1.75 6.125 1.75 6.125 -1 7 C-3.3125 6.125 -3.3125 6.125 -5 5 C-3.625 3.5 -3.625 3.5 -2 2 C-1.34 2 -0.68 2 0 2 C0 1.34 0 0.68 0 0 Z " fill="#6E81AB" transform="translate(230,391)"/>
<path d="M0 0 C0.66 0 1.32 0 2 0 C2 0.66 2 1.32 2 2 C3.32 2.66 4.64 3.32 6 4 C5.34 4 4.68 4 4 4 C3.67 4.99 3.34 5.98 3 7 C1.0625 6.6875 1.0625 6.6875 -1 6 C-1.33 5.01 -1.66 4.02 -2 3 C-1.34 2.01 -0.68 1.02 0 0 Z " fill="#3E6096" transform="translate(247,354)"/>
<path d="M0 0 C2.64 0.33 5.28 0.66 8 1 C7.67 1.99 7.34 2.98 7 4 C4.03 3.67 1.06 3.34 -2 3 C-1.34 2.01 -0.68 1.02 0 0 Z " fill="#405B90" transform="translate(282,409)"/>
<path d="M0 0 C1.875 0.25 1.875 0.25 4 1 C5.3125 2.9375 5.3125 2.9375 6 5 C5.67 5.66 5.34 6.32 5 7 C3.68 7 2.36 7 1 7 C0.31292445 4.50935112 0 2.62113708 0 0 Z " fill="#4A6698" transform="translate(135,405)"/>
<path d="M0 0 C1 2 1 2 0.75 4.0625 C0.5025 4.701875 0.255 5.34125 0 6 C-0.99 6.33 -1.98 6.66 -3 7 C-3.33 7.66 -3.66 8.32 -4 9 C-5.32 8.67 -6.64 8.34 -8 8 C-5.36 5.36 -2.72 2.72 0 0 Z " fill="#6D86AB" transform="translate(249,328)"/>
<path d="M0 0 C0.66 0.33 1.32 0.66 2 1 C1.505 1.350625 1.01 1.70125 0.5 2.0625 C-1.73063966 4.94374289 -1.19980621 7.47009026 -1 11 C-1.66 11 -2.32 11 -3 11 C-5 8 -5 8 -5 5 C-4.34 5 -3.68 5 -3 5 C-2.5359375 4.0409375 -2.5359375 4.0409375 -2.0625 3.0625 C-1 1 -1 1 0 0 Z " fill="#8D9FB6" transform="translate(149,252)"/>
<path d="M0 0 C2.97 0.495 2.97 0.495 6 1 C5.67 2.98 5.34 4.96 5 7 C3.68 7 2.36 7 1 7 C0.67 4.69 0.34 2.38 0 0 Z " fill="#5E79A1" transform="translate(172,407)"/>
<path d="M0 0 C1.5 1.25 1.5 1.25 3 3 C3 4.32 3 5.64 3 7 C1.35 7 -0.3 7 -2 7 C-2.33 5.35 -2.66 3.7 -3 2 C-2.34 2.66 -1.68 3.32 -1 4 C-0.67 2.68 -0.34 1.36 0 0 Z " fill="#4A6593" transform="translate(168,400)"/>
<path d="M0 0 C0 3.66842255 -0.79029126 5.10451959 -3 8 C-5.6875 8.8125 -5.6875 8.8125 -8 9 C-7.04270084 7.87411986 -6.08412105 6.7493285 -5.125 5.625 C-4.59132812 4.99851562 -4.05765625 4.37203125 -3.5078125 3.7265625 C-2.38567993 2.44163349 -1.20628025 1.20628025 0 0 Z " fill="#768EAD" transform="translate(240,337)"/>
<path d="M0 0 C0.66 0.33 1.32 0.66 2 1 C1.6875 2.9375 1.6875 2.9375 1 5 C0.01 5.33 -0.98 5.66 -2 6 C-2 6.66 -2 7.32 -2 8 C-2.66 8 -3.32 8 -4 8 C-4.33 8.99 -4.66 9.98 -5 11 C-6 9 -6 9 -5.3125 6.5 C-3.84432962 3.70348499 -2.90696099 3.06588569 0 2 C0 1.34 0 0.68 0 0 Z " fill="#7D8FAB" transform="translate(219,295)"/>
<path d="M0 0 C2.76491282 5.52982565 3.09858498 7.88773137 3 14 C2.01 14.495 2.01 14.495 1 15 C0.67 10.05 0.34 5.1 0 0 Z " fill="#7187A8" transform="translate(340,246)"/>
<path d="M0 0 C1.32 0.33 2.64 0.66 4 1 C1.69 3.64 -0.62 6.28 -3 9 C-3.33 7.68 -3.66 6.36 -4 5 C-3.01 4.67 -2.02 4.34 -1 4 C-0.26676204 1.98491642 -0.26676204 1.98491642 0 0 Z " fill="#7D91AD" transform="translate(131,208)"/>
<path d="M0 0 C0.99 0.33 1.98 0.66 3 1 C-2.75 6 -2.75 6 -5 6 C-5 5.34 -5 4.68 -5 4 C-2.6875 1.8125 -2.6875 1.8125 0 0 Z M-7 6 C-6.34 6.33 -5.68 6.66 -5 7 C-6.65 8.32 -8.3 9.64 -10 11 C-8.125 7.125 -8.125 7.125 -7 6 Z " fill="#C9C9CA" transform="translate(156,198)"/>
<path d="M0 0 C1.17539996 0.92652701 2.34010577 1.86663387 3.5 2.8125 C4.1496875 3.33457031 4.799375 3.85664063 5.46875 4.39453125 C7 6 7 6 7 9 C6.67 8.34 6.34 7.68 6 7 C5.34 6.855625 4.68 6.71125 4 6.5625 C3.34 6.376875 2.68 6.19125 2 6 C1.67 5.01 1.34 4.02 1 3 C0.34 3 -0.32 3 -1 3 C-0.67 2.01 -0.34 1.02 0 0 Z " fill="#677AA2" transform="translate(282,182)"/>
<path d="M0 0 C2.4375 0.375 2.4375 0.375 5 1 C5.33 1.66 5.66 2.32 6 3 C6.99 3.33 7.98 3.66 9 4 C8.67 5.32 8.34 6.64 8 8 C6.66372225 6.85760183 5.33104612 5.71098945 4 4.5625 C3.2575 3.92441406 2.515 3.28632813 1.75 2.62890625 C1.1725 2.09136719 0.595 1.55382812 0 1 C0 0.67 0 0.34 0 0 Z " fill="#596E96" transform="translate(234,174)"/>
<path d="M0 0 C1.4540625 0.0309375 1.4540625 0.0309375 2.9375 0.0625 C3.2675 1.7125 3.5975 3.3625 3.9375 5.0625 C0.9675 5.0625 -2.0025 5.0625 -5.0625 5.0625 C-3.7425 4.4025 -2.4225 3.7425 -1.0625 3.0625 C-2.0525 2.4025 -3.0425 1.7425 -4.0625 1.0625 C-3.0625 0.0625 -3.0625 0.0625 0 0 Z " fill="#889ABB" transform="translate(289.0625,377.9375)"/>
<path d="M0 0 C1.17539996 0.92652701 2.34010577 1.86663387 3.5 2.8125 C4.1496875 3.33457031 4.799375 3.85664063 5.46875 4.39453125 C7 6 7 6 7 9 C6.67 8.34 6.34 7.68 6 7 C4.68 7 3.36 7 2 7 C2 6.01 2 5.02 2 4 C1.34 4 0.68 4 0 4 C0 2.68 0 1.36 0 0 Z " fill="#677BA3" transform="translate(262,250)"/>
<path d="M0 0 C1.98 0.66 3.96 1.32 6 2 C6 2.66 6 3.32 6 4 C7.32 4.33 8.64 4.66 10 5 C9.67 5.99 9.34 6.98 9 8 C5.27885429 5.68462045 2.38770339 3.71420527 0 0 Z " fill="#7789AC" transform="translate(186,126)"/>
<path d="M0 0 C0.66 0 1.32 0 2 0 C2.66 1.65 3.32 3.3 4 5 C2.35 6.32 0.7 7.64 -1 9 C-1.33 7.68 -1.66 6.36 -2 5 C-1.34 5 -0.68 5 0 5 C0 3.35 0 1.7 0 0 Z " fill="#8499B7" transform="translate(218,118)"/>
<path d="M0 0 C0.33 0.66 0.66 1.32 1 2 C1.66 2 2.32 2 3 2 C3 1.34 3 0.68 3 0 C4.32 0 5.64 0 7 0 C7 1.32 7 2.64 7 4 C4.03 3.67 1.06 3.34 -2 3 C-1.34 2.01 -0.68 1.02 0 0 Z " fill="#6679A0" transform="translate(137,410)"/>
<path d="M0 0 C4.92127034 -0.16682272 8.50343896 -0.24828052 13 2 C9.81237635 4.12508244 7.73487777 4.5020163 4 5 C4.66 4.01 5.32 3.02 6 2 C3.03 1.505 3.03 1.505 0 1 C0 0.67 0 0.34 0 0 Z " fill="#95A3C1" transform="translate(178,409)"/>
<path d="M0 0 C2.31 0.33 4.62 0.66 7 1 C6.67 2.98 6.34 4.96 6 7 C5.67 6.01 5.34 5.02 5 4 C3.35 3.67 1.7 3.34 0 3 C0 2.01 0 1.02 0 0 Z " fill="#697F9D" transform="translate(303,379)"/>
<path d="M0 0 C0.66 0.33 1.32 0.66 2 1 C1.01 3.31 0.02 5.62 -1 8 C-2.32 8 -3.64 8 -5 8 C-4.45773019 4.20411134 -2.79872437 2.52788007 0 0 Z " fill="#697FA5" transform="translate(240,249)"/>
<path d="M0 0 C0.82810826 3.31243305 1.09278428 5.65976579 1 9 C-0.65 8.67 -2.3 8.34 -4 8 C-2.68 5.36 -1.36 2.72 0 0 Z " fill="#6177A3" transform="translate(118,179)"/>
<path d="M0 0 C1.14926266 0.95421808 2.29430541 1.91352045 3.4375 2.875 C4.07558594 3.40867188 4.71367187 3.94234375 5.37109375 4.4921875 C7 6 7 6 8 8 C5.03824877 7.38722388 3.61941217 6.74627478 1 5 C1 4.34 1 3.68 1 3 C0.34 2.67 -0.32 2.34 -1 2 C-0.67 1.34 -0.34 0.68 0 0 Z " fill="#6A7DA2" transform="translate(267,167)"/>
<path d="M0 0 C1.32 0 2.64 0 4 0 C4 0.66 4 1.32 4 2 C4.99 2.33 5.98 2.66 7 3 C5 3.66666667 3 4.33333333 1 5 C1 4.34 1 3.68 1 3 C-0.32 3.33 -1.64 3.66 -3 4 C-2.67 3.34 -2.34 2.68 -2 2 C-1.34 2 -0.68 2 0 2 C0 1.34 0 0.68 0 0 Z " fill="#7C91AE" transform="translate(201,104)"/>
<path d="M0 0 C0.99 0.33 1.98 0.66 3 1 C3.6875 3.0625 3.6875 3.0625 4 5 C0.25 6.125 0.25 6.125 -2 5 C-1.34 3.35 -0.68 1.7 0 0 Z " fill="#405E8F" transform="translate(241,337)"/>
<path d="M0 0 C0.66 0.66 1.32 1.32 2 2 C2.99 2 3.98 2 5 2 C4.67 3.32 4.34 4.64 4 6 C2.02 6 0.04 6 -2 6 C-1.34 4.02 -0.68 2.04 0 0 Z " fill="#627BA7" transform="translate(314,265)"/>
<path d="M0 0 C0.99 0.66 1.98 1.32 3 2 C-0.465 4.97 -0.465 4.97 -4 8 C-3.67 6.02 -3.34 4.04 -3 2 C-2.01 2 -1.02 2 0 2 C0 1.34 0 0.68 0 0 Z " fill="#8493B2" transform="translate(124,216)"/>
<path d="M0 0 C1.14926266 0.95421808 2.29430541 1.91352045 3.4375 2.875 C4.07558594 3.40867188 4.71367187 3.94234375 5.37109375 4.4921875 C7 6 7 6 8 8 C3.25 7.25 3.25 7.25 1 5 C0.375 2.375 0.375 2.375 0 0 Z " fill="#6C7FA2" transform="translate(259,159)"/>
<path d="M0 0 C0.66 0.33 1.32 0.66 2 1 C0.75 3.9375 0.75 3.9375 -1 7 C-3.1875 7.875 -3.1875 7.875 -5 8 C-4.45773019 4.20411134 -2.79872437 2.52788007 0 0 Z " fill="#7285AC" transform="translate(126,171)"/>
<path d="M0 0 C3.3 0 6.6 0 10 0 C10 0.33 10 0.66 10 1 C7.03 1 4.06 1 1 1 C1 1.99 1 2.98 1 4 C-0.32 4.33 -1.64 4.66 -3 5 C-3 4.01 -3 3.02 -3 2 C-2.01 2 -1.02 2 0 2 C0 1.34 0 0.68 0 0 Z " fill="#6D83AF" transform="translate(219,398)"/>
<path d="M0 0 C0.763125 0.20625 1.52625 0.4125 2.3125 0.625 C1.6525 1.945 0.9925 3.265 0.3125 4.625 C-1.6675 3.635 -3.6475 2.645 -5.6875 1.625 C-2.6875 -0.375 -2.6875 -0.375 0 0 Z " fill="#536D9B" transform="translate(231.6875,380.375)"/>
<path d="M0 0 C2.64 0.33 5.28 0.66 8 1 C8 1.66 8 2.32 8 3 C5.36 3.33 2.72 3.66 0 4 C0 2.68 0 1.36 0 0 Z " fill="#4A668D" transform="translate(175,379)"/>
<path d="M0 0 C1.98 0.66 3.96 1.32 6 2 C5.67 2.99 5.34 3.98 5 5 C4.01 5.33 3.02 5.66 2 6 C1.01 4.35 0.02 2.7 -1 1 C-0.67 0.67 -0.34 0.34 0 0 Z " fill="#C6C7CA" transform="translate(258,299)"/>
<path d="M0 0 C4.31392226 0.4793247 6.16569547 1.7457985 9 5 C8.01 5.495 8.01 5.495 7 6 C5.83054208 5.19152271 4.66449539 4.37810888 3.5 3.5625 C2.8503125 3.11003906 2.200625 2.65757812 1.53125 2.19140625 C1.0259375 1.79824219 0.520625 1.40507812 0 1 C0 0.67 0 0.34 0 0 Z " fill="#7E92AD" transform="translate(267,295)"/>
<path d="M0 0 C0.66 0.33 1.32 0.66 2 1 C2 1.99 2 2.98 2 4 C1.34 4 0.68 4 0 4 C-0.12375 4.78375 -0.2475 5.5675 -0.375 6.375 C-1 9 -1 9 -3 11 C-2.25 3.375 -2.25 3.375 0 0 Z " fill="#C7C7C7" transform="translate(158,287)"/>
<path d="M0 0 C-1.29299694 2.88437779 -2.65941363 4.87219421 -5 7 C-5 6.34 -5 5.68 -5 5 C-5.99 4.67 -6.98 4.34 -8 4 C-7.01 3.67 -6.02 3.34 -5 3 C-5 2.34 -5 1.68 -5 1 C-2 0 -2 0 0 0 Z " fill="#647EA9" transform="translate(303,215)"/>
<path d="M0 0 C2.31 1.98 4.62 3.96 7 6 C3 7 3 7 1 6 C0.375 2.9375 0.375 2.9375 0 0 Z " fill="#8895B3" transform="translate(194,181)"/>
<path d="M0 0 C0.66 0.33 1.32 0.66 2 1 C1.67 1.66 1.34 2.32 1 3 C1 4.32 1 5.64 1 7 C-0.32 7 -1.64 7 -3 7 C-2.625 4.0625 -2.625 4.0625 -2 1 C-1.34 0.67 -0.68 0.34 0 0 Z " fill="#415F8E" transform="translate(237,167)"/>
<path d="M0 0 C1.65 0.33 3.3 0.66 5 1 C3.68 2.65 2.36 4.3 1 6 C0.01 5.67 -0.98 5.34 -2 5 C-1.34 4.67 -0.68 4.34 0 4 C0 2.68 0 1.36 0 0 Z " fill="#6E86AA" transform="translate(202,135)"/>
<path d="M0 0 C2.00720923 0.28674418 4.0085944 0.61866701 6 1 C5.67 1.99 5.34 2.98 5 4 C3.35 4 1.7 4 0 4 C-0.33 3.01 -0.66 2.02 -1 1 C-0.67 0.67 -0.34 0.34 0 0 Z " fill="#8190B3" transform="translate(315,410)"/>
<path d="M0 0 C-0.33 1.32 -0.66 2.64 -1 4 C-1.99 4 -2.98 4 -4 4 C-3.67 3.34 -3.34 2.68 -3 2 C-4.32 1.67 -5.64 1.34 -7 1 C-3.375 -1.125 -3.375 -1.125 0 0 Z " fill="#90A0BB" transform="translate(301,407)"/>
<path d="M0 0 C1.32 0.33 2.64 0.66 4 1 C4.33 2.32 4.66 3.64 5 5 C3.68 5.33 2.36 5.66 1 6 C0.67 4.02 0.34 2.04 0 0 Z " fill="#4D648E" transform="translate(231,389)"/>
<path d="M0 0 C0.66 0 1.32 0 2 0 C2 0.66 2 1.32 2 2 C1.34 2 0.68 2 0 2 C0 2.66 0 3.32 0 4 C-2.31 4.33 -4.62 4.66 -7 5 C-7 4.01 -7 3.02 -7 2 C-4.03 2.495 -4.03 2.495 -1 3 C-0.67 2.01 -0.34 1.02 0 0 Z " fill="#687C9C" transform="translate(294,223)"/>
<path d="M0 0 C1.24546405 2.49092811 0.7767578 3.41080733 0 6 C-1.875 6.625 -1.875 6.625 -4 7 C-4.66 6.34 -5.32 5.68 -6 5 C-5.34 5 -4.68 5 -4 5 C-4 4.34 -4 3.68 -4 3 C-2 1.375 -2 1.375 0 0 Z " fill="#768AAA" transform="translate(241,199)"/>
<path d="M0 0 C1.16959987 0.97566112 2.33561177 1.955625 3.5 2.9375 C4.1496875 3.48277344 4.799375 4.02804688 5.46875 4.58984375 C5.9740625 5.05519531 6.479375 5.52054688 7 6 C7 6.33 7 6.66 7 7 C5.35 7 3.7 7 2 7 C1.34 4.69 0.68 2.38 0 0 Z " fill="#6B80A5" transform="translate(290,190)"/>
<path d="M0 0 C2.97 0.495 2.97 0.495 6 1 C6.33 2.32 6.66 3.64 7 5 C2.25 4.25 2.25 4.25 0 2 C0 1.34 0 0.68 0 0 Z " fill="#5C7BA4" transform="translate(163,162)"/>
<path d="M0 0 C0.66 0 1.32 0 2 0 C2.33 1.98 2.66 3.96 3 6 C1.35 6 -0.3 6 -2 6 C-2.33 5.01 -2.66 4.02 -3 3 C-2.01 2.34 -1.02 1.68 0 1 C0 0.67 0 0.34 0 0 Z " fill="#5A77A1" transform="translate(213,113)"/>
<path d="M0 0 C5.75 1.625 5.75 1.625 8 5 C3.48279689 5.36625971 3.48279689 5.36625971 1.1875 3.625 C0 2 0 2 0 0 Z " fill="#8091AF" transform="translate(196,311)"/>
<path d="M0 0 C0 0.66 0 1.32 0 2 C-0.66 2 -1.32 2 -2 2 C-2 2.66 -2 3.32 -2 4 C-3.98 3.34 -5.96 2.68 -8 2 C-4.91190305 0.23537317 -3.76687864 0 0 0 Z " fill="#6E83A9" transform="translate(284,300)"/>
<path d="M0 0 C0.99 0.33 1.98 0.66 3 1 C3 2.32 3 3.64 3 5 C1.35 4.67 -0.3 4.34 -2 4 C-1.34 2.68 -0.68 1.36 0 0 Z " fill="#556C9B" transform="translate(204,235)"/>
<path d="M0 0 C2.31 0.33 4.62 0.66 7 1 C6.01 2.485 6.01 2.485 5 4 C3.35 3.67 1.7 3.34 0 3 C0 2.01 0 1.02 0 0 Z " fill="#7A8CA8" transform="translate(113,223)"/>
<path d="M0 0 C2.64 0.33 5.28 0.66 8 1 C7.67 1.66 7.34 2.32 7 3 C5.02 3 3.04 3 1 3 C0.67 2.01 0.34 1.02 0 0 Z " fill="#8A92AE" transform="translate(237,411)"/>
<path d="M0 0 C0 1.32 0 2.64 0 4 C-1.65 4 -3.3 4 -5 4 C-5 3.01 -5 2.02 -5 1 C-3 0 -3 0 0 0 Z " fill="#7E8BAC" transform="translate(214,410)"/>
<path d="M0 0 C1.65 0.33 3.3 0.66 5 1 C4.67 1.99 4.34 2.98 4 4 C2.35 3.67 0.7 3.34 -1 3 C-0.67 2.01 -0.34 1.02 0 0 Z " fill="#405C95" transform="translate(131,399)"/>
<path d="M0 0 C1.32 0 2.64 0 4 0 C4 0.66 4 1.32 4 2 C5.32 2.33 6.64 2.66 8 3 C6.02 3.99 6.02 3.99 4 5 C2.68 3.35 1.36 1.7 0 0 Z " fill="#687BAA" transform="translate(242,358)"/>
<path d="M0 0 C2.475 0.495 2.475 0.495 5 1 C5 1.99 5 2.98 5 4 C5.99 4.33 6.98 4.66 8 5 C7.34 5.66 6.68 6.32 6 7 C4.02 4.69 2.04 2.38 0 0 Z " fill="#7F99B6" transform="translate(235,351)"/>
<path d="M0 0 C2.64 1.98 5.28 3.96 8 6 C7.34 6.66 6.68 7.32 6 8 C5.67 7.34 5.34 6.68 5 6 C4.34 5.71125 3.68 5.4225 3 5.125 C2.34 4.75375 1.68 4.3825 1 4 C0.67 2.68 0.34 1.36 0 0 Z " fill="#899AB5" transform="translate(171,247)"/>
<path d="M0 0 C-0.3125 1.875 -0.3125 1.875 -1 4 C-1.99 4.66 -2.98 5.32 -4 6 C-4.33 4.35 -4.66 2.7 -5 1 C-3 0 -3 0 0 0 Z " fill="#798CAD" transform="translate(245,234)"/>
<path d="M0 0 C0 3.10551666 -0.5393715 4.35261084 -2 7 C-2 6.34 -2 5.68 -2 5 C-2.66 5 -3.32 5 -4 5 C-4 3.68 -4 2.36 -4 1 C-2.68 0.67 -1.36 0.34 0 0 Z " fill="#7386AB" transform="translate(140,197)"/>
<path d="M0 0 C0.66 0 1.32 0 2 0 C2 0.66 2 1.32 2 2 C1.34 2 0.68 2 0 2 C-0.33 3.98 -0.66 5.96 -1 8 C-1.66 8 -2.32 8 -3 8 C-3 6.35 -3 4.7 -3 3 C-2.34 3 -1.68 3 -1 3 C-0.67 2.01 -0.34 1.02 0 0 Z " fill="#8B9AB4" transform="translate(235,166)"/>
<path d="M0 0 C0.33 0.66 0.66 1.32 1 2 C-0.65 3.65 -2.3 5.3 -4 7 C-4.66 6.34 -5.32 5.68 -6 5 C-4.02 3.35 -2.04 1.7 0 0 Z " fill="#C8C7CA" transform="translate(226,128)"/>
<path d="M0 0 C1.32 0 2.64 0 4 0 C3.67 1.32 3.34 2.64 3 4 C1.68 4 0.36 4 -1 4 C-0.67 2.68 -0.34 1.36 0 0 Z " fill="#7E8FAF" transform="translate(146,410)"/>
<path d="M0 0 C0.99 0.33 1.98 0.66 3 1 C3 2.32 3 3.64 3 5 C1.68 5 0.36 5 -1 5 C-0.67 3.35 -0.34 1.7 0 0 Z " fill="#4C6798" transform="translate(272,389)"/>
<path d="M0 0 C0.66 0 1.32 0 2 0 C2.33 2.31 2.66 4.62 3 7 C2.01 7 1.02 7 0 7 C0 4.69 0 2.38 0 0 Z " fill="#606C96" transform="translate(298,384)"/>
<path d="M0 0 C0.66 0.33 1.32 0.66 2 1 C1.67 3.97 1.34 6.94 1 10 C0.67 10 0.34 10 0 10 C-0.66 7.36 -1.32 4.72 -2 2 C-1.34 2 -0.68 2 0 2 C0 1.34 0 0.68 0 0 Z " fill="#7B8EB0" transform="translate(277,381)"/>
<path d="M0 0 C2.31 0.33 4.62 0.66 7 1 C7 2.65 7 4.3 7 6 C6.34 6 5.68 6 5 6 C4.731875 5.38125 4.46375 4.7625 4.1875 4.125 C3.04443152 1.7004767 3.04443152 1.7004767 0 0 Z " fill="#7B8FB1" transform="translate(225,383)"/>
<path d="M0 0 C3.96 0 7.92 0 12 0 C11.34 1.32 10.68 2.64 10 4 C9.67 3.34 9.34 2.68 9 2 C6.87423218 1.53348793 6.87423218 1.53348793 4.4375 1.375 C3.61121094 1.30023438 2.78492188 1.22546875 1.93359375 1.1484375 C1.29550781 1.09945313 0.65742188 1.05046875 0 1 C0 0.67 0 0.34 0 0 Z " fill="#456093" transform="translate(251,381)"/>
<path d="M0 0 C2.31 1.98 4.62 3.96 7 6 C6.34 6.66 5.68 7.32 5 8 C4.67 7.34 4.34 6.68 4 6 C3.01 5.67 2.02 5.34 1 5 C0.67 3.35 0.34 1.7 0 0 Z " fill="#8390B4" transform="translate(255,331)"/>
<path d="M0 0 C1.65 0.33 3.3 0.66 5 1 C5 1.99 5 2.98 5 4 C4.34 3.67 3.68 3.34 3 3 C3 2.34 3 1.68 3 1 C2.34 1 1.68 1 1 1 C1 1.99 1 2.98 1 4 C0.01 4 -0.98 4 -2 4 C-2 3.34 -2 2.68 -2 2 C-1.34 2 -0.68 2 0 2 C0 1.34 0 0.68 0 0 Z " fill="#879BB5" transform="translate(249,240)"/>
<path d="M0 0 C0.99 0.66 1.98 1.32 3 2 C1.75 3.5625 1.75 3.5625 0 5 C-2.1875 4.6875 -2.1875 4.6875 -4 4 C-2.68 2.68 -1.36 1.36 0 0 Z " fill="#627AA2" transform="translate(188,117)"/>
<path d="" fill="#FFFFFF" transform="translate(0,0)"/>
<path d="" fill="#FFFFFF" transform="translate(0,0)"/>
<path d="" fill="#FFFFFF" transform="translate(0,0)"/>
<path d="" fill="#FFFFFF" transform="translate(0,0)"/>
<path d="" fill="#FFFFFF" transform="translate(0,0)"/>
<path d="" fill="#FFFFFF" transform="translate(0,0)"/>
<path d="" fill="#FFFFFF" transform="translate(0,0)"/>
<path d="" fill="#FFFFFF" transform="translate(0,0)"/>
<path d="" fill="#FFFFFF" transform="translate(0,0)"/>
<path d="" fill="#FFFFFF" transform="translate(0,0)"/>
<path d="" fill="#FFFFFF" transform="translate(0,0)"/>
<path d="" fill="#FFFFFF" transform="translate(0,0)"/>
<path d="" fill="#FFFFFF" transform="translate(0,0)"/>
<path d="" fill="#FFFFFF" transform="translate(0,0)"/>
<path d="" fill="#FFFFFF" transform="translate(0,0)"/>
<path d="" fill="#FFFFFF" transform="translate(0,0)"/>
<path d="" fill="#FFFFFF" transform="translate(0,0)"/>
<path d="" fill="#FFFFFF" transform="translate(0,0)"/>
<path d="" fill="#FFFFFF" transform="translate(0,0)"/>
<path d="" fill="#FFFFFF" transform="translate(0,0)"/>
<path d="" fill="#FFFFFF" transform="translate(0,0)"/>
<path d="" fill="#FFFFFF" transform="translate(0,0)"/>
<path d="" fill="#FFFFFF" transform="translate(0,0)"/>
<path d="" fill="#FFFFFF" transform="translate(0,0)"/>
<path d="" fill="#FFFFFF" transform="translate(0,0)"/>
<path d="" fill="#FFFFFF" transform="translate(0,0)"/>
<path d="" fill="#FFFFFF" transform="translate(0,0)"/>
<path d="" fill="#FFFFFF" transform="translate(0,0)"/>
<path d="" fill="#FFFFFF" transform="translate(0,0)"/>
<path d="" fill="#FFFFFF" transform="translate(0,0)"/>
<path d="" fill="#FFFFFF" transform="translate(0,0)"/>
<path d="" fill="#FFFFFF" transform="translate(0,0)"/>
<path d="" fill="#FFFFFF" transform="translate(0,0)"/>
<path d="" fill="#FFFFFF" transform="translate(0,0)"/>
<path d="" fill="#FFFFFF" transform="translate(0,0)"/>
<path d="" fill="#FFFFFF" transform="translate(0,0)"/>
<path d="" fill="#FFFFFF" transform="translate(0,0)"/>
<path d="" fill="#FFFFFF" transform="translate(0,0)"/>
<path d="" fill="#FFFFFF" transform="translate(0,0)"/>
<path d="" fill="#FFFFFF" transform="translate(0,0)"/>
<path d="" fill="#FFFFFF" transform="translate(0,0)"/>
<path d="" fill="#FFFFFF" transform="translate(0,0)"/>
<path d="" fill="#FFFFFF" transform="translate(0,0)"/>
<path d="" fill="#FFFFFF" transform="translate(0,0)"/>
<path d="" fill="#FFFFFF" transform="translate(0,0)"/>
<path d="" fill="#FFFFFF" transform="translate(0,0)"/>
<path d="" fill="#FFFFFF" transform="translate(0,0)"/>
<path d="" fill="#FFFFFF" transform="translate(0,0)"/>
<path d="" fill="#FFFFFF" transform="translate(0,0)"/>
<path d="" fill="#FFFFFF" transform="translate(0,0)"/>
<path d="" fill="#FFFFFF" transform="translate(0,0)"/>
<path d="" fill="#FFFFFF" transform="translate(0,0)"/>
<path d="" fill="#FFFFFF" transform="translate(0,0)"/>
<path d="" fill="#FFFFFF" transform="translate(0,0)"/>
<path d="" fill="#FFFFFF" transform="translate(0,0)"/>
<path d="" fill="#FFFFFF" transform="translate(0,0)"/>
<path d="" fill="#FFFFFF" transform="translate(0,0)"/>
<path d="" fill="#FFFFFF" transform="translate(0,0)"/>
<path d="" fill="#FFFFFF" transform="translate(0,0)"/>
<path d="" fill="#FFFFFF" transform="translate(0,0)"/>
<path d="" fill="#FFFFFF" transform="translate(0,0)"/>
<path d="" fill="#FFFFFF" transform="translate(0,0)"/>
<path d="" fill="#FFFFFF" transform="translate(0,0)"/>
<path d="" fill="#FFFFFF" transform="translate(0,0)"/>
<path d="" fill="#FFFFFF" transform="translate(0,0)"/>
<path d="" fill="#FFFFFF" transform="translate(0,0)"/>
<path d="" fill="#FFFFFF" transform="translate(0,0)"/>
</svg>
