<?xml version="1.0" encoding="UTF-8"?>
<svg version="1.1" xmlns="http://www.w3.org/2000/svg" width="225" height="225">
<path d="M0 0 C74.25 0 148.5 0 225 0 C225 74.25 225 148.5 225 225 C150.75 225 76.5 225 0 225 C0 150.75 0 76.5 0 0 Z " fill="#F9F9F8" transform="translate(0,0)"/>
<path d="M0 0 C74.25 0 148.5 0 225 0 C225 74.25 225 148.5 225 225 C150.75 225 76.5 225 0 225 C0 150.75 0 76.5 0 0 Z M41 30 C40.69602295 30.6285791 40.3920459 31.2571582 40.07885742 31.90478516 C38.96669792 34.06467491 37.80878976 35.44926439 36.1015625 37.1640625 C35.53953125 37.72867188 34.9775 38.29328125 34.3984375 38.875 C33.81320313 39.4525 33.22796875 40.03 32.625 40.625 C31.75875 41.50285156 31.75875 41.50285156 30.875 42.3984375 C30.31039063 42.96046875 29.74578125 43.5225 29.1640625 44.1015625 C28.39763428 44.86460693 28.39763428 44.86460693 27.61572266 45.64306641 C26 47 26 47 23.96386719 47.95581055 C21.61847379 49.20285773 20.8052607 50.36074562 19.4140625 52.60546875 C18.9610376 53.33378906 18.5080127 54.06210937 18.04125977 54.8125 C17.57389404 55.59625 17.10652832 56.38 16.625 57.1875 C15.89591431 58.40373047 15.89591431 58.40373047 15.15209961 59.64453125 C10.92396467 66.85843757 7.56336908 74.01316835 5 82 C4.68893311 82.94770264 4.68893311 82.94770264 4.37158203 83.91455078 C-1.82678856 103.62683924 -1.59155445 127.44145318 5 147 C5.36222656 148.11503906 5.72445313 149.23007813 6.09765625 150.37890625 C10.31021482 162.24546953 16.14729081 173.45539242 24.3359375 183.046875 C26 185 26 185 28 188 C28.66 188 29.32 188 30 188 C30.2475 188.61875 30.495 189.2375 30.75 189.875 C32.20628639 192.35068687 33.37812506 192.95125002 36 194 C36 194.66 36 195.32 36 196 C61.68379282 217.63996161 90.73803085 225.17034235 124 223 C147.31743868 220.20896768 168.2008542 209.10611173 185 193 C185.76054687 192.30261719 186.52109375 191.60523438 187.3046875 190.88671875 C193.89275223 184.65199313 199.91982844 177.16034313 204 169 C204.66 169.99 205.32 170.98 206 172 C208.95769177 172.50010524 208.95769177 172.50010524 212 172 C213.87890434 170.62493901 213.87890434 170.62493901 215 169 C214.67 168.34 214.34 167.68 214 167 C211.525 167.99 211.525 167.99 209 169 C209 168.01 209 167.02 209 166 C209.99 166 210.98 166 212 166 C210.60240095 162.45481116 210.60240095 162.45481116 209 159 C209.85563863 156.58372473 210.77420865 154.24211507 211.75 151.875 C221.94461298 125.55120031 220.40066837 96.57502053 209.28857422 70.8137207 C205.94221584 63.47165291 201.99688904 56.35496469 197 50 C196.34 50 195.68 50 195 50 C194.896875 49.360625 194.79375 48.72125 194.6875 48.0625 C194.460625 47.381875 194.23375 46.70125 194 46 C193.01 45.67 192.02 45.34 191 45 C191 44.01 191 43.02 191 42 C190.34 42 189.68 42 189 42 C188.731875 41.401875 188.46375 40.80375 188.1875 40.1875 C187.00082594 38.00152146 185.90400887 36.58667406 184 35 C183.34 35 182.68 35 182 35 C182 34.34 182 33.68 182 33 C181.01 33 180.02 33 179 33 C178.79890625 32.42894531 178.5978125 31.85789062 178.390625 31.26953125 C176.47336101 28.14051333 173.80593879 26.57277218 170.75 24.6875 C169.81281128 24.10210449 169.81281128 24.10210449 168.85668945 23.50488281 C131.98532198 0.84469209 74.16334107 -3.24248985 41 30 Z " fill="#FEFEFE" transform="translate(0,0)"/>
<path d="M0 0 C7.1706587 2.00309634 12.27022934 6.47200803 18 11 C18.65355469 11.4846875 19.30710938 11.969375 19.98046875 12.46875 C37.0444461 25.76325017 45.35361517 47.72218964 48.703125 68.28125 C49.02263097 71.207252 49.05190177 74.05889972 49 77 C46.03 77 43.06 77 40 77 C39.90203125 75.99582031 39.8040625 74.99164063 39.703125 73.95703125 C38.50027198 62.61425273 36.32172348 52.21892201 31 42 C21.34211462 48.55850669 12.63105711 56.7087577 7 67 C7.7425 67.8353125 7.7425 67.8353125 8.5 68.6875 C10.24754367 71.38162983 10.26218749 72.85375007 10 76 C9.01 76.33 8.02 76.66 7 77 C6.67 78.65 6.34 80.3 6 82 C5.01 82.33 4.02 82.66 3 83 C2.26676204 85.01508358 2.26676204 85.01508358 2 87 C0.68 87.33 -0.64 87.66 -2 88 C-2 89.32 -2 90.64 -2 92 C-3.1446875 92.309375 -3.1446875 92.309375 -4.3125 92.625 C-7.91373041 94.46748998 -8.67009547 96.23193718 -10 100 C-9.79564192 102.78647557 -9.79564192 102.78647557 -9 105 C-7.845 105.20625 -6.69 105.4125 -5.5 105.625 C6.75971121 108.35793405 18.54612112 113.95313462 30 119 C30.41958984 117.69482422 30.41958984 117.69482422 30.84765625 116.36328125 C31.92000274 113.23348351 33.1551385 110.23560536 34.4375 107.1875 C37.5101126 99.33324768 38.775314 91.3139253 40 83 C42.97 83 45.94 83 49 83 C48.67641414 102.09156587 41.59274921 120.56697429 29 135 C28.31035156 135.82113281 27.62070313 136.64226562 26.91015625 137.48828125 C16.21470134 149.87546013 1.86481616 160.26237317 -14 165 C-14.99 165 -15.98 165 -17 165 C-17.66 162.36 -18.32 159.72 -19 157 C-17.97261719 156.57589844 -16.94523437 156.15179688 -15.88671875 155.71484375 C3.18757636 148.1598071 3.18757636 148.1598071 17 134 C16.36578125 133.76410156 15.7315625 133.52820313 15.078125 133.28515625 C12.54561813 132.22780249 10.1253578 131.09415598 7.671875 129.87109375 C6.87136719 129.47599609 6.07085937 129.08089844 5.24609375 128.67382812 C3.59299807 127.8550413 1.94444469 127.02701368 0.30078125 126.18945312 C-5.24734163 123.47753066 -9.82714009 122.35326608 -16 122 C-16.391875 122.825 -16.78375 123.65 -17.1875 124.5 C-19 127 -19 127 -21.25 127.4375 C-24.60274214 126.9041092 -27.76307947 126.01550448 -31 125 C-31 124.34 -31 123.68 -31 123 C-31.78375 123.04125 -32.5675 123.0825 -33.375 123.125 C-36 123 -36 123 -38 121 C-39.2684375 120.5359375 -39.2684375 120.5359375 -40.5625 120.0625 C-41.366875 119.711875 -42.17125 119.36125 -43 119 C-43.33 118.01 -43.66 117.02 -44 116 C-48.67533173 116.44955113 -51.38056955 117.02689641 -55 120 C-55.99 120 -56.98 120 -58 120 C-58.09796875 120.99515625 -58.1959375 121.9903125 -58.296875 123.015625 C-59.50186748 134.50479696 -61.59404834 145.70604244 -64 157 C-55.0129799 158.84781799 -46.40721544 159.24926284 -37.25 159.125 C-35.32800781 159.11146484 -35.32800781 159.11146484 -33.3671875 159.09765625 C-30.24458779 159.07435327 -27.12239975 159.04164054 -24 159 C-23.67 161.64 -23.34 164.28 -23 167 C-42.82938386 172.84543645 -67.33709593 166.9815808 -84.86328125 157.44140625 C-96.29354135 150.5435503 -106.2083132 141.8518659 -114 131 C-111.6875 128.5 -111.6875 128.5 -109 126 C-108.01 126 -107.02 126 -106 126 C-104.1953125 128.0546875 -104.1953125 128.0546875 -102.125 130.875 C-96.74706985 137.71480573 -89.85498868 144.07250566 -82 148 C-81.81824219 147.20078125 -81.63648438 146.4015625 -81.44921875 145.578125 C-80.15189728 139.90982812 -78.82222384 134.25705337 -77.375 128.625 C-76.30911048 124.41724764 -75.4899075 120.31118598 -75 116 C-76.32 115.34 -77.64 114.68 -79 114 C-79.02708567 112.39592672 -79.04643483 110.7917215 -79.0625 109.1875 C-79.07410156 108.29417969 -79.08570313 107.40085937 -79.09765625 106.48046875 C-79 104 -79 104 -78 101 C-77.95635078 99.29222439 -77.96016632 97.58286886 -78 95.875 C-78.03767103 94.25043671 -78.04657584 92.62433238 -78 91 C-77.67 90.67 -77.34 90.34 -77 90 C-76.92728259 87.64686445 -76.91629132 85.29166332 -76.9375 82.9375 C-76.94652344 81.64714844 -76.95554688 80.35679688 -76.96484375 79.02734375 C-76.97644531 78.02832031 -76.98804688 77.02929688 -77 76 C-82.11431334 75.67355447 -85.74508294 76.46420762 -90.54150391 78.19384766 C-94.99143106 79.65299954 -99.58256551 80.38187157 -104.1875 81.1875 C-105.14591797 81.36474609 -106.10433594 81.54199219 -107.09179688 81.72460938 C-111.78198725 82.56411132 -116.21340106 83.23329642 -121 83 C-120.17706398 92.87523228 -118.15887385 101.27820071 -114.4375 110.44140625 C-113.16195146 113.59908213 -112.03897461 116.75819942 -111 120 C-113.31 121.32 -115.62 122.64 -118 124 C-129.80210023 102.18600575 -133.91534341 78.16455848 -127 54 C-123.78866628 43.92063138 -119.18066654 34.60281965 -113 26 C-112.34 25.67 -111.68 25.34 -111 25 C-109.02 26.32 -107.04 27.64 -105 29 C-106.27208828 31.58328491 -107.6042611 34.11200931 -109.0234375 36.6171875 C-114.00975161 45.59001373 -117.71724362 53.92713795 -120 64 C-116.01895453 63.57863693 -112.0406896 63.13496285 -108.0625 62.6875 C-106.94552734 62.56955078 -105.82855469 62.45160156 -104.67773438 62.33007812 C-98.09491865 61.57720477 -92.18128262 60.38192456 -86 58 C-85.01 57.67 -84.02 57.34 -83 57 C-83.04125 55.88625 -83.0825 54.7725 -83.125 53.625 C-83 50 -83 50 -81 48 C-74.02643934 45.65504444 -66.16872104 45.08457907 -58.8515625 44.96484375 C-56.77637729 44.93626511 -56.77637729 44.93626511 -54 44 C-52.48593375 41.01796237 -52.48593375 41.01796237 -51.79296875 38.8515625 C-50.35858257 35.50230609 -47.97757137 33.94687359 -45 32 C-41.6875 31.25 -41.6875 31.25 -38 31 C-37.21625 30.88785156 -36.4325 30.77570313 -35.625 30.66015625 C-34.820625 30.54542969 -34.01625 30.43070313 -33.1875 30.3125 C-32.43855469 30.20550781 -31.68960938 30.09851563 -30.91796875 29.98828125 C-29 30 -29 30 -27 32 C-27 33.32 -27 34.64 -27 36 C-25.515 36.495 -25.515 36.495 -24 37 C-24 38.65 -24 40.3 -24 42 C-23.360625 42.2475 -22.72125 42.495 -22.0625 42.75 C-20 44 -20 44 -19.375 46.0625 C-19.25125 46.701875 -19.1275 47.34125 -19 48 C-18.34 48.33 -17.68 48.66 -17 49 C-17 50.32 -17 51.64 -17 53 C-13.46588679 55.12046792 -10.05606165 55.53199289 -6 56 C-5.7525 55.28070313 -5.505 54.56140625 -5.25 53.8203125 C-1.4802078 45.31471886 6.54904903 38.18602493 12.8359375 31.41015625 C14.69220978 29.34279164 16.3791142 27.25355413 18 25 C16.45739541 20.7380604 13.25524547 18.5527111 9.75 15.9375 C9.18925781 15.50373047 8.62851563 15.06996094 8.05078125 14.62304688 C4.5379362 11.95799006 1.02150605 9.85842325 -3 8 C-1.125 2.25 -1.125 2.25 0 0 Z " fill="#EED446" transform="translate(150,36)"/>
<path d="M0 0 C3.465 1.98 3.465 1.98 7 4 C5.72791172 6.58328491 4.3957389 9.11200931 2.9765625 11.6171875 C-2.00975161 20.59001373 -5.71724362 28.92713795 -8 39 C-4.01895453 38.57863693 -0.0406896 38.13496285 3.9375 37.6875 C5.05447266 37.56955078 6.17144531 37.45160156 7.32226562 37.33007812 C13.90508135 36.57720477 19.81871738 35.38192456 26 33 C26.99 32.67 27.98 32.34 29 32 C28.95875 30.88625 28.9175 29.7725 28.875 28.625 C29 25 29 25 31 23 C37.97356066 20.65504444 45.83127896 20.08457907 53.1484375 19.96484375 C55.22362271 19.93626511 55.22362271 19.93626511 58 19 C59.51406625 16.01796237 59.51406625 16.01796237 60.20703125 13.8515625 C61.64141743 10.50230609 64.02242863 8.94687359 67 7 C70.3125 6.25 70.3125 6.25 74 6 C74.78375 5.88785156 75.5675 5.77570313 76.375 5.66015625 C77.179375 5.54542969 77.98375 5.43070312 78.8125 5.3125 C79.56144531 5.20550781 80.31039062 5.09851563 81.08203125 4.98828125 C83 5 83 5 85 7 C85 8.32 85 9.64 85 11 C85.99 11.33 86.98 11.66 88 12 C88 13.65 88 15.3 88 17 C88.61875 17.226875 89.2375 17.45375 89.875 17.6875 C92.69339387 19.42827269 93.11944786 20.84468818 94 24 C94.02927806 25.66640949 94.03349407 27.33366992 94 29 C90.0115079 31.02371766 86.00835382 33.01596557 82 35 C81.30390625 35.36351562 80.6078125 35.72703125 79.890625 36.1015625 C75.57958058 38.21753385 72.62164286 38.11261773 68 37 C67.154375 36.608125 66.30875 36.21625 65.4375 35.8125 C62.08708169 34.6956939 60.17961863 35.66899685 57 37 C57.0825 38.216875 57.165 39.43375 57.25 40.6875 C57.26207057 44.08536589 57.0202559 44.96759056 55.125 48 C53 50 53 50 51 50 C51.495 57.425 51.495 57.425 52 65 C46.72 64.67 41.44 64.34 36 64 C35.67 59.71 35.34 55.42 35 51 C30.88183031 50.7371381 27.82045487 50.92852247 23.9453125 52.375 C18.65389077 54.20745896 13.31916388 55.22411496 7.8125 56.1875 C6.85408203 56.36474609 5.89566406 56.54199219 4.90820312 56.72460938 C0.21801275 57.56411132 -4.21340106 58.23329642 -9 58 C-8.17706398 67.87523228 -6.15887385 76.27820071 -2.4375 85.44140625 C-1.16195146 88.59908213 -0.03897461 91.75819942 1 95 C-1.31 96.32 -3.62 97.64 -6 99 C-17.80210023 77.18600575 -21.91534341 53.16455848 -15 29 C-11.89370081 19.25030181 -7.35187085 7.35187085 0 0 Z " fill="#183087" transform="translate(38,61)"/>
<path d="M0 0 C0.33 0 0.66 0 1 0 C1.14695313 1.16273437 1.29390625 2.32546875 1.4453125 3.5234375 C4.34776177 24.87556429 11.01408925 45.65493498 25.46875 62.1171875 C27 64 27 64 28 67 C28.66 67 29.32 67 30 67 C31.35386936 68.65002828 32.68678142 70.3174387 34 72 C34.99 72.495 34.99 72.495 36 73 C36 73.66 36 74.32 36 75 C36.53238281 75.23460937 37.06476562 75.46921875 37.61328125 75.7109375 C40.08161557 77.04408042 42.23556784 78.63012565 44.46508789 80.32568359 C60.50449587 92.42514911 78.25045485 98.61847249 98.10644531 100.9621582 C98.98397461 101.07003662 99.86150391 101.17791504 100.765625 101.2890625 C101.55743164 101.37881348 102.34923828 101.46856445 103.16503906 101.56103516 C103.77057617 101.70589355 104.37611328 101.85075195 105 102 C105.33 102.66 105.66 103.32 106 104 C71.02 104 36.04 104 0 104 C0 69.68 0 35.36 0 0 Z " fill="#FEFEFE" transform="translate(0,121)"/>
<path d="M0 0 C2.97 0 5.94 0 9 0 C8.67641414 19.09156587 1.59274921 37.56697429 -11 52 C-12.03447266 53.23169922 -12.03447266 53.23169922 -13.08984375 54.48828125 C-23.78529866 66.87546013 -38.13518384 77.26237317 -54 82 C-54.99 82 -55.98 82 -57 82 C-57.66 79.36 -58.32 76.72 -59 74 C-57.45892578 73.36384766 -57.45892578 73.36384766 -55.88671875 72.71484375 C-36.81242364 65.1598071 -36.81242364 65.1598071 -23 51 C-23.6290625 50.7628125 -24.258125 50.525625 -24.90625 50.28125 C-30.0487699 48.15151954 -35.03264588 45.68266744 -40.05078125 43.27734375 C-43.99317216 41.3961714 -47.9089947 39.5425102 -52 38 C-51.79503906 37.41992188 -51.59007812 36.83984375 -51.37890625 36.2421875 C-49.85990187 31.8378016 -48.5952849 27.64322223 -48 23 C-42.09629437 22.43270581 -37.69368806 24.43982844 -32.375 26.6875 C-31.49360352 27.05037109 -30.61220703 27.41324219 -29.70410156 27.78710938 C-27.13191887 28.84840572 -24.56564146 29.9230069 -22 31 C-20.67486454 31.54910802 -19.34938849 32.09739547 -18.0234375 32.64453125 C-15.34487382 33.75367397 -12.67028115 34.87110065 -10 36 C-9.72027344 35.12988281 -9.44054687 34.25976562 -9.15234375 33.36328125 C-8.07999726 30.23348351 -6.8448615 27.23560536 -5.5625 24.1875 C-2.4898874 16.33324768 -1.224686 8.3139253 0 0 Z " fill="#B41314" transform="translate(190,119)"/>
<path d="M0 0 C1.78809082 0.00519653 1.78809082 0.00519653 3.61230469 0.01049805 C14.62123334 0.14656853 24.77894903 1.32697451 34.75 6.3125 C34.09 8.6225 33.43 10.9325 32.75 13.3125 C27.86720383 12.82422038 23.32184665 11.95260011 18.5625 10.75 C7.47099257 8.28655577 -5.09513669 8.03749498 -16.25 10.3125 C-14.6870667 15.78276655 -12.14711901 20.44903342 -9.375 25.375 C-8.94058594 26.16455078 -8.50617188 26.95410156 -8.05859375 27.76757812 C-5.26025746 32.78021356 -2.33225253 37.23024747 1.75 41.3125 C0.533125 41.68375 -0.68375 42.055 -1.9375 42.4375 C-6.50168562 44.11562864 -8.46432996 46.39515151 -11.25 50.3125 C-19.56452354 46.58886543 -23.9659758 37.40677855 -28.625 30 C-29.26566406 28.99904297 -29.90632813 27.99808594 -30.56640625 26.96679688 C-35.25 19.57191165 -35.25 19.57191165 -35.25 17.3125 C-42.55060387 20.91337812 -48.74774904 25.06929715 -54.9375 30.359375 C-57.25 32.3125 -57.25 32.3125 -60.25 34.3125 C-61.9 32.6625 -63.55 31.0125 -65.25 29.3125 C-61.23642732 19.35704597 -46.59837847 11.64359548 -37.2734375 7.41650391 C-24.89543582 2.20115291 -13.48619171 -0.06339986 0 0 Z " fill="#F2983C" transform="translate(109.25,25.6875)"/>
<path d="M0 0 C3.465 1.98 3.465 1.98 7 4 C5.72791172 6.58328491 4.3957389 9.11200931 2.9765625 11.6171875 C-2.00975161 20.59001373 -5.71724362 28.92713795 -8 39 C-4.01991965 38.54939079 -0.04114487 38.08809912 3.9375 37.625 C5.05447266 37.49867187 6.17144531 37.37234375 7.32226562 37.2421875 C13.6644819 36.49823251 19.79524016 35.51335606 26 34 C26.20496094 34.90363281 26.40992188 35.80726562 26.62109375 36.73828125 C26.89050781 37.91777344 27.15992188 39.09726563 27.4375 40.3125 C27.70433594 41.48425781 27.97117188 42.65601563 28.24609375 43.86328125 C28.95313969 47.00236971 28.95313969 47.00236971 30 50 C22.77092747 53.25135319 15.45231679 54.84007611 7.6875 56.25 C6.73278809 56.42499023 5.77807617 56.59998047 4.79443359 56.78027344 C0.14445606 57.59130654 -4.25931751 58.22234357 -9 58 C-8.17706398 67.87523228 -6.15887385 76.27820071 -2.4375 85.44140625 C-1.16195146 88.59908213 -0.03897461 91.75819942 1 95 C-1.31 96.32 -3.62 97.64 -6 99 C-17.80210023 77.18600575 -21.91534341 53.16455848 -15 29 C-11.89370081 19.25030181 -7.35187085 7.35187085 0 0 Z " fill="#168A2F" transform="translate(38,61)"/>
<path d="M0 0 C7.1706587 2.00309634 12.27022934 6.47200803 18 11 C18.65355469 11.4846875 19.30710938 11.969375 19.98046875 12.46875 C37.0444461 25.76325017 45.35361517 47.72218964 48.703125 68.28125 C49.02263097 71.207252 49.05190177 74.05889972 49 77 C46.03 77 43.06 77 40 77 C39.90203125 75.99582031 39.8040625 74.99164063 39.703125 73.95703125 C38.50027198 62.61425273 36.32172348 52.21892201 31 42 C21.97193978 48.13080308 13.82602202 55.74370333 8 65 C7.57589844 64.60167969 7.15179688 64.20335938 6.71484375 63.79296875 C2.67232555 60.14137539 -0.88650302 57.87842746 -6 56 C-2.69135444 46.38424885 6.02284782 38.75315291 12.8359375 31.41015625 C14.69220978 29.34279164 16.3791142 27.25355413 18 25 C16.45739541 20.7380604 13.25524547 18.5527111 9.75 15.9375 C9.18925781 15.50373047 8.62851563 15.06996094 8.05078125 14.62304688 C4.5379362 11.95799006 1.02150605 9.85842325 -3 8 C-1.125 2.25 -1.125 2.25 0 0 Z " fill="#EED647" transform="translate(150,36)"/>
<path d="M0 0 C0.78117187 0.23009766 0.78117187 0.23009766 1.578125 0.46484375 C4.63278515 1.13982511 7.63015971 1.34411118 10.75 1.5625 C11.92046875 1.64628906 13.0909375 1.73007813 14.296875 1.81640625 C15.18890625 1.87699219 16.0809375 1.93757812 17 2 C15.46293881 14.12845071 13.79806278 26.089602 11 38 C19.9870201 39.84781799 28.59278456 40.24926284 37.75 40.125 C39.03132813 40.11597656 40.31265625 40.10695312 41.6328125 40.09765625 C44.75541221 40.07435327 47.87760025 40.04164054 51 40 C51.495 43.96 51.495 43.96 52 48 C32.17061614 53.84543645 7.66290407 47.9815808 -9.86328125 38.44140625 C-21.29354135 31.5435503 -31.2083132 22.8518659 -39 12 C-36.6875 9.5 -36.6875 9.5 -34 7 C-33.01 7 -32.02 7 -31 7 C-29.1953125 9.0546875 -29.1953125 9.0546875 -27.125 11.875 C-21.74706985 18.71480573 -14.85498868 25.07250566 -7 29 C-6.82984375 28.2471875 -6.6596875 27.494375 -6.484375 26.71875 C-4.44506104 17.78048029 -2.24762419 8.88781341 0 0 Z " fill="#183088" transform="translate(75,155)"/>
<path d="M0 0 C3.92937834 0.80042892 6.57064243 1.09967229 10.5 0.1875 C14.2835258 -0.01518888 15.00997186 0.22500449 17.9375 2.375 C20.00605439 4.34264929 20.90864775 5.3863278 21.33203125 8.23046875 C21.27727269 9.78717645 21.18071266 11.34296302 21.04296875 12.89453125 C20.98225982 15.86926891 22.43275755 17.54692487 24 20 C23.9375 22.3125 23.9375 22.3125 23 25 C22.773125 25.66773437 22.54625 26.33546875 22.3125 27.0234375 C21.39645187 29.28902081 20.5291632 31.088546 19 33 C16.91577023 33.84041523 15.13779359 34.17096905 12.90234375 34.35546875 C10.01261543 35.33453481 9.3409741 37.38071415 8 40 C3.92398602 39.9873612 -0.00649844 39.85652971 -4 39 C-6.0625 36.0625 -6.0625 36.0625 -7 33 C-10.18762365 30.87491756 -12.26512223 30.4979837 -16 30 C-17.87725632 18.97111913 -17.87725632 18.97111913 -17 14 C-15.37550757 12.29220027 -13.70779973 10.62449243 -12 9 C-11.60913188 7.0070245 -11.60913188 7.0070245 -11.5625 4.875 C-11 1 -11 1 -8.25 -1.125 C-4.41109263 -2.15855199 -3.48543342 -1.70021142 0 0 Z " fill="#FCFCFC" transform="translate(106,97)"/>
<path d="M0 0 C1.2065625 0.0309375 1.2065625 0.0309375 2.4375 0.0625 C2.4375 2.3725 2.4375 4.6825 2.4375 7.0625 C3.22125 7.18625 4.005 7.31 4.8125 7.4375 C7.4375 8.0625 7.4375 8.0625 9.4375 10.0625 C9.4375 11.3825 9.4375 12.7025 9.4375 14.0625 C11.4175 14.0625 13.3975 14.0625 15.4375 14.0625 C15.4375 25.2825 15.4375 36.5025 15.4375 48.0625 C5.5375 48.0625 -4.3625 48.0625 -14.5625 48.0625 C-14.2325 39.8125 -13.9025 31.5625 -13.5625 23.0625 C-11.9125 23.0625 -10.2625 23.0625 -8.5625 23.0625 C-8.8925 21.0825 -9.2225 19.1025 -9.5625 17.0625 C-7.9125 17.0625 -6.2625 17.0625 -4.5625 17.0625 C-4.5625 17.7225 -4.5625 18.3825 -4.5625 19.0625 C0.0575 19.0625 4.6775 19.0625 9.4375 19.0625 C9.4375 18.0725 9.4375 17.0825 9.4375 16.0625 C8.7775 16.0625 8.1175 16.0625 7.4375 16.0625 C7.4375 16.7225 7.4375 17.3825 7.4375 18.0625 C5.1275 18.0625 2.8175 18.0625 0.4375 18.0625 C0.4375 16.7425 0.4375 15.4225 0.4375 14.0625 C-1.35408489 14.03553635 -3.14578473 14.01612083 -4.9375 14 C-6.43410156 13.98259766 -6.43410156 13.98259766 -7.9609375 13.96484375 C-10.54682453 13.88243398 -10.54682453 13.88243398 -12.5625 15.0625 C-12.5625 14.4025 -12.5625 13.7425 -12.5625 13.0625 C-14.2125 13.0625 -15.8625 13.0625 -17.5625 13.0625 C-17.5625 12.7325 -17.5625 12.4025 -17.5625 12.0625 C-13.9325 12.0625 -10.3025 12.0625 -6.5625 12.0625 C-6.5625 10.4125 -6.5625 8.7625 -6.5625 7.0625 C-5.5725 7.0625 -4.5825 7.0625 -3.5625 7.0625 C-3.583125 6.093125 -3.60375 5.12375 -3.625 4.125 C-3.54257968 0.08640438 -3.54257968 0.08640438 0 0 Z " fill="#4F4F4D" transform="translate(209.5625,176.9375)"/>
<path d="M0 0 C17.55482185 0.45523039 17.55482185 0.45523039 23.1875 6.25 C23.5175 7.9 23.8475 9.55 24.1875 11.25 C29.6325 11.745 29.6325 11.745 35.1875 12.25 C34.5275 13.9 33.8675 15.55 33.1875 17.25 C32.84332031 18.12140625 32.49914062 18.9928125 32.14453125 19.890625 C30.98738324 22.52876449 29.8549937 24.89717512 28.1875 27.25 C24.625 28.1875 24.625 28.1875 21.1875 28.25 C18.96006213 29.66977909 18.96006213 29.66977909 17.1875 31.25 C13.85499498 32.36083501 11.25711042 32.41759585 7.75 32.4375 C6.61691406 32.45167969 5.48382813 32.46585938 4.31640625 32.48046875 C1.33292021 32.26071135 -0.30545423 31.80843386 -2.8125 30.25 C-2.8125 29.26 -2.8125 28.27 -2.8125 27.25 C-4.1325 26.59 -5.4525 25.93 -6.8125 25.25 C-6.83958567 23.64592672 -6.85893483 22.0417215 -6.875 20.4375 C-6.88660156 19.54417969 -6.89820312 18.65085938 -6.91015625 17.73046875 C-6.8125 15.25 -6.8125 15.25 -5.8125 12.25 C-5.78322083 9.66924999 -5.877981 7.1062976 -5.97265625 4.52734375 C-5.6762901 0.31316162 -3.97481022 0.26064329 0 0 Z " fill="#B31112" transform="translate(77.8125,124.75)"/>
<path d="M0 0 C0.12375 0.928125 0.12375 0.928125 0.25 1.875 C0.79880842 4.11749145 0.79880842 4.11749145 2.71875 5.1171875 C5.35512782 6.1374296 7.43026279 6.20166165 10.25 6.25 C16.1515334 6.70821812 20.09709402 8.48507021 24 13 C25.375 16.75 25.375 16.75 26 20 C26.66 20.66 27.32 21.32 28 22 C28.125 24.625 28.125 24.625 28 27 C27.01 27.33 26.02 27.66 25 28 C24.505 30.475 24.505 30.475 24 33 C23.01 33.33 22.02 33.66 21 34 C20.26676204 36.01508358 20.26676204 36.01508358 20 38 C18.02 38.495 18.02 38.495 16 39 C16 40.32 16 41.64 16 43 C13.69 43 11.38 43 9 43 C9 42.34 9 41.68 9 41 C8.42378906 40.73832031 7.84757812 40.47664063 7.25390625 40.20703125 C1.94549665 37.36422611 -3.73560825 32.66097938 -6 27 C-6.41791045 20.8358209 -6.41791045 20.8358209 -5 18 C-5.598125 17.731875 -6.19625 17.46375 -6.8125 17.1875 C-8.99721913 16.00150961 -10.29470795 14.77943518 -12 13 C-12.99 12.34 -13.98 11.68 -15 11 C-14.00097656 10.62488281 -13.00195312 10.24976562 -11.97265625 9.86328125 C-10.66886021 9.34739073 -9.36549662 8.83040633 -8.0625 8.3125 C-7.40314453 8.06822266 -6.74378906 7.82394531 -6.06445312 7.57226562 C-3.89583321 6.74270208 -3.89583321 6.74270208 -1 5 C0.05477257 2.40941336 0.05477257 2.40941336 0 0 Z " fill="#F1983B" transform="translate(132,85)"/>
<path d="M0 0 C0.33 1.65 0.66 3.3 1 5 C1.99 5.33 2.98 5.66 4 6 C4 7.65 4 9.3 4 11 C4.928125 11.3403125 4.928125 11.3403125 5.875 11.6875 C8.69339387 13.42827269 9.11944786 14.84468818 10 18 C10.02927806 19.66640949 10.03349407 21.33366992 10 23 C6.0115079 25.02371766 2.00835382 27.01596557 -2 29 C-2.69609375 29.36351563 -3.3921875 29.72703125 -4.109375 30.1015625 C-8.42041942 32.21753385 -11.37835714 32.11261773 -16 31 C-16.845625 30.608125 -17.69125 30.21625 -18.5625 29.8125 C-21.59375 28.53125 -21.59375 28.53125 -27 31 C-27.33 25.39 -27.66 19.78 -28 14 C-27.34 13.67 -26.68 13.34 -26 13 C-25.5875 11.9275 -25.175 10.855 -24.75 9.75 C-23.05010989 5.61926704 -20.77213082 3.46639323 -17 1 C-13.5 0.25 -13.5 0.25 -10 0 C-8.948125 -0.20625 -7.89625 -0.4125 -6.8125 -0.625 C-4.12793953 -0.9829414 -2.52883583 -0.87536625 0 0 Z " fill="#14892E" transform="translate(122,67)"/>
<path d="M0 0 C6.27 0 12.54 0 19 0 C19 7.59 19 15.18 19 23 C10 23 10 23 7.44140625 20.84765625 C6.82136719 19.92855469 6.20132813 19.00945312 5.5625 18.0625 C3.28866423 14.45224225 3.28866423 14.45224225 0 12 C-0.66 12.66 -1.32 13.32 -2 14 C-2 11.36 -2 8.72 -2 6 C-1.34 6 -0.68 6 0 6 C0 5.34 0 4.68 0 4 C-0.66 4 -1.32 4 -2 4 C-2 3.34 -2 2.68 -2 2 C-1.34 2 -0.68 2 0 2 C0 1.34 0 0.68 0 0 Z " fill="#F2F2F2" transform="translate(205,198)"/>
<path d="M0 0 C0 1.65 0 3.3 0 5 C0.99 5.33 1.98 5.66 3 6 C2.34 6 1.68 6 1 6 C1.33 6.99 1.66 7.98 2 9 C2.99 9 3.98 9 5 9 C8.67634412 12.32211305 11.74210458 16.6096478 14 21 C14 21.66 14 22.32 14 23 C14.66 23.33 15.32 23.66 16 24 C8.41 24 0.82 24 -7 24 C-6.47726019 16.30825703 -5.92373707 8.65382146 -5 1 C-1.125 0 -1.125 0 0 0 Z " fill="#161616" transform="translate(202,201)"/>
<path d="M0 0 C1.98 0 3.96 0 6 0 C6 10.89 6 21.78 6 33 C-1 33 -1 33 -2.9375 31.5625 C-4 30 -4 30 -4 29 C-1.03 29 1.94 29 5 29 C5 21.41 5 13.82 5 6 C-1.27 6 -7.54 6 -14 6 C-14 6.66 -14 7.32 -14 8 C-14.66 8 -15.32 8 -16 8 C-16 8.66 -16 9.32 -16 10 C-15.34 10 -14.68 10 -14 10 C-14 10.66 -14 11.32 -14 12 C-14.66 12 -15.32 12 -16 12 C-16.33 12.66 -16.66 13.32 -17 14 C-17.33 12.68 -17.66 11.36 -18 10 C-19.32 10 -20.64 10 -22 10 C-22 12.97 -22 15.94 -22 19 C-22.33 19 -22.66 19 -23 19 C-23 15.37 -23 11.74 -23 8 C-21.35 8 -19.7 8 -18 8 C-18.33 6.02 -18.66 4.04 -19 2 C-17.35 2 -15.7 2 -14 2 C-14 2.66 -14 3.32 -14 4 C-9.38 4 -4.76 4 0 4 C0 2.68 0 1.36 0 0 Z " fill="#5E5E5E" transform="translate(219,192)"/>
<path d="M0 0 C0.33 0.66 0.66 1.32 1 2 C2.32 2 3.64 2 5 2 C5 3.32 5 4.64 5 6 C7.75641416 5.50243908 7.75641416 5.50243908 10 4 C11.66617115 3.95936168 13.33388095 3.957279 15 4 C14.67 5.98 14.34 7.96 14 10 C12.35 10 10.7 10 9 10 C8.34 11.65 7.68 13.3 7 15 C3.48283697 15 2.62878252 14.17554415 0 12 C-0.66 12.66 -1.32 13.32 -2 14 C-2 11.36 -2 8.72 -2 6 C-1.34 6 -0.68 6 0 6 C0 5.34 0 4.68 0 4 C-0.66 4 -1.32 4 -2 4 C-2 3.34 -2 2.68 -2 2 C-1.34 2 -0.68 2 0 2 C0 1.34 0 0.68 0 0 Z " fill="#EFEFEF" transform="translate(205,198)"/>
<path d="M0 0 C2.62506802 -0.02690844 5.24986173 -0.04679404 7.875 -0.0625 C8.62136719 -0.07087891 9.36773437 -0.07925781 10.13671875 -0.08789062 C15.7734375 -0.11328125 15.7734375 -0.11328125 18 1 C18 2.32 18 3.64 18 5 C20.31 5 22.62 5 25 5 C25 4.34 25 3.68 25 3 C25.66 3 26.32 3 27 3 C27 3.99 27 4.98 27 6 C22.38 6 17.76 6 13 6 C13 5.34 13 4.68 13 4 C11.68 4.33 10.36 4.66 9 5 C9 6.65 9 8.3 9 10 C5.7 10.33 2.4 10.66 -1 11 C1 7 1 7 3 6 C2.42655063 3.13275314 2.1385485 2.1385485 0 0 Z " fill="#B1B1B1" transform="translate(192,190)"/>
<path d="M0 0 C0 1.65 0 3.3 0 5 C0.99 5.33 1.98 5.66 3 6 C2.34 6 1.68 6 1 6 C1.185625 6.969375 1.37125 7.93875 1.5625 8.9375 C1.706875 9.948125 1.85125 10.95875 2 12 C1.67 12.33 1.34 12.66 1 13 C0.63239269 15.32817964 0.29758419 17.6618385 0 20 C-0.33 20 -0.66 20 -1 20 C-1.33 18.02 -1.66 16.04 -2 14 C-2.66 14 -3.32 14 -4 14 C-4 15.98 -4 17.96 -4 20 C-4.66 20 -5.32 20 -6 20 C-6.33 21.32 -6.66 22.64 -7 24 C-6.48594306 16.31102069 -5.9234499 8.65144206 -5 1 C-1.125 0 -1.125 0 0 0 Z " fill="#353631" transform="translate(202,201)"/>
<path d="M0 0 C1.27875 -0.061875 2.5575 -0.12375 3.875 -0.1875 C4.95394531 -0.23970703 4.95394531 -0.23970703 6.0546875 -0.29296875 C6.69664062 -0.19628906 7.33859375 -0.09960938 8 0 C10 3 10 3 10 7 C9.01257813 6.98839844 8.02515625 6.97679687 7.0078125 6.96484375 C5.72648437 6.95582031 4.44515625 6.94679687 3.125 6.9375 C1.21074219 6.92009766 1.21074219 6.92009766 -0.7421875 6.90234375 C-3.88664652 6.76823431 -3.88664652 6.76823431 -6 8 C-6 7.34 -6 6.68 -6 6 C-7.65 6 -9.3 6 -11 6 C-11 5.67 -11 5.34 -11 5 C-7.37 5 -3.74 5 0 5 C0 3.35 0 1.7 0 0 Z " fill="#454643" transform="translate(203,184)"/>
<path d="M0 0 C0.1875 2.875 0.1875 2.875 0 6 C-3.45245824 8.30163882 -4.94738713 8.34490322 -9 8 C-9.66 7.34 -10.32 6.68 -11 6 C-11 4.68 -11 3.36 -11 2 C-7.17679443 0.57741188 -4.08718695 -0.24042276 0 0 Z " fill="#787878" transform="translate(211,90)"/>
<path d="M0 0 C2.97 1.98 5.94 3.96 9 6 C8.34 7.32 7.68 8.64 7 10 C3.85375007 10.26218749 2.38162983 10.24754367 -0.3125 8.5 C-0.869375 8.005 -1.42625 7.51 -2 7 C-1.125 1.125 -1.125 1.125 0 0 Z " fill="#222222" transform="translate(187,166)"/>
<path d="M0 0 C4.09789669 0.37943488 6.53958935 0.69305957 10 3 C9.67 4.32 9.34 5.64 9 7 C4.94568308 8.15837626 2.78187881 7.83691257 -1 6 C-1.042721 4.33388095 -1.04063832 2.66617115 -1 1 C-0.67 0.67 -0.34 0.34 0 0 Z " fill="#141414" transform="translate(199,141)"/>
<path d="M0 0 C1.875 0.9375 1.875 0.9375 3.875 3.9375 C1.565 6.2475 -0.745 8.5575 -3.125 10.9375 C-4.445 9.9475 -5.765 8.9575 -7.125 7.9375 C-6.54634385 3.88690693 -4.53928493 -0.13350838 0 0 Z " fill="#7D7D7D" transform="translate(40.125,178.0625)"/>
<path d="M0 0 C0.99 0.33 1.98 0.66 3 1 C3.765625 3.03125 3.765625 3.03125 4.25 5.5 C4.50523437 6.72203125 4.50523437 6.72203125 4.765625 7.96875 C4.84296875 8.6390625 4.9203125 9.309375 5 10 C4 11 4 11 1.4375 11.0625 C0.633125 11.041875 -0.17125 11.02125 -1 11 C-3.03435531 7.27034861 -4 5.33094958 -4 1 C-3.34 1 -2.68 1 -2 1 C-1.67 2.32 -1.34 3.64 -1 5 C-0.34 5 0.32 5 1 5 C0.67 3.35 0.34 1.7 0 0 Z " fill="#161616" transform="translate(136,204)"/>
<path d="M0 0 C1.5 1.375 1.5 1.375 3 3 C3 3.66 3 4.32 3 5 C2.01 5 1.02 5 0 5 C0 5.99 0 6.98 0 8 C1.98 7.34 3.96 6.68 6 6 C4.125 9.875 4.125 9.875 3 11 C-2.41176471 11.47058824 -2.41176471 11.47058824 -4.875 9.5 C-5.24625 9.005 -5.6175 8.51 -6 8 C-5.67 7.01 -5.34 6.02 -5 5 C-4.34 5 -3.68 5 -3 5 C-1.3553326 2.53673288 -1.3553326 2.53673288 0 0 Z " fill="#9C9C9C" transform="translate(209,161)"/>
<path d="M0 0 C1.98 0.66 3.96 1.32 6 2 C5.34 5.3 4.68 8.6 4 12 C3.34 12 2.68 12 2 12 C2 10.35 2 8.7 2 7 C1.34 7 0.68 7 0 7 C0 7.99 0 8.98 0 10 C-0.66 10 -1.32 10 -2 10 C-1.125 2.25 -1.125 2.25 0 0 Z " fill="#171717" transform="translate(134,14)"/>
<path d="M0 0 C1.32 0.33 2.64 0.66 4 1 C4 1.66 4 2.32 4 3 C5.65 3.33 7.3 3.66 9 4 C9 4.66 9 5.32 9 6 C7.68 6 6.36 6 5 6 C5.99 7.485 5.99 7.485 7 9 C3.60406522 9 2.93380119 8.47834052 0.3125 6.5 C-0.31011719 6.0359375 -0.93273437 5.571875 -1.57421875 5.09375 C-2.04472656 4.7328125 -2.51523437 4.371875 -3 4 C-2.01 2.68 -1.02 1.36 0 0 Z " fill="#3B3B3B" transform="translate(25,54)"/>
<path d="M0 0 C4.39291786 3.31909349 6.8227865 5.79887886 9 11 C7.35 11.33 5.7 11.66 4 12 C3.67 11.34 3.34 10.68 3 10 C0.98330173 8.86649466 0.98330173 8.86649466 -1 8 C-0.67 5.36 -0.34 2.72 0 0 Z " fill="#212120" transform="translate(205,209)"/>
<path d="M0 0 C0 0.99 0 1.98 0 3 C-0.99 3.495 -0.99 3.495 -2 4 C-1.01 4.33 -0.02 4.66 1 5 C1 5.66 1 6.32 1 7 C-2.63 7.33 -6.26 7.66 -10 8 C-10 6.68 -10 5.36 -10 4 C-8.68 3.67 -7.36 3.34 -6 3 C-7.32 2.34 -8.64 1.68 -10 1 C-6.52674819 -0.1577506 -3.63932552 -0.06866652 0 0 Z " fill="#222222" transform="translate(16,121)"/>
<path d="M0 0 C1.69141656 0.08963062 3.37959602 0.24577676 5.0625 0.4375 C6.44115234 0.59025391 6.44115234 0.59025391 7.84765625 0.74609375 C8.55792969 0.82988281 9.26820312 0.91367188 10 1 C10 1.66 10 2.32 10 3 C8.35 3 6.7 3 5 3 C5 3.66 5 4.32 5 5 C6.32 5 7.64 5 9 5 C9 5.66 9 6.32 9 7 C5.7 6.67 2.4 6.34 -1 6 C-1 1 -1 1 0 0 Z " fill="#3D3D3D" transform="translate(8,93)"/>
<path d="M0 0 C3.73884332 2.65654657 5.64978174 4.58110387 7 9 C3 9 3 9 0 7 C0.495 7.45375 0.99 7.9075 1.5 8.375 C3 10 3 10 3 12 C2.34 12 1.68 12 1 12 C-0.32421875 10.57421875 -0.32421875 10.57421875 -1.6875 8.6875 C-2.14511719 8.07261719 -2.60273437 7.45773438 -3.07421875 6.82421875 C-3.53248047 5.92123047 -3.53248047 5.92123047 -4 5 C-3.67 4.01 -3.34 3.02 -3 2 C-1.35 2.99 0.3 3.98 2 5 C1.34 3.35 0.68 1.7 0 0 Z " fill="#151515" transform="translate(46,32)"/>
<path d="M0 0 C2.61724095 2.36797991 4.32861729 4.89600354 6 8 C6 8.66 6 9.32 6 10 C5.01 9.67 4.02 9.34 3 9 C3 8.34 3 7.68 3 7 C2.34 7 1.68 7 1 7 C1.33 8.65 1.66 10.3 2 12 C-2.02550319 10.6581656 -2.88285636 8.5772427 -5 5 C-5 4.34 -5 3.68 -5 3 C-2 3 -2 3 -0.3125 4.5 C0.120625 4.995 0.55375 5.49 1 6 C0.34 4.35 -0.32 2.7 -1 1 C-0.67 0.67 -0.34 0.34 0 0 Z " fill="#212121" transform="translate(161,192)"/>
<path d="M0 0 C0.99 0.33 1.98 0.66 3 1 C3 2.32 3 3.64 3 5 C3.33 4.34 3.66 3.68 4 3 C4.66 3 5.32 3 6 3 C4.7508258 6.45925163 3.32472205 9.14693203 1 12 C0.01 11.67 -0.98 11.34 -2 11 C-1.67 9.35 -1.34 7.7 -1 6 C-1.99 7.485 -1.99 7.485 -3 9 C-3.66 8.67 -4.32 8.34 -5 8 C-3.35 5.36 -1.7 2.72 0 0 Z " fill="#1C1C1C" transform="translate(162,26)"/>
<path d="M0 0 C3.91211733 1.15585285 6.8745041 2.35534962 10 5 C9.67 5.66 9.34 6.32 9 7 C6.69 6.67 4.38 6.34 2 6 C3.65 6.99 5.3 7.98 7 9 C6.01 9.495 6.01 9.495 5 10 C3.0546875 9.22265625 3.0546875 9.22265625 0.875 8.0625 C0.15054688 7.68222656 -0.57390625 7.30195313 -1.3203125 6.91015625 C-1.87460938 6.60980469 -2.42890625 6.30945313 -3 6 C-2.67 5.01 -2.34 4.02 -2 3 C0.31 3.33 2.62 3.66 5 4 C2.525 3.01 2.525 3.01 0 2 C0 1.34 0 0.68 0 0 Z " fill="#101010" transform="translate(194,154)"/>
<path d="M0 0 C0.99 0 1.98 0 3 0 C2 7.42857143 2 7.42857143 1 11 C0.34 11 -0.32 11 -1 11 C-1.66 10.01 -2.32 9.02 -3 8 C-3.99 8.33 -4.98 8.66 -6 9 C-4.4705003 5.55862568 -2.54630448 2.7777867 0 0 Z " fill="#1A1A1A" transform="translate(150,20)"/>
<path d="M0 0 C0 2.31 0 4.62 0 7 C0.66 7 1.32 7 2 7 C2 8.32 2 9.64 2 11 C-0.31 11 -2.62 11 -5 11 C-5 9.68 -5 8.36 -5 7 C-4.34 7 -3.68 7 -3 7 C-3.226875 6.401875 -3.45375 5.80375 -3.6875 5.1875 C-3.790625 4.465625 -3.89375 3.74375 -4 3 C-1.64285714 0 -1.64285714 0 0 0 Z " fill="#1E1E1D" transform="translate(201,214)"/>
<path d="M0 0 C0.99 0 1.98 0 3 0 C2.85761163 2.04190981 2.71092972 4.08352045 2.5625 6.125 C2.48128906 7.26195312 2.40007812 8.39890625 2.31640625 9.5703125 C2.02269035 12.7540478 1.56875687 15.85510907 1 19 C0.34 19 -0.32 19 -1 19 C-1.33 20.32 -1.66 21.64 -2 23 C-1.48594306 15.31102069 -0.9234499 7.65144206 0 0 Z " fill="#484846" transform="translate(197,202)"/>
<path d="M0 0 C1.65 0.33 3.3 0.66 5 1 C5.12375 1.804375 5.2475 2.60875 5.375 3.4375 C5.684375 4.7059375 5.684375 4.7059375 6 6 C6.66 6.33 7.32 6.66 8 7 C8 7.66 8 8.32 8 9 C4.04179141 8.43454163 1.3340947 7.19097652 -2 5 C-1.34 3.35 -0.68 1.7 0 0 Z " fill="#4C4C4C" transform="translate(17,66)"/>
<path d="M0 0 C-0.61520275 3.99881788 -2.60268669 6.80358226 -5 10 C-5.66 10 -6.32 10 -7 10 C-7.33 8.68 -7.66 7.36 -8 6 C-8.66 6 -9.32 6 -10 6 C-9 3 -9 3 -6.125 1.3125 C-3 0 -3 0 0 0 Z " fill="#2A2A2A" transform="translate(189,47)"/>
<path d="M0 0 C1.1446875 0.3403125 1.1446875 0.3403125 2.3125 0.6875 C2.3125 2.0075 2.3125 3.3275 2.3125 4.6875 C1.6525 4.6875 0.9925 4.6875 0.3125 4.6875 C0.3125 3.6975 0.3125 2.7075 0.3125 1.6875 C-3.05838267 3.96165287 -3.05838267 3.96165287 -4.6875 7.6875 C-3.6975 7.3575 -2.7075 7.0275 -1.6875 6.6875 C-1.6875 7.6775 -1.6875 8.6675 -1.6875 9.6875 C-3.9975 10.0175 -6.3075 10.3475 -8.6875 10.6875 C-8.26066368 9.41304546 -7.82052798 8.14304118 -7.375 6.875 C-7.13136719 6.16730469 -6.88773438 5.45960937 -6.63671875 4.73046875 C-5.03662341 1.28664214 -3.92186436 -0.45603074 0 0 Z " fill="#121212" transform="translate(176.6875,36.3125)"/>
<path d="M0 0 C0.125 4.75 0.125 4.75 -1 7 C-3.875 6.8125 -3.875 6.8125 -7 6 C-8.375 3.4375 -8.375 3.4375 -9 1 C-5.64919071 -1.10976881 -3.77897651 -1.0497157 0 0 Z " fill="#DCDCDC" transform="translate(220,213)"/>
<path d="M0 0 C2.4375 0.375 2.4375 0.375 5 1 C5.33 1.66 5.66 2.32 6 3 C5.00390625 4.9453125 5.00390625 4.9453125 3.5625 7.125 C3.08941406 7.84945312 2.61632813 8.57390625 2.12890625 9.3203125 C1.75636719 9.87460938 1.38382813 10.42890625 1 11 C-1.475 10.01 -1.475 10.01 -4 9 C-3.67 8.01 -3.34 7.02 -3 6 C-2.67 6.99 -2.34 7.98 -2 9 C-1.34 9 -0.68 9 0 9 C-0.33 7.68 -0.66 6.36 -1 5 C-0.01 4.67 0.98 4.34 2 4 C2.33 3.34 2.66 2.68 3 2 C1.02 2.99 1.02 2.99 -1 4 C-0.67 2.68 -0.34 1.36 0 0 Z " fill="#131313" transform="translate(56,193)"/>
<path d="M0 0 C1.65 0.33 3.3 0.66 5 1 C5 1.66 5 2.32 5 3 C3.68 2.67 2.36 2.34 1 2 C2.25541557 4.51083114 3.50063488 4.87125446 6 6 C5.67 7.65 5.34 9.3 5 11 C3.35 11 1.7 11 0 11 C-0.33 10.01 -0.66 9.02 -1 8 C0.32 8.33 1.64 8.66 3 9 C3.33 8.34 3.66 7.68 4 7 C1.525 6.01 1.525 6.01 -1 5 C-0.67 3.35 -0.34 1.7 0 0 Z " fill="#202020" transform="translate(97,11)"/>
<path d="M0 0 C1.65 0.33 3.3 0.66 5 1 C6.39195915 5.17587745 4.82323219 7.13474776 3 11 C2.34 11 1.68 11 1 11 C1.55728913 7.65626525 2.35173889 4.96687001 4 2 C3.01 2 2.02 2 1 2 C0.34 4.31 -0.32 6.62 -1 9 C-1.99 8.67 -2.98 8.34 -4 8 C-2.68 5.36 -1.36 2.72 0 0 Z " fill="#191919" transform="translate(68,200)"/>
<path d="M0 0 C1.32 0.33 2.64 0.66 4 1 C4.33 2.65 4.66 4.3 5 6 C4.34 6 3.68 6 3 6 C3 4.68 3 3.36 3 2 C2.34 2 1.68 2 1 2 C1.061875 3.175625 1.061875 3.175625 1.125 4.375 C1 7 1 7 -1 9 C-3.125 8.625 -3.125 8.625 -5 8 C-5.33 6.68 -5.66 5.36 -6 4 C-5.01 3.67 -4.02 3.34 -3 3 C-3.33 4.32 -3.66 5.64 -4 7 C-1.64214682 6.10664203 -1.64214682 6.10664203 -0.875 2.9375 C-0.441875 1.4834375 -0.441875 1.4834375 0 0 Z " fill="#161616" transform="translate(22,156)"/>
<path d="M0 0 C4.95 0.99 4.95 0.99 10 2 C9.67 3.98 9.34 5.96 9 8 C7.35 7.67 5.7 7.34 4 7 C4 5.68 4 4.36 4 3 C2.68 2.67 1.36 2.34 0 2 C0 1.34 0 0.68 0 0 Z " fill="#575757" transform="translate(202,127)"/>
<path d="M0 0 C0.66 0 1.32 0 2 0 C5.07692308 5.41538462 5.07692308 5.41538462 4.6875 8.375 C4.460625 8.91125 4.23375 9.4475 4 10 C2.35 10.33 0.7 10.66 -1 11 C-1.99 8.03 -2.98 5.06 -4 2 C-3.34 2 -2.68 2 -2 2 C-0.5393715 4.64738916 0 5.89448334 0 9 C0.99 9 1.98 9 3 9 C2.01 6.03 1.02 3.06 0 0 Z " fill="#141414" transform="translate(71,18)"/>
<path d="M0 0 C1.65 0.33 3.3 0.66 5 1 C5.1953125 7.0546875 5.1953125 7.0546875 5 9 C4.34 9.66 3.68 10.32 3 11 C0.375 10.625 0.375 10.625 -2 10 C-2 9.01 -2 8.02 -2 7 C-1.34 7 -0.68 7 0 7 C0 7.66 0 8.32 0 9 C0.66 9 1.32 9 2 9 C2.33 6.69 2.66 4.38 3 2 C1.68 2.33 0.36 2.66 -1 3 C-0.67 2.01 -0.34 1.02 0 0 Z " fill="#111111" transform="translate(94,207)"/>
<path d="M0 0 C1.32 0.33 2.64 0.66 4 1 C4.66 3.97 5.32 6.94 6 10 C5.34 10 4.68 10 4 10 C3.67 8.68 3.34 7.36 3 6 C2.34 6 1.68 6 1 6 C1 7.65 1 9.3 1 11 C0.34 11 -0.32 11 -1 11 C-1.66 7.7 -2.32 4.4 -3 1 C-2.34 1 -1.68 1 -1 1 C-0.67 2.32 -0.34 3.64 0 5 C0.66 5 1.32 5 2 5 C2 3.68 2 2.36 2 1 C1.34 0.67 0.68 0.34 0 0 Z " fill="#131313" transform="translate(84,14)"/>
<path d="M0 0 C0.99 0 1.98 0 3 0 C3.33 1.98 3.66 3.96 4 6 C3.34 6 2.68 6 2 6 C1.67 5.01 1.34 4.02 1 3 C0.67 4.65 0.34 6.3 0 8 C-1.65 8.33 -3.3 8.66 -5 9 C-5.66 7.35 -6.32 5.7 -7 4 C-6.01 3.67 -5.02 3.34 -4 3 C-4.33 4.32 -4.66 5.64 -5 7 C-4.01 7 -3.02 7 -2 7 C-2.04125 6.21625 -2.0825 5.4325 -2.125 4.625 C-2 2 -2 2 0 0 Z " fill="#151515" transform="translate(199,67)"/>
<path d="M0 0 C0.33 0 0.66 0 1 0 C1 3.3 1 6.6 1 10 C-5.50381098 10.36814024 -5.50381098 10.36814024 -7.9375 8.5625 C-9 7 -9 7 -9 6 C-6.03 6 -3.06 6 0 6 C0 4.02 0 2.04 0 0 Z " fill="#909190" transform="translate(224,215)"/>
<path d="M0 0 C0.99 0 1.98 0 3 0 C4.125 3.75 4.125 3.75 3 6 C3.66 6 4.32 6 5 6 C5 6.66 5 7.32 5 8 C4.34 8 3.68 8 3 8 C2.67 8.66 2.34 9.32 2 10 C1.67 8.68 1.34 7.36 1 6 C-0.32 6 -1.64 6 -3 6 C-3 8.97 -3 11.94 -3 15 C-3.33 15 -3.66 15 -4 15 C-4 11.37 -4 7.74 -4 4 C-2.35 4 -0.7 4 1 4 C0.67 2.68 0.34 1.36 0 0 Z " fill="#5A5A59" transform="translate(200,196)"/>
<path d="M0 0 C3.07531556 0.33246655 4.61832506 0.63104756 6.875 2.8125 C8 5 8 5 7.6875 7.25 C7.460625 7.8275 7.23375 8.405 7 9 C5.68 9.33 4.36 9.66 3 10 C3 9.01 3 8.02 3 7 C3.99 7.33 4.98 7.66 6 8 C4.13433512 4.37206002 4.13433512 4.37206002 1 2 C1 2.99 1 3.98 1 5 C0.01 4.67 -0.98 4.34 -2 4 C-1.34 2.68 -0.68 1.36 0 0 Z " fill="#1E1E1E" transform="translate(170,185)"/>
<path d="M0 0 C0.66 0 1.32 0 2 0 C2 0.66 2 1.32 2 2 C4.97 2 7.94 2 11 2 C11 2.99 11 3.98 11 5 C8.03 5 5.06 5 2 5 C2 5.66 2 6.32 2 7 C1.34 7 0.68 7 0 7 C0 4.69 0 2.38 0 0 Z " fill="#424242" transform="translate(5,107)"/>
<path d="M0 0 C0.66 0 1.32 0 2 0 C1.67 1.32 1.34 2.64 1 4 C2.32 4.33 3.64 4.66 5 5 C4.67 5.66 4.34 6.32 4 7 C5.65 6.67 7.3 6.34 9 6 C8.34 7.32 7.68 8.64 7 10 C3 10 3 10 0.25 7.5 C-0.4925 6.675 -1.235 5.85 -2 5 C-1.34 3.35 -0.68 1.7 0 0 Z " fill="#161616" transform="translate(34,42)"/>
<path d="M0 0 C0 1.65 0 3.3 0 5 C-0.66 5 -1.32 5 -2 5 C-2 4.34 -2 3.68 -2 3 C-2.66 3 -3.32 3 -4 3 C-4 3.99 -4 4.98 -4 6 C-4.66 6 -5.32 6 -6 6 C-6 5.01 -6 4.02 -6 3 C-6.99 3 -7.98 3 -9 3 C-9 3.99 -9 4.98 -9 6 C-9.66 6 -10.32 6 -11 6 C-11 4.35 -11 2.7 -11 1 C-9.54182203 0.83197949 -8.0834516 0.66562857 -6.625 0.5 C-5.81289062 0.4071875 -5.00078125 0.314375 -4.1640625 0.21875 C-2 0 -2 0 0 0 Z " fill="#2C2C2C" transform="translate(213,105)"/>
<path d="M0 0 C0.66 0 1.32 0 2 0 C1.67 1.32 1.34 2.64 1 4 C1.99 4 2.98 4 4 4 C4 3.34 4 2.68 4 2 C4.66 2 5.32 2 6 2 C6.33 2.99 6.66 3.98 7 5 C8.32 4.34 9.64 3.68 11 3 C10.34 4.65 9.68 6.3 9 8 C5.28111761 7.49287967 2.26545761 6.88391785 -1 5 C-0.67 3.35 -0.34 1.7 0 0 Z " fill="#191919" transform="translate(11,79)"/>
<path d="M0 0 C0.66 0.33 1.32 0.66 2 1 C2 2.32 2 3.64 2 5 C-2.12168689 6.62950412 -4.70700357 7.26264601 -9 6 C-8.67 4.68 -8.34 3.36 -8 2 C-7.67 2.99 -7.34 3.98 -7 5 C-6.34 5 -5.68 5 -5 5 C-5 3.68 -5 2.36 -5 1 C-4.34 1 -3.68 1 -3 1 C-3 1.99 -3 2.98 -3 4 C-2.01 4 -1.02 4 0 4 C0 2.68 0 1.36 0 0 Z " fill="#212121" transform="translate(17,135)"/>
<path d="M0 0 C0.33 0.66 0.66 1.32 1 2 C0.34 2 -0.32 2 -1 2 C-0.67 2.66 -0.34 3.32 0 4 C0.99 4 1.98 4 3 4 C3 4.66 3 5.32 3 6 C2.34 6 1.68 6 1 6 C1.33 6.66 1.66 7.32 2 8 C3.32 8 4.64 8 6 8 C6 8.66 6 9.32 6 10 C4.35 10.33 2.7 10.66 1 11 C0.16094435 9.87926138 -0.67107831 8.75325453 -1.5 7.625 C-1.9640625 6.99851562 -2.428125 6.37203125 -2.90625 5.7265625 C-4 4 -4 4 -4 2 C-2.68 1.34 -1.36 0.68 0 0 Z " fill="#191919" transform="translate(58,24)"/>
<path d="M0 0 C1.32 3.3 2.64 6.6 4 10 C2.35 10.66 0.7 11.32 -1 12 C-1 11.34 -1 10.68 -1 10 C-0.34 10 0.32 10 1 10 C1 9.01 1 8.02 1 7 C-0.32 7.33 -1.64 7.66 -3 8 C-3 7.34 -3 6.68 -3 6 C-2.34 6 -1.68 6 -1 6 C-1 5.01 -1 4.02 -1 3 C-2.32 2.67 -3.64 2.34 -5 2 C-2 0 -2 0 0 0 Z " fill="#171717" transform="translate(150,199)"/>
<path d="M0 0 C0.99 0.66 1.98 1.32 3 2 C2.66410006 5.13506611 1.97334828 6.025249 -0.375 8.25 C-3 10 -3 10 -6 10 C-6.66 8.68 -7.32 7.36 -8 6 C-6.68 6.33 -5.36 6.66 -4 7 C-3.67 5.68 -3.34 4.36 -3 3 C-2.01 3.33 -1.02 3.66 0 4 C0 2.68 0 1.36 0 0 Z " fill="#121212" transform="translate(31,167)"/>
<path d="M0 0 C1.32 0.66 2.64 1.32 4 2 C4 3.32 4 4.64 4 6 C5.98 6 7.96 6 10 6 C10 6.33 10 6.66 10 7 C6.92382812 7.29296875 6.92382812 7.29296875 3.84765625 7.5859375 C3.23792969 7.72257813 2.62820312 7.85921875 2 8 C1.67 8.66 1.34 9.32 1 10 C0.66666667 8.66666667 0.33333333 7.33333333 0 6 C-0.20625 5.29875 -0.4125 4.5975 -0.625 3.875 C-1 2 -1 2 0 0 Z " fill="#5F5F5D" transform="translate(215,185)"/>
<path d="M0 0 C0.66 0 1.32 0 2 0 C2.99 3.3 3.98 6.6 5 10 C4.34 10 3.68 10 3 10 C2.67 9.34 2.34 8.68 2 8 C1.67 8.99 1.34 9.98 1 11 C0.34 11 -0.32 11 -1 11 C-0.67 7.37 -0.34 3.74 0 0 Z " fill="#101010" transform="translate(121,207)"/>
<path d="M0 0 C1.32 0.33 2.64 0.66 4 1 C4 4 4 4 2.46875 5.60546875 C1.8190625 6.12753906 1.169375 6.64960938 0.5 7.1875 C-0.1496875 7.71730469 -0.799375 8.24710938 -1.46875 8.79296875 C-1.9740625 9.19128906 -2.479375 9.58960938 -3 10 C-3.66 9.34 -4.32 8.68 -5 8 C-4.67 7.01 -4.34 6.02 -4 5 C-4 5.66 -4 6.32 -4 7 C-0.47618313 4.45395403 -0.47618313 4.45395403 2 1 C1.34 0.67 0.68 0.34 0 0 Z " fill="#111111" transform="translate(39,179)"/>
<path d="M0 0 C1.65 0 3.3 0 5 0 C5.14285714 7.42857143 5.14285714 7.42857143 4 11 C2.35 11 0.7 11 -1 11 C0.75 7.125 0.75 7.125 3 6 C2.42655063 3.13275314 2.1385485 2.1385485 0 0 Z " fill="#D5D5D5" transform="translate(192,190)"/>
<path d="M0 0 C2.475 0.495 2.475 0.495 5 1 C4.39009109 4.55780196 3.4216319 7.6828589 2 11 C1.34 11 0.68 11 0 11 C0.66 8.03 1.32 5.06 2 2 C1.34 2 0.68 2 0 2 C0 1.34 0 0.68 0 0 Z " fill="#242424" transform="translate(81,204)"/>
<path d="M0 0 C0 0.66 0 1.32 0 2 C-1.65 2.33 -3.3 2.66 -5 3 C-5 3.66 -5 4.32 -5 5 C-3.68 5 -2.36 5 -1 5 C-1 5.66 -1 6.32 -1 7 C-2.65 6.67 -4.3 6.34 -6 6 C-6.33 4.35 -6.66 2.7 -7 1 C-4 0 -4 0 0 0 Z " fill="#151515" transform="translate(207,91)"/>
<path d="M0 0 C1.32 0.99 2.64 1.98 4 3 C3.34 5.31 2.68 7.62 2 10 C1.34 10 0.68 10 0 10 C0 8.35 0 6.7 0 5 C-0.66 4.67 -1.32 4.34 -2 4 C-1.34 2.68 -0.68 1.36 0 0 Z " fill="#4C4C4C" transform="translate(136,16)"/>
<path d="M0 0 C0.66 0.33 1.32 0.66 2 1 C0.04414675 2.00484204 -1.91476237 3.00373805 -3.875 4 C-4.96554688 4.556875 -6.05609375 5.11375 -7.1796875 5.6875 C-10 7 -10 7 -12 7 C-11.67 5.68 -11.34 4.36 -11 3 C-10.01 3.33 -9.02 3.66 -8 4 C-5.96607161 3.21059642 -5.96607161 3.21059642 -3.9375 2 C-1.83984375 0.8125 -1.83984375 0.8125 0 0 Z " fill="#B0B0B0" transform="translate(162,208)"/>
<path d="M0 0 C1.65 0 3.3 0 5 0 C4.67 1.98 4.34 3.96 4 6 C2.68 6 1.36 6 0 6 C0 4.02 0 2.04 0 0 Z " fill="#A4A4A4" transform="translate(215,202)"/>
<path d="M0 0 C1.98 0 3.96 0 6 0 C5.34 1.65 4.68 3.3 4 5 C2.35 5 0.7 5 -1 5 C-0.67 3.35 -0.34 1.7 0 0 Z " fill="#20211F" transform="translate(219,192)"/>
<path d="M0 0 C1.65 0 3.3 0 5 0 C4.01 0.66 3.02 1.32 2 2 C2 2.66 2 3.32 2 4 C2.66 4.66 3.32 5.32 4 6 C3.01 6 2.02 6 1 6 C1 7.32 1 8.64 1 10 C0.34 10 -0.32 10 -1 10 C-1.125 3.375 -1.125 3.375 0 0 Z " fill="#101010" transform="translate(121,12)"/>
<path d="M0 0 C3.91211733 1.15585285 6.8745041 2.35534962 10 5 C9.67 5.66 9.34 6.32 9 7 C7.35 6.67 5.7 6.34 4 6 C4.33 5.34 4.66 4.68 5 4 C2.525 3.01 2.525 3.01 0 2 C0 1.34 0 0.68 0 0 Z " fill="#161616" transform="translate(194,154)"/>
<path d="M0 0 C0.99 0.33 1.98 0.66 3 1 C2.34 2.98 1.68 4.96 1 7 C0.67 6.01 0.34 5.02 0 4 C-1.485 6.475 -1.485 6.475 -3 9 C-3.66 8.67 -4.32 8.34 -5 8 C-3.35 5.36 -1.7 2.72 0 0 Z " fill="#0C0C0C" transform="translate(162,26)"/>
<path d="M0 0 C2.61724095 2.36797991 4.32861729 4.89600354 6 8 C6 8.66 6 9.32 6 10 C3 9 3 9 1.83203125 7.15234375 C1.49558594 6.42144531 1.15914062 5.69054687 0.8125 4.9375 C0.46832031 4.20402344 0.12414062 3.47054687 -0.23046875 2.71484375 C-0.48441406 2.14894531 -0.73835937 1.58304688 -1 1 C-0.67 0.67 -0.34 0.34 0 0 Z " fill="#191919" transform="translate(161,192)"/>
<path d="M0 0 C0.66 0 1.32 0 2 0 C2 0.66 2 1.32 2 2 C2.8971875 2.37125 2.8971875 2.37125 3.8125 2.75 C6.28647521 4.16370012 7.43370255 5.65055383 9 8 C4.66314164 8 3.0556673 5.91985986 0 3 C0 2.01 0 1.02 0 0 Z " fill="#262626" transform="translate(178,177)"/>
<path d="M0 0 C0.33 0.66 0.66 1.32 1 2 C3.02463255 2.65213292 3.02463255 2.65213292 5 3 C5.33 2.01 5.66 1.02 6 0 C6 0.99 6 1.98 6 3 C7.32 3 8.64 3 10 3 C10 3.66 10 4.32 10 5 C6.7 4.67 3.4 4.34 0 4 C0 2.68 0 1.36 0 0 Z " fill="#080808" transform="translate(7,95)"/>
<path d="M0 0 C0.99 0.33 1.98 0.66 3 1 C-1.455 3.97 -1.455 3.97 -6 7 C-6 6.01 -6 5.02 -6 4 C-3.1875 1.75 -3.1875 1.75 0 0 Z " fill="#181818" transform="translate(194,58)"/>
<path d="M0 0 C0.33 0 0.66 0 1 0 C1 1.65 1 3.3 1 5 C1.99 5.33 2.98 5.66 4 6 C3.01 6.33 2.02 6.66 1 7 C0.67 7.66 0.34 8.32 0 9 C-0.66 9 -1.32 9 -2 9 C-1.125 1.125 -1.125 1.125 0 0 Z " fill="#2E2F29" transform="translate(201,201)"/>
<path d="M0 0 C0.33 0.66 0.66 1.32 1 2 C2.32 2 3.64 2 5 2 C5 2.99 5 3.98 5 5 C3.35 5.33 1.7 5.66 0 6 C0 5.34 0 4.68 0 4 C-0.66 4 -1.32 4 -2 4 C-2 3.34 -2 2.68 -2 2 C-1.34 2 -0.68 2 0 2 C0 1.34 0 0.68 0 0 Z " fill="#BCBCBC" transform="translate(205,198)"/>
<path d="M0 0 C1.32 0.33 2.64 0.66 4 1 C3.319375 1.5878125 3.319375 1.5878125 2.625 2.1875 C0.72357081 4.30832487 -0.06204028 6.33042235 -1 9 C-1.99 8.67 -2.98 8.34 -4 8 C-2.68 5.36 -1.36 2.72 0 0 Z " fill="#131313" transform="translate(68,200)"/>
<path d="M0 0 C1.66666667 0 3.33333333 0 5 0 C4 3 4 3 2 4 C2 4.99 2 5.98 2 7 C1.34 7 0.68 7 0 7 C-0.66 5.68 -1.32 4.36 -2 3 C-1.34 2.01 -0.68 1.02 0 0 Z " fill="#999999" transform="translate(54,195)"/>
<path d="M0 0 C1.98 0.495 1.98 0.495 4 1 C4.33 2.65 4.66 4.3 5 6 C4.34 6 3.68 6 3 6 C3 4.68 3 3.36 3 2 C2.34 2 1.68 2 1 2 C1 3.65 1 5.3 1 7 C-0.0625 5.1875 -0.0625 5.1875 -1 3 C-0.67 2.01 -0.34 1.02 0 0 Z " fill="#212121" transform="translate(22,156)"/>
<path d="M0 0 C2.64 0.33 5.28 0.66 8 1 C8.33 2.32 8.66 3.64 9 5 C8.67 4.34 8.34 3.68 8 3 C7.01 3 6.02 3 5 3 C5.33 3.99 5.66 4.98 6 6 C5.34 6 4.68 6 4 6 C4 5.01 4 4.02 4 3 C2.68 2.67 1.36 2.34 0 2 C0 1.34 0 0.68 0 0 Z " fill="#161616" transform="translate(202,127)"/>
<path d="M0 0 C3.73884332 2.65654657 5.64978174 4.58110387 7 9 C6.01 9.33 5.02 9.66 4 10 C1.125 3.375 1.125 3.375 0 0 Z " fill="#1E1E1E" transform="translate(46,32)"/>
<path d="M0 0 C0.99 0.33 1.98 0.66 3 1 C2.67 2.65 2.34 4.3 2 6 C0.35 6 -1.3 6 -3 6 C-3.33 5.01 -3.66 4.02 -4 3 C-2.68 3.33 -1.36 3.66 0 4 C0 2.68 0 1.36 0 0 Z " fill="#1A1A1A" transform="translate(100,16)"/>
<path d="M0 0 C0.99 0 1.98 0 3 0 C2.67 1.32 2.34 2.64 2 4 C0.35 4.33 -1.3 4.66 -3 5 C-3.33 3.68 -3.66 2.36 -4 1 C-3.34 1 -2.68 1 -2 1 C-2 1.66 -2 2.32 -2 3 C-1.34 3 -0.68 3 0 3 C0 2.01 0 1.02 0 0 Z " fill="#2E2E2E" transform="translate(96,213)"/>
<path d="M0 0 C1.2065625 0.0309375 1.2065625 0.0309375 2.4375 0.0625 C1.7775 1.3825 1.1175 2.7025 0.4375 4.0625 C-0.5525 3.7325 -1.5425 3.4025 -2.5625 3.0625 C-2.8925 4.3825 -3.2225 5.7025 -3.5625 7.0625 C-3.60504356 5.06295254 -3.60330783 3.06208364 -3.5625 1.0625 C-2.5625 0.0625 -2.5625 0.0625 0 0 Z " fill="#7C7C7B" transform="translate(209.5625,176.9375)"/>
<path d="M0 0 C2.97 0.495 2.97 0.495 6 1 C6.33 1.99 6.66 2.98 7 4 C4.69 3.67 2.38 3.34 0 3 C0 2.01 0 1.02 0 0 Z " fill="#D2D2D2" transform="translate(200,143)"/>
<path d="M0 0 C2.15377564 2.62198774 3.40072174 4.64404172 4 8 C2.35 8 0.7 8 -1 8 C-0.67 5.36 -0.34 2.72 0 0 Z " fill="#959595" transform="translate(197,192)"/>
<path d="M0 0 C0.33 0.66 0.66 1.32 1 2 C1.99 2.33 2.98 2.66 4 3 C3.34 3 2.68 3 2 3 C2 3.99 2 4.98 2 6 C0.02 6 -1.96 6 -4 6 C-3.525625 5.566875 -3.05125 5.13375 -2.5625 4.6875 C-0.76313043 2.97690387 -0.76313043 2.97690387 0 0 Z " fill="#41413E" transform="translate(214,189)"/>
<path d="M0 0 C0.598125 0.185625 1.19625 0.37125 1.8125 0.5625 C4.16408762 1.22093687 4.16408762 1.22093687 7 0 C6.34 1.32 5.68 2.64 5 4 C3.68 4 2.36 4 1 4 C0.67 2.68 0.34 1.36 0 0 Z " fill="#333333" transform="translate(36,48)"/>
<path d="M0 0 C0.66 0 1.32 0 2 0 C1.34 1.65 0.68 3.3 0 5 C-2.97 4.505 -2.97 4.505 -6 4 C-5.67 3.34 -5.34 2.68 -5 2 C-3.68 2 -2.36 2 -1 2 C-0.67 1.34 -0.34 0.68 0 0 Z " fill="#2A2A2A" transform="translate(20,82)"/>
<path d="M0 0 C1.32 0.33 2.64 0.66 4 1 C3 3 3 3 2 4 C1.67 4.99 1.34 5.98 1 7 C0.01 6.01 -0.98 5.02 -2 4 C-1.34 2.68 -0.68 1.36 0 0 Z " fill="#131313" transform="translate(17,66)"/>
<path d="M0 0 C1.32 0.33 2.64 0.66 4 1 C4 1.66 4 2.32 4 3 C5.65 3.33 7.3 3.66 9 4 C9 4.66 9 5.32 9 6 C6.03 5.505 6.03 5.505 3 5 C2.67 4.01 2.34 3.02 2 2 C1.34 1.34 0.68 0.68 0 0 Z " fill="#121212" transform="translate(25,54)"/>
<path d="M0 0 C1.32 0 2.64 0 4 0 C3.67 1.98 3.34 3.96 3 6 C2.01 6 1.02 6 0 6 C0 4.02 0 2.04 0 0 Z " fill="#9D9D9D" transform="translate(216,214)"/>
<path d="M0 0 C1.0625 1.875 1.0625 1.875 2 4 C1.67 4.66 1.34 5.32 1 6 C-0.32 5.34 -1.64 4.68 -3 4 C-3 3.01 -3 2.02 -3 1 C-2.01 0.67 -1.02 0.34 0 0 Z " fill="#6A6A6A" transform="translate(139,209)"/>
<path d="M0 0 C0.598125 0.350625 1.19625 0.70125 1.8125 1.0625 C0.1625 1.3925 -1.4875 1.7225 -3.1875 2.0625 C-3.5175 3.0525 -3.8475 4.0425 -4.1875 5.0625 C-4.5175 5.0625 -4.8475 5.0625 -5.1875 5.0625 C-5.1875 3.4125 -5.1875 1.7625 -5.1875 0.0625 C-2.1875 -0.9375 -2.1875 -0.9375 0 0 Z " fill="#D7D7D7" transform="translate(203.1875,191.9375)"/>
<path d="M0 0 C2.64 1.98 5.28 3.96 8 6 C4 7 4 7 1.75 5.8125 C0 4 0 4 0 0 Z " fill="#0D0D0D" transform="translate(185,169)"/>
<path d="M0 0 C0.99 0 1.98 0 3 0 C3.33 1.98 3.66 3.96 4 6 C3.34 6 2.68 6 2 6 C1.67 5.01 1.34 4.02 1 3 C0.01 3.33 -0.98 3.66 -2 4 C-1.34 2.68 -0.68 1.36 0 0 Z " fill="#1B1B1B" transform="translate(199,67)"/>
<path d="M0 0 C0.33 0.66 0.66 1.32 1 2 C1.99 1.67 2.98 1.34 4 1 C4 1.99 4 2.98 4 4 C1.69 4.33 -0.62 4.66 -3 5 C-2.01 3.35 -1.02 1.7 0 0 Z " fill="#3C3C3C" transform="translate(171,42)"/>
<path d="M0 0 C0.99 0 1.98 0 3 0 C3 1.32 3 2.64 3 4 C1.35 4.66 -0.3 5.32 -2 6 C-1.34 4.02 -0.68 2.04 0 0 Z " fill="#585858" transform="translate(150,20)"/>
<path d="M0 0 C2 1 4 2 6 3 C6 3.66 6 4.32 6 5 C4.35 4.67 2.7 4.34 1 4 C0.67 2.68 0.34 1.36 0 0 Z " fill="#E3E3E3" transform="translate(187,169)"/>
</svg>
