<?xml version="1.0" encoding="UTF-8"?>
<svg version="1.1" xmlns="http://www.w3.org/2000/svg" width="250" height="250">
<path d="M0 0 C1.35385043 1.1427939 2.68810167 2.30928103 4 3.5 C4.68320313 4.10328125 5.36640625 4.7065625 6.0703125 5.328125 C18.40696966 16.86735565 26.66094136 33.9358451 27.25 50.8359375 C27.28187683 52.78630911 27.30261489 54.73689296 27.3125 56.6875 C27.31805908 57.61409424 27.32361816 58.54068848 27.3293457 59.49536133 C27.17446484 74.32553516 27.17446484 74.32553516 24 77.5 C21.63343763 77.61339222 19.29721057 77.66417635 16.9296875 77.66796875 C15.85800827 77.67296135 15.85800827 77.67296135 14.76467896 77.67805481 C13.24644618 77.68312999 11.72820219 77.68546295 10.20996094 77.68530273 C7.9054061 77.68747139 5.60134389 77.70557031 3.296875 77.72460938 C1.82031413 77.7275469 0.34375099 77.72952929 -1.1328125 77.73046875 C-2.1566655 77.74124702 -2.1566655 77.74124702 -3.20120239 77.75224304 C-6.68803936 77.73591294 -9.44545688 77.3665802 -12.80419922 76.3605957 C-13.85881348 76.07659912 -14.91342773 75.79260254 -16 75.5 C-16.99 76.16 -17.98 76.82 -19 77.5 C-22.81546222 77.8468602 -25.13278796 78.03366895 -28.4375 76 C-28.953125 75.505 -29.46875 75.01 -30 74.5 C-30.639375 74.995 -31.27875 75.49 -31.9375 76 C-37.15543293 78.55572225 -42.41516977 78.14481785 -47.875 76.375 C-48.90625 76.08625 -49.9375 75.7975 -51 75.5 C-51.99 76.16 -52.98 76.82 -54 77.5 C-57.375 78 -57.375 78 -61 77.5 C-64.71632537 74.14018258 -66.26988446 71.92803211 -66.6015625 66.8984375 C-66.63315117 65.22423809 -66.64045624 63.54942606 -66.625 61.875 C-66.46190936 55.70117394 -66.46190936 55.70117394 -68.34375 49.97265625 C-70.8293478 47.76258462 -72.71158726 47.56576825 -76 47.5 C-78.32731556 48.63779872 -80.16840714 49.66840714 -82 51.5 C-82.38155485 54.77532727 -82.72016806 58.04735614 -82.98632812 61.33398438 C-83.59786259 67.194974 -85.59763741 71.01183875 -89.75 75.3125 C-93.10188595 77.08155092 -96.23357502 77.18613125 -100 77.5 C-100.66 76.18 -101.32 74.86 -102 73.5 C-100 70.5 -100 70.5 -96.5 69.1875 C-92.83440841 67.87844718 -92.83440841 67.87844718 -91.7890625 64.86206055 C-90.91000275 61.11653709 -90.80583144 57.86535106 -90.875 54.01953125 C-90.88257324 53.32486252 -90.89014648 52.63019379 -90.89794922 51.91447449 C-90.92221219 49.7135533 -90.9594834 47.51317819 -91 45.3125 C-91.05319376 42.40235828 -91.09313884 39.49247577 -91.125 36.58203125 C-91.14820312 35.29530518 -91.17140625 34.0085791 -91.1953125 32.68286133 C-91 29.5 -91 29.5 -89 26.5 C-87.35 26.83 -85.7 27.16 -84 27.5 C-83.505 34.43 -83.505 34.43 -83 41.5 C-81.35 40.84 -79.7 40.18 -78 39.5 C-72.90898638 38.92365884 -69.43257695 39.86185374 -64.89453125 41.94140625 C-61.27419399 44.9197868 -59.27871076 48.33961384 -58.68481445 52.94311523 C-58.60762271 55.61934539 -58.64984438 58.26218918 -58.75 60.9375 C-58.76804688 61.85982422 -58.78609375 62.78214844 -58.8046875 63.73242188 C-58.85146399 65.98938733 -58.91698129 68.24412612 -59 70.5 C-58.01 70.17 -57.02 69.84 -56 69.5 C-55.67 59.93 -55.34 50.36 -55 40.5 C-52.525 40.005 -52.525 40.005 -50 39.5 C-47.41276794 42.08723206 -47.7135558 43.23858058 -47.62109375 46.83984375 C-47.58693359 47.90267578 -47.55277344 48.96550781 -47.51757812 50.06054688 C-47.47793945 51.73213867 -47.47793945 51.73213867 -47.4375 53.4375 C-47.37757776 55.63422385 -47.31394424 57.83085049 -47.24609375 60.02734375 C-47.22216553 61.00437256 -47.1982373 61.98140137 -47.17358398 62.98803711 C-47.096374 65.62766901 -47.096374 65.62766901 -46 68.5 C-44.61135566 68.80556226 -43.21318736 69.06800808 -41.8125 69.3125 C-40.64654297 69.53873047 -40.64654297 69.53873047 -39.45703125 69.76953125 C-36.81110199 69.65943812 -36.81110199 69.65943812 -34.24609375 67.77734375 C-30.85394305 62.82775342 -31.25688849 58.11899671 -31.25 52.25 C-31.21700703 50.05723679 -31.18073435 47.86451959 -31.140625 45.671875 C-31.13579102 44.7034668 -31.13095703 43.73505859 -31.12597656 42.73730469 C-31 40.5 -31 40.5 -30 39.5 C-27.5 39.375 -27.5 39.375 -25 39.5 C-24 40.5 -24 40.5 -23.88647461 43.36743164 C-23.89432983 45.24483032 -23.89432983 45.24483032 -23.90234375 47.16015625 C-23.9037587 47.82462265 -23.90517365 48.48908905 -23.90663147 49.1736908 C-23.91224482 51.30333899 -23.92479946 53.43288339 -23.9375 55.5625 C-23.94251329 57.00325369 -23.94707649 58.44400903 -23.95117188 59.88476562 C-23.96221855 63.42321102 -23.97949208 66.96159539 -24 70.5 C-23.01 70.5 -22.02 70.5 -21 70.5 C-21.01047363 69.23816895 -21.02094727 67.97633789 -21.03173828 66.67626953 C-21.06786899 62.00605086 -21.09087516 57.33584461 -21.10986328 52.66552734 C-21.11993671 50.64206873 -21.13359595 48.61862472 -21.15087891 46.59521484 C-21.17506847 43.69104411 -21.18646949 40.78706539 -21.1953125 37.8828125 C-21.20563507 36.97443634 -21.21595764 36.06606018 -21.22659302 35.13015747 C-21.22674408 34.28943695 -21.22689514 33.44871643 -21.22705078 32.58251953 C-21.231492 31.84083527 -21.23593323 31.099151 -21.24050903 30.33499146 C-21 28.5 -21 28.5 -19 26.5 C-17.35 26.83 -15.7 27.16 -14 27.5 C-14 32.12 -14 36.74 -14 41.5 C-12.68 40.84 -11.36 40.18 -10 39.5 C-4.45062805 38.70059299 0.81088509 38.89930657 5.52734375 42.1328125 C9.51133799 45.83148089 10.82871223 49.58114334 11.30859375 54.95703125 C11.40942585 60.62142303 11.44569841 65.30533657 9 70.5 C11.97 70.5 14.94 70.5 18 70.5 C20.49250373 51.18309606 17.64275537 33.28533431 5.72265625 17.48046875 C3.57429343 15.0309679 1.35631787 12.74842785 -1 10.5 C-1.53882813 9.94183594 -2.07765625 9.38367188 -2.6328125 8.80859375 C-14.36807339 -2.48438344 -30.62213704 -6.001539 -46.30761719 -5.84741211 C-52.9537889 -5.66767362 -58.82647973 -5.12308372 -65 -2.5 C-65.60118652 -2.24718262 -66.20237305 -1.99436523 -66.82177734 -1.73388672 C-83.40610772 5.41181233 -94.40057219 15.75995227 -101.75 32.4375 C-104.08679173 38.32189634 -105.65256456 44.32151554 -107 50.5 C-109.31 50.5 -111.62 50.5 -114 50.5 C-114.52555614 33.89242584 -105.97009949 18.48050339 -95 6.5 C-69.95365398 -19.75983178 -28.52574897 -21.40658615 0 0 Z M-10.8125 47.8125 C-14.20469535 51.98005429 -14.2599073 56.24244665 -14 61.5 C-13.23537522 65.00608438 -12.03642559 67.61163521 -9.25 70 C-5.82454803 70.76121155 -3.38170343 70.40581342 0 69.5 C2.68944108 67.78904021 2.68944108 67.78904021 4 64.5 C4.744459 58.95109427 5.00803867 54.21366574 2.125 49.3125 C-0.40942424 47.15078521 -1.48965139 46.5567054 -4.8125 46.1875 C-8.03109352 46.32473671 -8.03109352 46.32473671 -10.8125 47.8125 Z " fill="#EE4823" transform="translate(183,68.5)"/>
<path d="M0 0 C2.31 0 4.62 0 7 0 C7.27972656 1.14855469 7.55945313 2.29710937 7.84765625 3.48046875 C12.36314231 21.28086866 19.53538113 36.0499992 35.40234375 46.47265625 C39.79258185 49.05398422 44.25346037 51.15936744 49 53 C49.804375 53.32097656 50.60875 53.64195312 51.4375 53.97265625 C66.89994122 59.1670701 84.49474093 56.58899023 99 50 C112.91926655 42.69430761 122.43438394 31.18173068 129 17 C131.64 17 134.28 17 137 17 C134.77426793 31.73868923 122.17528096 44.5338056 110.78125 53.1875 C94.14286362 64.03049337 74.25549842 67.98232912 54.75219727 63.91943359 C36.75559709 59.58760958 21.43287968 49.39183529 11 34 C4.85663549 23.66956795 -0.81967798 12.29516971 0 0 Z " fill="#818385" transform="translate(69,131)"/>
<path d="M0 0 C2.375 -0.1875 2.375 -0.1875 5 0 C7.13586678 3.20380017 7.23132175 4.01939967 7.125 7.6875 C7.10695313 8.49574219 7.08890625 9.30398437 7.0703125 10.13671875 C7.03550781 11.05904297 7.03550781 11.05904297 7 12 C8.39025391 11.98259766 8.39025391 11.98259766 9.80859375 11.96484375 C11.00613281 11.95582031 12.20367187 11.94679688 13.4375 11.9375 C14.63246094 11.92589844 15.82742187 11.91429688 17.05859375 11.90234375 C20 12 20 12 21 13 C21 14.65 21 16.3 21 18 C16.05 18 11.1 18 6 18 C6.11464015 20.70912781 6.24137154 23.41679661 6.375 26.125 C6.4059375 26.88554688 6.436875 27.64609375 6.46875 28.4296875 C6.70066939 32.91346235 7.14223623 36.84214776 9 41 C12.28989056 43.19326037 13.76708395 43.32328885 17.625 43.5625 C22.90182328 43.90182328 22.90182328 43.90182328 24 45 C24.125 47.5 24.125 47.5 24 50 C22.15882698 51.84117302 19.34983191 51.25894441 16.875 51.3125 C10.86766576 51.2335427 7.55938198 50.97733322 3 47 C-2.36755519 39.67398173 -1.50978222 30.66686244 -1.35668945 22.05004883 C-1.31217544 19.54422949 -1.29517565 17.03937107 -1.28320312 14.53320312 C-1.26979462 12.94009022 -1.25487597 11.34698915 -1.23828125 9.75390625 C-1.23089432 9.00500626 -1.22350739 8.25610626 -1.21589661 7.48451233 C-1.11850188 2.23700376 -1.11850188 2.23700376 0 0 Z " fill="#818385" transform="translate(41,95)"/>
<path d="M0 0 C1.17433594 0.01417969 2.34867187 0.02835937 3.55859375 0.04296875 C5.32396484 0.05263672 5.32396484 0.05263672 7.125 0.0625 C9.99609375 0.23046875 9.99609375 0.23046875 10.99609375 1.23046875 C11.12109375 3.73046875 11.12109375 3.73046875 10.99609375 6.23046875 C9.99609375 7.23046875 9.99609375 7.23046875 6.8359375 7.328125 C4.90427734 7.31072266 4.90427734 7.31072266 2.93359375 7.29296875 C1.64324219 7.28394531 0.35289063 7.27492187 -0.9765625 7.265625 C-1.97558594 7.25402344 -2.97460938 7.24242187 -4.00390625 7.23046875 C-4.62890625 4.85546875 -4.62890625 4.85546875 -5.00390625 2.23046875 C-3.00390625 0.23046875 -3.00390625 0.23046875 0 0 Z " fill="#818385" transform="translate(70.00390625,120.76953125)"/>
</svg>
