<?xml version="1.0" encoding="UTF-8"?>
<svg version="1.1" xmlns="http://www.w3.org/2000/svg" width="200" height="200">
<path d="M0 0 C66 0 132 0 200 0 C200 66 200 132 200 200 C134 200 68 200 0 200 C0 134 0 68 0 0 Z " fill="#105573" transform="translate(0,0)"/>
<path d="M0 0 C3.23570288 0.73064259 4.31242464 1.19228379 6.453125 3.70703125 C7.34257812 4.74923828 7.34257812 4.74923828 8.25 5.8125 C8.83265625 6.49957031 9.4153125 7.18664062 10.015625 7.89453125 C13.61276623 11.71118307 17.63747098 14.45927381 22.125 17.125 C36.48039233 26.2444417 46.47886831 38.42251714 51 55 C54.47545587 72.37727937 50.83832927 89.01904495 41.21875 103.72265625 C36.46297415 110.18388451 31.04247037 114.23844312 24 118 C23.37867187 118.3609375 22.75734375 118.721875 22.1171875 119.09375 C13.92371184 123.06189068 1.51016934 122.20068844 -7 119.5 C-14.00397227 116.48306826 -20.75291171 111.05242028 -24.3125 104.1875 C-25.62237452 100.01971742 -25.87776763 95.64394915 -26.21484375 91.3046875 C-27.23879677 86.99491508 -28.36820287 85.54504454 -32 83 C-35.29658567 82.20870166 -38.55773616 82.02761861 -41.9375 81.875 C-54.49702394 81.19511355 -54.49702394 81.19511355 -59.64453125 76.5 C-65.12905489 69.45633085 -64.78716787 61.58976 -64 53 C-61.83973578 43.43143836 -56.74383043 34.1083618 -50 27 C-49.34 27 -48.68 27 -48 27 C-48 26.34 -48 25.68 -48 25 C-34.47074504 13.18528196 -19.58677127 8.55539061 -2 9 C-2 9.66 -2 10.32 -2 11 C0.49552484 10.21869929 0.49552484 10.21869929 3 9 C3.33 8.01 3.66 7.02 4 6 C3.01 5.67 2.02 5.34 1 5 C0.505 2.525 0.505 2.525 0 0 Z " fill="#0F5B7C" transform="translate(104,11)"/>
<path d="M0 0 C0.99 0.33 1.98 0.66 3 1 C2.32904297 1.80050781 2.32904297 1.80050781 1.64453125 2.6171875 C-5.2654435 11.13310521 -9.58835531 18.04023389 -9.46875 29.23828125 C-8.90080447 32.58442699 -8.15560663 34.36291566 -6 37 C-0.98402745 39.58189321 2.68248979 40.36168107 8.40234375 40.3359375 C9.80143695 40.34844777 11.20052552 40.3614848 12.59960938 40.375 C14.76961879 40.37892274 16.93916549 40.37498877 19.10913086 40.36035156 C35.22316257 40.29461727 35.22316257 40.29461727 41 46 C42.21783897 48.43567795 42.07105491 49.8986233 41.9921875 52.61328125 C41.97542969 53.53173828 41.95867187 54.45019531 41.94140625 55.39648438 C41.89739771 57.32897681 41.84541014 59.26130523 41.78515625 61.19335938 C41.68853612 67.47805972 42.33542758 70.89133218 46.5 75.75 C49.89732296 78.58110247 54.02045346 78.3817832 58.2265625 78.36328125 C62.26135897 77.83477974 65.35674215 76.17140209 68.87109375 74.19140625 C71 73 71 73 74 72 C74.70674629 70.68747118 75.36184656 69.34721283 76 68 C76.78375 67.030625 77.5675 66.06125 78.375 65.0625 C86.16281842 54.03938609 86.38781894 39.96383219 85 27 C83.42427861 17.91334001 79.92899665 10.25007479 73 4 C76 4 76 4 77.98046875 5.625 C89.87571752 18.42555089 95.56803415 32.89103031 95.24609375 50.3515625 C94.23097529 65.40109655 88.79765977 79.25809406 78 90 C74.50332329 92.70545789 70.89609959 94.91899725 67 97 C66.37867187 97.3609375 65.75734375 97.721875 65.1171875 98.09375 C56.92371184 102.06189068 44.51016934 101.20068844 36 98.5 C28.99602773 95.48306826 22.24708829 90.05242028 18.6875 83.1875 C17.37762548 79.01971742 17.12223237 74.64394915 16.78515625 70.3046875 C15.76120323 65.99491508 14.63179713 64.54504454 11 62 C7.70341433 61.20870166 4.44226384 61.02761861 1.0625 60.875 C-11.49702394 60.19511355 -11.49702394 60.19511355 -16.64453125 55.5 C-22.12905489 48.45633085 -21.78716787 40.58976 -21 32 C-18.83973578 22.43143836 -13.74383043 13.1083618 -7 6 C-6.34 6 -5.68 6 -5 6 C-5 5.34 -5 4.68 -5 4 C-2.6875 1.8125 -2.6875 1.8125 0 0 Z " fill="#1DC2E0" transform="translate(61,32)"/>
<path d="M0 0 C1.17198241 2.31404186 2.27197014 4.62164603 3.3125 7 C5.5575692 10.99123414 7.62483316 13.25859278 12.08984375 14.65234375 C18.03193323 15.97173801 23.94569948 16.29817952 30.01953125 16.4609375 C33.70062957 17.12671937 35.37301539 18.37301539 38 21 C39.1540156 24.52278446 39.83099288 27.80365749 40.34765625 31.4609375 C41.54386404 39.00982163 44.19220259 43.8845294 50.1484375 48.7578125 C57.12970537 53.68997103 63.8544561 55.38935026 72.3125 55.375 C73.42637085 55.37802124 73.42637085 55.37802124 74.56274414 55.38110352 C80.00128788 55.28101489 84.32284229 54.26949544 89.21484375 51.77734375 C89.80394531 51.52082031 90.39304687 51.26429687 91 51 C91.66 51.33 92.32 51.66 93 52 C76.57384824 61.11177111 59.62577108 64.82785427 41.125 60.375 C26.42316499 55.94747991 14.76136511 46.22599972 7 33 C1.03147674 21.63440783 -0.32388601 12.81149094 0 0 Z " fill="#010405" transform="translate(39,76)"/>
<path d="M0 0 C4.55174648 4.55174648 4.16823832 12.64979203 4.3125 18.75 C4.01093132 35.10566584 -1.25020969 50.31087986 -13 62 C-16.49667671 64.70545789 -20.10390041 66.91899725 -24 69 C-24.62132812 69.3609375 -25.24265625 69.721875 -25.8828125 70.09375 C-34.07628816 74.06189068 -46.48983066 73.20068844 -55 70.5 C-61.98409986 67.49162822 -68.7792937 62.05910369 -72.30078125 55.19140625 C-73.64524841 50.97774101 -74.04234371 46.59098732 -74.5078125 42.20703125 C-74.94974665 39.32744448 -75.51714522 37.46938214 -77 35 C-75.35 35.33 -73.7 35.66 -72 36 C-72.020625 37.093125 -72.04125 38.18625 -72.0625 39.3125 C-72.18544452 42.94384191 -72.18544452 42.94384191 -71 46 C-70.96045766 48.33299825 -70.95598268 50.66708189 -71 53 C-70.21625 52.938125 -69.4325 52.87625 -68.625 52.8125 C-67.325625 52.9053125 -67.325625 52.9053125 -66 53 C-63.84449819 56.23325272 -64 57.31199218 -64 61 C-62.68 61.33 -61.36 61.66 -60 62 C-60 62.66 -60 63.32 -60 64 C-59.01 63.01 -58.02 62.02 -57 61 C-56.896875 61.598125 -56.79375 62.19625 -56.6875 62.8125 C-55.87568285 65.39555457 -55.07918366 66.2874581 -53 68 C-43.75419216 71.21878923 -34.37922429 69.94425736 -25.5625 65.875 C-25.046875 65.58625 -24.53125 65.2975 -24 65 C-24.0825 64.2575 -24.165 63.515 -24.25 62.75 C-24 60 -24 60 -22.4375 57.875 C-20 56 -20 56 -16.5 54.5625 C-12.65144957 52.84439713 -11.30674517 51.46011775 -9 48 C-8.505 47.278125 -8.01 46.55625 -7.5 45.8125 C-3.11125539 37.58360386 -1.3209885 30.34076549 -1 21 C-0.01 20.67 0.98 20.34 2 20 C1.34 13.4 0.68 6.8 0 0 Z " fill="#30C1CE" transform="translate(152,60)"/>
<path d="M0 0 C2.47923801 -0.02685095 4.9581884 -0.04676547 7.4375 -0.0625 C8.14455078 -0.07087891 8.85160156 -0.07925781 9.58007812 -0.08789062 C11.38693559 -0.09653588 13.19387603 -0.05220011 15 0 C16.66342837 1.66342837 16.36048097 3.7825709 16.5625 6.0625 C16.68818359 7.44115234 16.68818359 7.44115234 16.81640625 8.84765625 C16.87699219 9.55792969 16.93757813 10.26820313 17 11 C17.99 11.33 18.98 11.66 20 12 C19.814375 11.13375 19.62875 10.2675 19.4375 9.375 C18.99332067 5.94847372 19.28045508 3.35787629 20 0 C21.875 0.1875 21.875 0.1875 24 1 C25.25 3.5625 25.25 3.5625 26 6 C27.95216435 4.04783565 28.84826645 2.46800047 30 0 C30.99 0 31.98 0 33 0 C33 0.66 33 1.32 33 2 C32.34 2 31.68 2 31 2 C30.63536268 3.74784829 30.2836922 5.49840502 29.9375 7.25 C29.74027344 8.22453125 29.54304688 9.1990625 29.33984375 10.203125 C29.01093396 12.91001474 29.31126532 14.425713 30 17 C28.6875 19.25 28.6875 19.25 27 21 C26.34 21 25.68 21 25 21 C25 21.99 25 22.98 25 24 C23.02 24 21.04 24 19 24 C18.06576355 20.98968256 17.95550089 20.13349732 19 17 C18.34 17.33 17.68 17.66 17 18 C17 19.98 17 21.96 17 24 C15.68 24 14.36 24 13 24 C13 23.01 13 22.02 13 21 C12.34 21 11.68 21 11 21 C11 21.99 11 22.98 11 24 C5.375 24.25 5.375 24.25 2 22 C2 21.01 2 20.02 2 19 C2.99 19 3.98 19 5 19 C5 18.01 5 17.02 5 16 C6.65 16.33 8.3 16.66 10 17 C10 15.35 10 13.7 10 12 C10.99 12 11.98 12 13 12 C12.67 10.02 12.34 8.04 12 6 C10.68 6.33 9.36 6.66 8 7 C8.33 8.32 8.66 9.64 9 11 C6.23735711 11.59732819 3.83967231 12 1 12 C0.67 8.04 0.34 4.08 0 0 Z " fill="#13516C" transform="translate(70,153)"/>
<path d="M0 0 C0.99 0.33 1.98 0.66 3 1 C2.32904297 1.80050781 2.32904297 1.80050781 1.64453125 2.6171875 C-5.2654435 11.13310521 -9.58835531 18.04023389 -9.46875 29.23828125 C-8.90080447 32.58442699 -8.15560663 34.36291566 -6 37 C-0.98402745 39.58189321 2.68248979 40.36168107 8.40234375 40.3359375 C9.80143695 40.34844777 11.20052552 40.3614848 12.59960938 40.375 C14.76961879 40.37892274 16.93916549 40.37498877 19.10913086 40.36035156 C35.22316257 40.29461727 35.22316257 40.29461727 41 46 C42.21783897 48.43567795 42.07105491 49.8986233 41.9921875 52.61328125 C41.97542969 53.53173828 41.95867187 54.45019531 41.94140625 55.39648438 C41.89739771 57.32897681 41.84541014 59.26130523 41.78515625 61.19335938 C41.67179387 68.0783838 41.67179387 68.0783838 45 74 C45.8353125 75.1446875 45.8353125 75.1446875 46.6875 76.3125 C47.120625 76.869375 47.55375 77.42625 48 78 C45 79 45 79 42 78 C40.359375 76.51171875 40.359375 76.51171875 38.75 74.6875 C38.20859375 74.09324219 37.6671875 73.49898438 37.109375 72.88671875 C36 71 36 71 36.140625 68.83203125 C36.56601563 67.92517578 36.56601563 67.92517578 37 67 C37.99 66.67 38.98 66.34 40 66 C40 60.06 40 54.12 40 48 C39.34 48 38.68 48 38 48 C38 47.34 38 46.68 38 46 C34.57806055 43.91221109 31.98991526 43.78750512 28.01953125 43.875 C26.85486328 43.89046875 25.69019531 43.9059375 24.49023438 43.921875 C22.05793386 43.97354362 19.62564198 44.02562025 17.19335938 44.078125 C8.5221832 44.19265897 0.91339424 43.74504558 -6.9375 39.8125 C-9.06203907 38.70723197 -9.06203907 38.70723197 -11 38 C-11.99 38.495 -11.99 38.495 -13 39 C-13.66 37.02 -14.32 35.04 -15 33 C-15.66 33 -16.32 33 -17 33 C-17.33 33.66 -17.66 34.32 -18 35 C-18.56488332 28.50384187 -16.68320968 23.86138036 -14 18 C-13.59136719 17.07832031 -13.18273438 16.15664063 -12.76171875 15.20703125 C-9.2409887 7.65326678 -9.2409887 7.65326678 -5 6 C-5 5.34 -5 4.68 -5 4 C-2.6875 1.8125 -2.6875 1.8125 0 0 Z " fill="#0DB9EB" transform="translate(61,32)"/>
<path d="M0 0 C3.9057622 3.73594645 3.9057622 3.73594645 4.14526367 6.94848633 C4.1702364 9.57008539 4.18976325 12.19075535 4.1875 14.8125 C4.1862915 16.23369141 4.1862915 16.23369141 4.18505859 17.68359375 C4.10756029 26.60653558 3.85632502 35.78616692 0 44 C-0.804375 44.78375 -1.60875 45.5675 -2.4375 46.375 C-5.24069922 48.88491551 -5.24069922 48.88491551 -6.3125 52.625 C-8.13735683 56.27471365 -8.41758891 56.52700823 -12 57.8125 C-12.680625 58.00457031 -13.36125 58.19664063 -14.0625 58.39453125 C-16.29207444 58.99157654 -16.29207444 58.99157654 -19 61 C-21.33199388 61.07905064 -23.66832622 61.08798769 -26 61 C-26 60.01 -26 59.02 -26 58 C-25.38511719 57.84144531 -24.77023438 57.68289062 -24.13671875 57.51953125 C-18.83234579 56.09705725 -18.83234579 56.09705725 -15.0625 52.3125 C-14.711875 51.549375 -14.36125 50.78625 -14 50 C-13.34 50 -12.68 50 -12 50 C-11.773125 49.484375 -11.54625 48.96875 -11.3125 48.4375 C-10 46 -10 46 -7.625 43.0625 C1.15355196 30.54397324 -0.18964242 14.60083127 0 0 Z " fill="#0ABCF0" transform="translate(147,54)"/>
<path d="M0 0 C1.8125 1.5 1.8125 1.5 3 3 C3.99 2.67 4.98 2.34 6 2 C6 1.34 6 0.68 6 0 C8.97 0 11.94 0 15 0 C15 1.32 15 2.64 15 4 C14.34 4 13.68 4 13 4 C13 3.34 13 2.68 13 2 C12.34 2 11.68 2 11 2 C10.67 5.3 10.34 8.6 10 12 C9.01 12 8.02 12 7 12 C6.67 11.01 6.34 10.02 6 9 C5.01 9.33 4.02 9.66 3 10 C2.26676204 12.01508358 2.26676204 12.01508358 2 14 C0.35 14.33 -1.3 14.66 -3 15 C-2.01 16.65 -1.02 18.3 0 20 C1.98 19.67 3.96 19.34 6 19 C6.33 18.01 6.66 17.02 7 16 C7 18.64 7 21.28 7 24 C1 24 -5 24 -11 24 C-10.67 22.35 -10.34 20.7 -10 19 C-8.68 19 -7.36 19 -6 19 C-6.144375 17.700625 -6.28875 16.40125 -6.4375 15.0625 C-6.55931641 13.96615234 -6.55931641 13.96615234 -6.68359375 12.84765625 C-6.81886614 10.98859771 -6.81886614 10.98859771 -8 10 C-8.4626087 3.75478261 -8.4626087 3.75478261 -6.8125 1.0625 C-4.33950907 -0.38718434 -2.82115488 -0.42317323 0 0 Z " fill="#23556B" transform="translate(115,153)"/>
<path d="M0 0 C0.33 0.66 0.66 1.32 1 2 C0.0390625 4.06640625 0.0390625 4.06640625 -1.375 6.5625 C-3.98149333 11.52277955 -4.73059628 15.43232308 -5 21 C-3.68 21 -2.36 21 -1 21 C0.28571429 29.42857143 0.28571429 29.42857143 -1 34 C-0.34 34 0.32 34 1 34 C1 35.98 1 37.96 1 40 C0.34 40 -0.32 40 -1 40 C-0.67 41.32 -0.34 42.64 0 44 C1.98 44 3.96 44 6 44 C6 44.66 6 45.32 6 46 C6.928125 45.505 7.85625 45.01 8.8125 44.5 C12 43 12 43 15 43 C15.33 43.66 15.66 44.32 16 45 C16.928125 45.144375 17.85625 45.28875 18.8125 45.4375 C22.11872927 46.02095222 23.60678442 46.69883117 26 49 C26 49.66 26 50.32 26 51 C25.01 50.67 24.02 50.34 23 50 C21.51804599 49.82233936 20.03126001 49.68318466 18.54296875 49.5703125 C17.67736328 49.49683594 16.81175781 49.42335937 15.91992188 49.34765625 C14.11056833 49.20021786 12.30065371 49.05949796 10.49023438 48.92578125 C4.63921801 48.41397997 -0.13821674 47.61027262 -4.64453125 43.5 C-10.12905489 36.45633085 -9.78716787 28.58976 -9 20 C-7.36324343 12.75023585 -3.81178148 6.32693238 0 0 Z " fill="#24BED7" transform="translate(49,44)"/>
<path d="M0 0 C2.475 0.495 2.475 0.495 5 1 C4.979375 2.093125 4.95875 3.18625 4.9375 4.3125 C4.81455548 7.94384191 4.81455548 7.94384191 6 11 C6.03954234 13.33299825 6.04401732 15.66708189 6 18 C6.78375 17.938125 7.5675 17.87625 8.375 17.8125 C9.674375 17.9053125 9.674375 17.9053125 11 18 C13.15550181 21.23325272 13 22.31199218 13 26 C14.32 26.33 15.64 26.66 17 27 C17 27.66 17 28.32 17 29 C17.99 28.01 18.98 27.02 20 26 C20.103125 26.598125 20.20625 27.19625 20.3125 27.8125 C21.12431715 30.39555457 21.92081634 31.2874581 24 33 C33.86009775 36.43264504 43.39004163 34.5349815 52.75 30.375 C56 29 56 29 59 29 C59 28.01 59 27.02 59 26 C59.99 26 60.98 26 62 26 C62.33 24.35 62.66 22.7 63 21 C64.32 21.99 65.64 22.98 67 24 C54.40000843 34.6376978 44.43188694 38.34271331 28 37 C18.2195786 35.15219475 11.57293295 29.58068326 5.5625 21.875 C3.24804642 17.3612919 3.02018366 12.179893 2.4921875 7.20703125 C2.05025335 4.32744448 1.48285478 2.46938214 0 0 Z " fill="#39B7B8" transform="translate(75,95)"/>
<path d="M0 0 C3.23570288 0.73064259 4.31242464 1.19228379 6.453125 3.70703125 C7.04609375 4.40183594 7.6390625 5.09664062 8.25 5.8125 C8.83265625 6.49957031 9.4153125 7.18664062 10.015625 7.89453125 C14.54402069 12.69926605 19.9734819 15.91352283 25.57421875 19.31640625 C28 21 28 21 30 24 C25.40721195 21.80874209 21.1256646 19.0946547 16.77734375 16.4609375 C14.08051167 14.7672294 14.08051167 14.7672294 11 15 C11 14.34 11 13.68 11 13 C10.01 12.67 9.02 12.34 8 12 C8 11.34 8 10.68 8 10 C6.68 10.33 5.36 10.66 4 11 C3.814375 12.423125 3.814375 12.423125 3.625 13.875 C3 17 3 17 1 19 C-0.32 19 -1.64 19 -3 19 C-3.391875 17.865625 -3.78375 16.73125 -4.1875 15.5625 C-5.54969449 11.87700026 -5.54969449 11.87700026 -8.203125 11.2109375 C-19.57032427 10.35363476 -30.78257533 15.85505022 -40 22 C-40 21.01 -40 20.02 -40 19 C-37.50494359 17.69796813 -35.00462318 16.40839734 -32.5 15.125 C-31.45585938 14.57779297 -31.45585938 14.57779297 -30.390625 14.01953125 C-23.07505497 10.29400948 -16.76643688 8.71603006 -8.5 8.875 C-7.2728125 8.89304687 -6.045625 8.91109375 -4.78125 8.9296875 C-3.8634375 8.95289063 -2.945625 8.97609375 -2 9 C-2 9.66 -2 10.32 -2 11 C0.49552484 10.21869929 0.49552484 10.21869929 3 9 C3.33 8.01 3.66 7.02 4 6 C3.01 5.67 2.02 5.34 1 5 C0.505 2.525 0.505 2.525 0 0 Z " fill="#1C7CA0" transform="translate(104,11)"/>
<path d="M0 0 C0.2475 0.61875 0.495 1.2375 0.75 1.875 C2.20628639 4.35068687 3.37812506 4.95125002 6 6 C6 6.66 6 7.32 6 8 C7.32 8 8.64 8 10 8 C10 8.66 10 9.32 10 10 C11.32 9.67 12.64 9.34 14 9 C14 9.66 14 10.32 14 11 C10.62902617 12.49821059 8.79557881 13 5 13 C4.67 12.01 4.34 11.02 4 10 C3.34 10 2.68 10 2 10 C2 11.98 2 13.96 2 16 C2.99 15.67 3.98 15.34 5 15 C5.33 16.32 5.66 17.64 6 19 C4.35 19.99 2.7 20.98 1 22 C0.34 20.35 -0.32 18.7 -1 17 C-0.34 17 0.32 17 1 17 C0.67 15.02 0.34 13.04 0 11 C-1.98 11.33 -3.96 11.66 -6 12 C-6.33 12.99 -6.66 13.98 -7 15 C-7.66 12.36 -8.32 9.72 -9 7 C-7 6 -5 5 -3 4 C-3 3.34 -3 2.68 -3 2 C-2.01 1.34 -1.02 0.68 0 0 Z " fill="#144E66" transform="translate(121,161)"/>
<path d="M0 0 C0.33 0 0.66 0 1 0 C0.95359375 1.14597656 0.9071875 2.29195313 0.859375 3.47265625 C0.82183091 5.00257791 0.78543359 6.53252801 0.75 8.0625 C0.71648438 8.81466797 0.68296875 9.56683594 0.6484375 10.34179688 C0.54922592 16.07126543 1.67584746 19.30672708 5 24 C8.4352048 26.29013653 9.985331 26.17842973 14 26 C14 26.66 14 27.32 14 28 C14.928125 27.505 15.85625 27.01 16.8125 26.5 C20 25 20 25 23 25 C23.33 25.66 23.66 26.32 24 27 C24.928125 27.144375 25.85625 27.28875 26.8125 27.4375 C30.11872927 28.02095222 31.60678442 28.69883117 34 31 C34 31.66 34 32.32 34 33 C33.01 32.67 32.02 32.34 31 32 C29.51804599 31.82233936 28.03126001 31.68318466 26.54296875 31.5703125 C25.67736328 31.49683594 24.81175781 31.42335938 23.91992188 31.34765625 C22.11056833 31.20021786 20.30065371 31.05949796 18.49023438 30.92578125 C12.63921801 30.41397997 7.86178326 29.61027262 3.35546875 25.5 C-0.74767332 20.23041286 -1.15945922 16.43306315 -1.125 9.9375 C-1.12886719 9.20466797 -1.13273437 8.47183594 -1.13671875 7.71679688 C-1.12668491 2.25336982 -1.12668491 2.25336982 0 0 Z " fill="#37C0C4" transform="translate(41,62)"/>
<path d="M0 0 C3.27365652 3.59046199 4.67458078 6.11871164 5 11 C4.67 11.66 4.34 12.32 4 13 C1.9375 13.625 1.9375 13.625 0 14 C0 15.98 0 17.96 0 20 C-1.32 20.33 -2.64 20.66 -4 21 C-5 18 -5 18 -5 14 C-5.99 13.34 -6.98 12.68 -8 12 C-7.34 11.67 -6.68 11.34 -6 11 C-6.33 9.35 -6.66 7.7 -7 6 C-6.01 6 -5.02 6 -4 6 C-1.76975869 4.76486718 -1.76975869 4.76486718 0 3 C0 2.01 0 1.02 0 0 Z " fill="#134F68" transform="translate(105,159)"/>
<path d="M0 0 C1.134375 0.020625 2.26875 0.04125 3.4375 0.0625 C3.7675 0.7225 4.0975 1.3825 4.4375 2.0625 C2.7875 2.3925 1.1375 2.7225 -0.5625 3.0625 C0.4275 4.7125 1.4175 6.3625 2.4375 8.0625 C4.4175 7.7325 6.3975 7.4025 8.4375 7.0625 C8.7675 6.0725 9.0975 5.0825 9.4375 4.0625 C9.4375 6.7025 9.4375 9.3425 9.4375 12.0625 C3.4375 12.0625 -2.5625 12.0625 -8.5625 12.0625 C-8.2325 10.4125 -7.9025 8.7625 -7.5625 7.0625 C-6.2425 7.0625 -4.9225 7.0625 -3.5625 7.0625 C-3.748125 6.093125 -3.93375 5.12375 -4.125 4.125 C-4.269375 3.114375 -4.41375 2.10375 -4.5625 1.0625 C-3.5625 0.0625 -3.5625 0.0625 0 0 Z " fill="#22586D" transform="translate(112.5625,164.9375)"/>
<path d="M0 0 C3.96 0 7.92 0 12 0 C12.33 1.98 12.66 3.96 13 6 C11.35 6.33 9.7 6.66 8 7 C8.33 8.32 8.66 9.64 9 11 C6.23735711 11.59732819 3.83967231 12 1 12 C0.67 8.04 0.34 4.08 0 0 Z " fill="#16536B" transform="translate(70,153)"/>
<path d="M0 0 C0.33 0.66 0.66 1.32 1 2 C0.67 2.66 0.34 3.32 0 4 C-0.14851844 5.93359586 -0.22130833 7.87342097 -0.25 9.8125 C-0.27578125 10.85019531 -0.3015625 11.88789062 -0.328125 12.95703125 C0.05913882 16.54844214 0.68206292 18.22507126 3 21 C8.06164218 23.59831752 11.92022583 24.39598847 17.68359375 24.51171875 C18.73414696 24.53864555 18.73414696 24.53864555 19.80592346 24.56611633 C22.01638989 24.61977555 24.22664612 24.65396932 26.4375 24.6875 C27.94729461 24.72071257 29.45706163 24.75520581 30.96679688 24.79101562 C34.64432933 24.87547395 38.32193591 24.9424955 42 25 C42 25.33 42 25.66 42 26 C37.66367206 26.27015339 33.32731536 26.50224856 28.98730469 26.7019043 C27.51672487 26.77459883 26.04658676 26.85699682 24.57714844 26.94995117 C15.59441867 27.51060586 8.47842654 27.19336855 0.23144531 23.00268555 C-0.50493164 22.67179932 -1.24130859 22.34091309 -2 22 C-2.66 22.33 -3.32 22.66 -4 23 C-4 21.35 -4 19.7 -4 18 C-3.67 18 -3.34 18 -3 18 C-2.67 13.71 -2.34 9.42 -2 5 C-2.66 4.67 -3.32 4.34 -4 4 C-2.68 2.68 -1.36 1.36 0 0 Z " fill="#16B2E2" transform="translate(52,48)"/>
<path d="M0 0 C2.475 0.495 2.475 0.495 5 1 C4.979375 2.093125 4.95875 3.18625 4.9375 4.3125 C4.81455548 7.94384191 4.81455548 7.94384191 6 11 C6.03954234 13.33299825 6.04401732 15.66708189 6 18 C6.78375 17.938125 7.5675 17.87625 8.375 17.8125 C9.674375 17.9053125 9.674375 17.9053125 11 18 C13.15550181 21.23325272 13 22.31199218 13 26 C14.32 26.33 15.64 26.66 17 27 C16.34 27.99 15.68 28.98 15 30 C9.66161965 27.02043888 6.30947647 23.74295671 4 18 C3.29367306 14.39167837 2.82045794 10.83010409 2.45703125 7.171875 C2.04211739 4.29230188 1.4825894 2.46488114 0 0 Z " fill="#37C5C1" transform="translate(75,95)"/>
<path d="M0 0 C1.32 0 2.64 0 4 0 C4.309375 0.9590625 4.309375 0.9590625 4.625 1.9375 C5.85464119 4.29645416 5.85464119 4.29645416 8.72119141 4.60913086 C11.77227288 4.97285249 14.76627385 5.20088127 17.8359375 5.31640625 C18.89941406 5.35830078 19.96289062 5.40019531 21.05859375 5.44335938 C22.15300781 5.48267578 23.24742188 5.52199219 24.375 5.5625 C25.49261719 5.60568359 26.61023438 5.64886719 27.76171875 5.69335938 C30.50770199 5.79897411 33.25376881 5.9010797 36 6 C36 6.66 36 7.32 36 8 C31.81263332 8.08760181 27.62550469 8.14059435 23.4375 8.1875 C21.66536133 8.22520508 21.66536133 8.22520508 19.85742188 8.26367188 C12.52016993 8.32532945 6.95730748 8.191377 1.0625 3.4375 C0 2 0 2 0 0 Z " fill="#056993" transform="translate(52,65)"/>
<path d="M0 0 C0.33 0 0.66 0 1 0 C1 1.65 1 3.3 1 5 C0.01 5.33 -0.98 5.66 -2 6 C-2 6.66 -2 7.32 -2 8 C-2.763125 8.28875 -3.52625 8.5775 -4.3125 8.875 C-7.15029308 9.96269013 -7.15029308 9.96269013 -10 12 C-12.33199388 12.07905064 -14.66832622 12.08798769 -17 12 C-17 11.01 -17 10.02 -17 9 C-16.37351562 8.81824219 -15.74703125 8.63648437 -15.1015625 8.44921875 C-13.87566406 8.07216797 -13.87566406 8.07216797 -12.625 7.6875 C-11.81289062 7.44386719 -11.00078125 7.20023437 -10.1640625 6.94921875 C-7.66815371 6.08631815 -7.66815371 6.08631815 -6 3 C-4.35636866 2.27840576 -2.68949614 1.60648579 -1 1 C-0.67 0.67 -0.34 0.34 0 0 Z " fill="#05BCF3" transform="translate(138,103)"/>
<path d="M0 0 C1.65625 1.26953125 1.65625 1.26953125 4.03125 4.01953125 C4.03125 5.33953125 4.03125 6.65953125 4.03125 8.01953125 C2.15625 7.83203125 2.15625 7.83203125 0.03125 7.01953125 C-0.278125 6.19453125 -0.5875 5.36953125 -0.90625 4.51953125 C-1.256875 3.69453125 -1.6075 2.86953125 -1.96875 2.01953125 C-10.24668646 -0.75477717 -20.24922129 3.40554985 -27.65625 7.08203125 C-30.54509554 8.61831852 -33.24459555 10.20342828 -35.96875 12.01953125 C-35.96875 11.02953125 -35.96875 10.03953125 -35.96875 9.01953125 C-33.47369359 7.71749938 -30.97337318 6.42792859 -28.46875 5.14453125 C-27.77265625 4.77972656 -27.0765625 4.41492188 -26.359375 4.0390625 C-18.85585961 0.21782781 -8.15666379 -4.06214804 0 0 Z " fill="#2997C2" transform="translate(99.96875,20.98046875)"/>
<path d="M0 0 C3.63 0 7.26 0 11 0 C10.01 1.485 10.01 1.485 9 3 C8.67 2.67 8.34 2.34 8 2 C5.66702567 1.95907063 3.33294775 1.95758277 1 2 C0.87625 3.093125 0.7525 4.18625 0.625 5.3125 C0 9 0 9 -2 12 C-2.66 11.67 -3.32 11.34 -4 11 C-4.33 11.99 -4.66 12.98 -5 14 C-6.32 13.67 -7.64 13.34 -9 13 C-8.01 9.7 -7.02 6.4 -6 3 C-5.01 3.33 -4.02 3.66 -3 4 C-3.33 4.66 -3.66 5.32 -4 6 C-3.34 6 -2.68 6 -2 6 C-1.34 4.02 -0.68 2.04 0 0 Z " fill="#1A5670" transform="translate(107,152)"/>
<path d="M0 0 C8.83243835 3.78813467 14.21285688 13.60803514 18 22 C18 22.66 18 23.32 18 24 C17.34 24 16.68 24 16 24 C15.34 22.68 14.68 21.36 14 20 C13.34 21.32 12.68 22.64 12 24 C11.72027344 23.01 11.44054687 22.02 11.15234375 21 C8.7101209 12.81228469 6.23721114 7.07543909 0 1 C0 0.67 0 0.34 0 0 Z " fill="#1DAAD7" transform="translate(134,35)"/>
<path d="M0 0 C0.66 0.66 1.32 1.32 2 2 C3.98821313 2.39764263 5.98944339 2.73775349 8 3 C8 2.01 8 1.02 8 0 C9.32 0 10.64 0 12 0 C12 1.98 12 3.96 12 6 C10.35 6.66 8.7 7.32 7 8 C6.34 7.01 5.68 6.02 5 5 C4.67 5.99 4.34 6.98 4 8 C3.01 8.33 2.02 8.66 1 9 C1 8.34 1 7.68 1 7 C0.01 7 -0.98 7 -2 7 C-1.125 1.125 -1.125 1.125 0 0 Z " fill="#174F68" transform="translate(73,174)"/>
<path d="M0 0 C0.268125 0.598125 0.53625 1.19625 0.8125 1.8125 C2.04458518 4.08213059 3.00945705 5.36650512 5 7 C7.42960895 7.71580879 7.42960895 7.71580879 10.0625 8.0625 C14.79166667 8.79166667 14.79166667 8.79166667 17 11 C9.61817498 11.55711887 2.21771127 10.20873293 -3.8125 5.62109375 C-5.1875 4.25 -5.1875 4.25 -7 2 C-4.525 2.495 -4.525 2.495 -2 3 C-1.34 2.01 -0.68 1.02 0 0 Z " fill="#3CB2B2" transform="translate(94,121)"/>
<path d="M0 0 C0.99 0.33 1.98 0.66 3 1 C-4.29840547 10.41002278 -4.29840547 10.41002278 -8 15 C-8.33 14.01 -8.66 13.02 -9 12 C-9.66 11.67 -10.32 11.34 -11 11 C-9.71937515 9.2925002 -8.38232443 7.62626404 -7 6 C-6.34 6 -5.68 6 -5 6 C-5 5.34 -5 4.68 -5 4 C-2.6875 1.8125 -2.6875 1.8125 0 0 Z " fill="#13AEE0" transform="translate(61,32)"/>
<path d="M0 0 C1.875 0.1875 1.875 0.1875 4 1 C5.25 3.5625 5.25 3.5625 6 6 C7.95216435 4.04783565 8.84826645 2.46800047 10 0 C10.99 0 11.98 0 13 0 C13 0.66 13 1.32 13 2 C12.34 2 11.68 2 11 2 C10.01 5.3 9.02 8.6 8 12 C7.01 12 6.02 12 5 12 C4.01 8.7 3.02 5.4 2 2 C1.34 2 0.68 2 0 2 C0 1.34 0 0.68 0 0 Z " fill="#D5EEF4" transform="translate(90,153)"/>
<path d="M0 0 C0.66 0 1.32 0 2 0 C2.08820927 3.16648655 2.1407905 6.33265092 2.1875 9.5 C2.22520508 10.8303125 2.22520508 10.8303125 2.26367188 12.1875 C2.32965528 18.1699953 1.57193247 22.56967286 -1 28 C-1.66 28.33 -2.32 28.66 -3 29 C-2.690625 27.741875 -2.38125 26.48375 -2.0625 25.1875 C-0.37423551 16.91380663 -0.32827866 8.41430045 0 0 Z " fill="#16A8DD" transform="translate(147,61)"/>
<path d="M0 0 C0.66 0.99 1.32 1.98 2 3 C1.34 3.66 0.68 4.32 0 5 C-0.33 4.34 -0.66 3.68 -1 3 C-2.32 3 -3.64 3 -5 3 C-5 5.31 -5 7.62 -5 10 C-1.535 9.505 -1.535 9.505 2 9 C1.67 9.99 1.34 10.98 1 12 C-2.375 12.125 -2.375 12.125 -6 12 C-8 10 -8 10 -8.3125 6.5625 C-8 3 -8 3 -6.8125 1.0625 C-4.35526759 -0.37794659 -2.79836832 -0.4305182 0 0 Z " fill="#E1F6FB" transform="translate(115,153)"/>
<path d="M0 0 C4.95 0 9.9 0 15 0 C15 0.99 15 1.98 15 3 C14.35675781 2.95359375 13.71351562 2.9071875 13.05078125 2.859375 C5.99945469 2.5777243 0.31484023 3.84343165 -6.34765625 6.125 C-9 7 -9 7 -11 7 C-11 6.34 -11 5.68 -11 5 C-10.28972656 4.80664062 -9.57945313 4.61328125 -8.84765625 4.4140625 C-7.92855469 4.15367188 -7.00945312 3.89328125 -6.0625 3.625 C-4.68771484 3.24214844 -4.68771484 3.24214844 -3.28515625 2.8515625 C-0.83254913 2.23339896 -0.83254913 2.23339896 0 0 Z " fill="#0A648A" transform="translate(84,18)"/>
<path d="M0 0 C1.76462683 3.08809695 2 4.23312136 2 8 C3.65 8 5.3 8 7 8 C7.33 9.65 7.66 11.3 8 13 C5 13 5 13 3.39453125 11.7578125 C2.87246094 11.21898437 2.35039063 10.68015625 1.8125 10.125 C1.28269531 9.59132813 0.75289063 9.05765625 0.20703125 8.5078125 C-1 7 -1 7 -1 5 C-1.99 5.33 -2.98 5.66 -4 6 C-4.33 4.35 -4.66 2.7 -5 1 C-3.35 0.67 -1.7 0.34 0 0 Z " fill="#0B6387" transform="translate(110,8)"/>
<path d="M0 0 C6.93 2.97 6.93 2.97 14 6 C14 7.65 14 9.3 14 11 C13.34 11 12.68 11 12 11 C12 10.34 12 9.68 12 9 C10.68 9 9.36 9 8 9 C8 8.34 8 7.68 8 7 C7.34 7 6.68 7 6 7 C6 6.34 6 5.68 6 5 C3.69 4.34 1.38 3.68 -1 3 C-0.67 2.01 -0.34 1.02 0 0 Z " fill="#0DBEF1" transform="translate(50,69)"/>
<path d="M0 0 C0.66 0.33 1.32 0.66 2 1 C-0.18144224 2.15879664 -2.36903017 3.30187378 -4.5625 4.4375 C-5.47612305 4.92573242 -5.47612305 4.92573242 -6.40820312 5.42382812 C-10.65560614 7.60371221 -14.24162667 8.56519369 -19 9 C-18.67 8.01 -18.34 7.02 -18 6 C-18.99 5.67 -19.98 5.34 -21 5 C-19.98679687 4.89042969 -18.97359375 4.78085938 -17.9296875 4.66796875 C-16.57805539 4.50840107 -15.22649657 4.34821167 -13.875 4.1875 C-13.20984375 4.11724609 -12.5446875 4.04699219 -11.859375 3.97460938 C-7.33007885 3.41954857 -4.019408 2.08126616 0 0 Z " fill="#001E23" transform="translate(130,127)"/>
<path d="M0 0 C0.33 0 0.66 0 1 0 C1.42947075 7.33281543 0.7758072 14.13473199 -2 21 C-2.99 21.99 -3.98 22.98 -5 24 C-4.34 18.39 -3.68 12.78 -3 7 C-2.01 6.67 -1.02 6.34 0 6 C0 4.02 0 2.04 0 0 Z " fill="#29C4DA" transform="translate(154,74)"/>
<path d="M0 0 C2.64 0 5.28 0 8 0 C8 1.32 8 2.64 8 4 C7.34 4 6.68 4 6 4 C6 3.34 6 2.68 6 2 C5.34 2 4.68 2 4 2 C3.67 5.3 3.34 8.6 3 12 C2.34 12 1.68 12 1 12 C0.67 8.04 0.34 4.08 0 0 Z " fill="#E3FAFC" transform="translate(70,153)"/>
<path d="M0 0 C0.99 0.33 1.98 0.66 3 1 C2.34 2.65 1.68 4.3 1 6 C-1.31 5.67 -3.62 5.34 -6 5 C-5.67 7.31 -5.34 9.62 -5 12 C-5.99 12.495 -5.99 12.495 -7 13 C-7.19491452 11.54263913 -7.38069358 10.08405407 -7.5625 8.625 C-7.66691406 7.81289062 -7.77132812 7.00078125 -7.87890625 6.1640625 C-8 4 -8 4 -7 2 C-6.34 2 -5.68 2 -5 2 C-5 2.66 -5 3.32 -5 4 C-4.236875 3.319375 -3.47375 2.63875 -2.6875 1.9375 C-1.800625 1.298125 -0.91375 0.65875 0 0 Z " fill="#184E64" transform="translate(133,153)"/>
<path d="M0 0 C4.64458782 0.80861189 6.14558805 3.3404975 9 7 C9.8353125 7.7734375 9.8353125 7.7734375 10.6875 8.5625 C12.49387249 10.54090797 13.23445188 12.44817293 14 15 C13.67 15.99 13.34 16.98 13 18 C12.56429687 17.28714844 12.12859375 16.57429688 11.6796875 15.83984375 C8.13714175 10.14263272 4.5186909 4.95953879 0 0 Z " fill="#045F80" transform="translate(136,35)"/>
<path d="M0 0 C2.97 0 5.94 0 9 0 C9 1.32 9 2.64 9 4 C8.34 4 7.68 4 7 4 C7 3.34 7 2.68 7 2 C6.34 2 5.68 2 5 2 C4.67 5.3 4.34 8.6 4 12 C3.34 12 2.68 12 2 12 C2 8.7 2 5.4 2 2 C1.34 2 0.68 2 0 2 C0 1.34 0 0.68 0 0 Z " fill="#D6F2F8" transform="translate(121,153)"/>
<path d="M0 0 C1.32 0.33 2.64 0.66 4 1 C4 2.98 4 4.96 4 7 C3.34 7 2.68 7 2 7 C1.67 7.99 1.34 8.98 1 10 C-1.7824349 8.60878255 -2.55210065 6.69835788 -4 4 C-4 3.34 -4 2.68 -4 2 C-2.68 2 -1.36 2 0 2 C0 1.34 0 0.68 0 0 Z M-1 3 C0 6 0 6 0 6 Z " fill="#2FC7CC" transform="translate(46,77)"/>
<path d="M0 0 C0.33 0 0.66 0 1 0 C1 2.64 1 5.28 1 8 C-1.97 8 -4.94 8 -8 8 C-8.33 6.68 -8.66 5.36 -9 4 C-4.545 3.505 -4.545 3.505 0 3 C0 2.01 0 1.02 0 0 Z " fill="#77A0B4" transform="translate(121,169)"/>
<path d="M0 0 C1.98 0 3.96 0 6 0 C6.33 0.66 6.66 1.32 7 2 C7.33 1.34 7.66 0.68 8 0 C9.32 0.33 10.64 0.66 12 1 C11.67 2.32 11.34 3.64 11 5 C11 4.01 11 3.02 11 2 C10.34 2 9.68 2 9 2 C9 2.99 9 3.98 9 5 C3.375 5.25 3.375 5.25 0 3 C0 2.01 0 1.02 0 0 Z " fill="#78A5B9" transform="translate(72,172)"/>
<path d="M0 0 C-0.33 1.32 -0.66 2.64 -1 4 C-3.3125 4.625 -3.3125 4.625 -6 5 C-6.99 4.34 -7.98 3.68 -9 3 C-8.67 2.01 -8.34 1.02 -8 0 C-5.13822943 -1.43088528 -3.06624227 -0.59991697 0 0 Z " fill="#0F5D7C" transform="translate(108,17)"/>
<path d="M0 0 C0 1.32 0 2.64 0 4 C-1.11375 4.28875 -2.2275 4.5775 -3.375 4.875 C-7.00291092 5.69241329 -7.00291092 5.69241329 -9 8 C-9.99 8 -10.98 8 -12 8 C-12.66 9.32 -13.32 10.64 -14 12 C-14.66 11.67 -15.32 11.34 -16 11 C-12.20918993 6.84233734 -5.90642573 0 0 0 Z " fill="#076893" transform="translate(76,26)"/>
<path d="M0 0 C1.32 0.66 2.64 1.32 4 2 C4 2.66 4 3.32 4 4 C4.66 4.66 5.32 5.32 6 6 C3 8 3 8 0.8125 7.625 C0.214375 7.41875 -0.38375 7.2125 -1 7 C-1 3 -1 3 0 0 Z " fill="#124D67" transform="translate(108,176)"/>
<path d="M0 0 C1.32 0.33 2.64 0.66 4 1 C4.33 4.63 4.66 8.26 5 12 C3.68 11.67 2.36 11.34 1 11 C0.67 7.37 0.34 3.74 0 0 Z " fill="#74B9D3" transform="translate(82,153)"/>
<path d="M0 0 C2.475 0.495 2.475 0.495 5 1 C4.979375 2.093125 4.95875 3.18625 4.9375 4.3125 C4.81455548 7.94384191 4.81455548 7.94384191 6 11 C6.06740865 12.56118428 6.08514456 14.1250252 6.0625 15.6875 C6.05347656 16.49574219 6.04445313 17.30398437 6.03515625 18.13671875 C6.02355469 18.75160156 6.01195313 19.36648437 6 20 C3.21972267 17.21972267 3.45049251 14.99440884 3 11.125 C2.34113936 5.2945204 2.34113936 5.2945204 0 0 Z " fill="#41B6B8" transform="translate(75,95)"/>
<path d="M0 0 C4.29 0.66 8.58 1.32 13 2 C13 3.98 13 5.96 13 8 C12.34 8 11.68 8 11 8 C10.5978125 7.0409375 10.5978125 7.0409375 10.1875 6.0625 C9.11332248 3.66868314 9.11332248 3.66868314 6 3 C5.67 4.32 5.34 5.64 5 7 C4.67 5.35 4.34 3.7 4 2 C2.68 2 1.36 2 0 2 C0 1.34 0 0.68 0 0 Z " fill="#396E87" transform="translate(74,169)"/>
<path d="M0 0 C0.66 0.33 1.32 0.66 2 1 C0.02 4.96 -1.96 8.92 -4 13 C-4.89130413 10.3260876 -5.47731534 7.76276177 -6 5 C-4.02 3.35 -2.04 1.7 0 0 Z " fill="#0B698E" transform="translate(47,44)"/>
<path d="M0 0 C0 1.98 0 3.96 0 6 C-2.31 6 -4.62 6 -7 6 C-6.67 4.35 -6.34 2.7 -6 1 C-1.125 0 -1.125 0 0 0 Z " fill="#6C97AA" transform="translate(111,171)"/>
<path d="M0 0 C2.35953094 2.35953094 2.49141413 3.77895617 3 7 C2.01 7.495 2.01 7.495 1 8 C0.5359375 6.7934375 0.5359375 6.7934375 0.0625 5.5625 C-0.76335345 3.10919595 -0.76335345 3.10919595 -2 2 C-4.35313555 1.92728259 -6.70833668 1.91629132 -9.0625 1.9375 C-10.35285156 1.94652344 -11.64320312 1.95554687 -12.97265625 1.96484375 C-13.97167969 1.97644531 -14.97070312 1.98804688 -16 2 C-10.88058436 -0.74454449 -5.64503389 -1.77415351 0 0 Z " fill="#04688F" transform="translate(98,22)"/>
<path d="M0 0 C2.31 0.33 4.62 0.66 7 1 C7 2.32 7 3.64 7 5 C4.36 5 1.72 5 -1 5 C-0.67 3.35 -0.34 1.7 0 0 Z " fill="#7F9CA5" transform="translate(110,155)"/>
<path d="M0 0 C1.32 0 2.64 0 4 0 C4 3.3 4 6.6 4 10 C3.34 9.01 2.68 8.02 2 7 C1.34 6.67 0.68 6.34 0 6 C-0.6875 3.5 -0.6875 3.5 -1 1 C-0.67 0.67 -0.34 0.34 0 0 Z " fill="#2E5F75" transform="translate(119,155)"/>
<path d="M0 0 C0.66 0 1.32 0 2 0 C2.33 0.66 2.66 1.32 3 2 C4.32 2 5.64 2 7 2 C7 3.32 7 4.64 7 6 C4.69 6 2.38 6 0 6 C0 4.02 0 2.04 0 0 Z " fill="#6190A7" transform="translate(123,171)"/>
<path d="M0 0 C2.31 0.33 4.62 0.66 7 1 C7 2.32 7 3.64 7 5 C6.34 5 5.68 5 5 5 C4.67 5.66 4.34 6.32 4 7 C2.35 5.35 0.7 3.7 -1 2 C-0.67 1.34 -0.34 0.68 0 0 Z " fill="#2BC3D4" transform="translate(73,89)"/>
<path d="M0 0 C1.51400391 0.01740234 1.51400391 0.01740234 3.05859375 0.03515625 C4.07050781 0.04417969 5.08242187 0.05320313 6.125 0.0625 C7.29869141 0.07990234 7.29869141 0.07990234 8.49609375 0.09765625 C7.50609375 1.58265625 7.50609375 1.58265625 6.49609375 3.09765625 C6.16609375 2.76765625 5.83609375 2.43765625 5.49609375 2.09765625 C3.16311942 2.05672688 0.8290415 2.05523902 -1.50390625 2.09765625 C-1.83390625 4.40765625 -2.16390625 6.71765625 -2.50390625 9.09765625 C-3.49390625 8.76765625 -4.48390625 8.43765625 -5.50390625 8.09765625 C-3.33088446 0.12990969 -3.33088446 0.12990969 0 0 Z " fill="#2D5E73" transform="translate(109.50390625,151.90234375)"/>
<path d="M0 0 C0.66 0.33 1.32 0.66 2 1 C-0.51546072 4.77319108 -2.1588808 4.97166115 -6.4375 6.25 C-7.59121094 6.60578125 -8.74492188 6.9615625 -9.93359375 7.328125 C-13 8 -13 8 -16 7 C-16 6.67 -16 6.34 -16 6 C-14.2675 5.62875 -14.2675 5.62875 -12.5 5.25 C-8.52862457 4.28188891 -5.21378973 2.7081723 -1.6640625 0.70703125 C-1.11492187 0.47371094 -0.56578125 0.24039063 0 0 Z " fill="#14AFE1" transform="translate(130,106)"/>
<path d="M0 0 C0 0.66 0 1.32 0 2 C-0.99 2 -1.98 2 -3 2 C-3.33 3.32 -3.66 4.64 -4 6 C-5.65 5.67 -7.3 5.34 -9 5 C-6.81610567 0.16423399 -5.20641855 -0.13701101 0 0 Z " fill="#0A6383" transform="translate(84,24)"/>
<path d="M0 0 C0.66 0.33 1.32 0.66 2 1 C-3.75 6 -3.75 6 -6 6 C-6 6.66 -6 7.32 -6 8 C-8.5 9.625 -8.5 9.625 -11 11 C-10.67 9.35 -10.34 7.7 -10 6 C-9.01 6.33 -8.02 6.66 -7 7 C-6.773125 6.401875 -6.54625 5.80375 -6.3125 5.1875 C-4.6388703 2.39811716 -2.91182274 1.3831158 0 0 Z " fill="#096D97" transform="translate(62,30)"/>
<path d="M0 0 C0.33 0 0.66 0 1 0 C1 1.65 1 3.3 1 5 C2.98 3.35 4.96 1.7 7 0 C7.33 0.99 7.66 1.98 8 3 C7.01 3 6.02 3 5 3 C5.33 4.32 5.66 5.64 6 7 C4.02 7.33 2.04 7.66 0 8 C0 5.36 0 2.72 0 0 Z " fill="#1D5873" transform="translate(73,157)"/>
<path d="M0 0 C0.33 1.32 0.66 2.64 1 4 C0.01 4.66 -0.98 5.32 -2 6 C-3.05104383 7.63495707 -4.05988318 9.29883624 -5 11 C-6.32 10.67 -7.64 10.34 -9 10 C-8.01 9.67 -7.02 9.34 -6 9 C-5.29605388 7.68596724 -4.63654342 6.3479743 -4 5 C-2.6949419 3.31110128 -1.36639342 1.6396721 0 0 Z " fill="#15AADE" transform="translate(141,95)"/>
<path d="M0 0 C0.33 0 0.66 0 1 0 C1.3306901 6.17288188 0.66161816 10.38102832 -2 16 C-2.99 16.33 -3.98 16.66 -5 17 C-4.625 14.0625 -4.625 14.0625 -4 11 C-3.34 10.67 -2.68 10.34 -2 10 C-1.31068656 7.65092125 -1.31068656 7.65092125 -0.875 4.9375 C-0.70742187 4.01839844 -0.53984375 3.09929687 -0.3671875 2.15234375 C-0.24601563 1.44207031 -0.12484375 0.73179688 0 0 Z " fill="#12C1EF" transform="translate(149,82)"/>
<path d="M0 0 C0.33 0.99 0.66 1.98 1 3 C2.11375 3.0928125 2.11375 3.0928125 3.25 3.1875 C6.8185739 4.24185138 7.92245228 5.99909773 10 9 C6.16235973 9 4.88513915 7.73464665 1.8125 5.5 C0.91144531 4.8503125 0.01039062 4.200625 -0.91796875 3.53125 C-1.60503906 3.0259375 -2.29210937 2.520625 -3 2 C-2.01 1.34 -1.02 0.68 0 0 Z " fill="#086288" transform="translate(126,25)"/>
<path d="M0 0 C1.81672901 3.63345802 3.41871914 7.26242706 5 11 C4.01 11 3.02 11 2 11 C1.34 11.99 0.68 12.98 0 14 C0 9.38 0 4.76 0 0 Z " fill="#00171D" transform="translate(39,76)"/>
<path d="M0 0 C0.33 0.66 0.66 1.32 1 2 C0.67 2.99 0.34 3.98 0 5 C-1.98 5 -3.96 5 -6 5 C-6.33 3.68 -6.66 2.36 -7 1 C-3.535 0.505 -3.535 0.505 0 0 Z " fill="#6D9DB1" transform="translate(95,172)"/>
<path d="M0 0 C-1.32 1.65 -2.64 3.3 -4 5 C-4.99 4.67 -5.98 4.34 -7 4 C-7 2.68 -7 1.36 -7 0 C-2.25 -1.125 -2.25 -1.125 0 0 Z " fill="#36C2CA" transform="translate(146,113)"/>
<path d="M0 0 C0.66 0 1.32 0 2 0 C3.25664978 2.90600261 4 4.79604584 4 8 C4.99 8.33 5.98 8.66 7 9 C3.25 10.125 3.25 10.125 1 9 C0.5859375 6.93359375 0.5859375 6.93359375 0.375 4.4375 C0.30023438 3.61121094 0.22546875 2.78492188 0.1484375 1.93359375 C0.09945312 1.29550781 0.05046875 0.65742188 0 0 Z " fill="#2E5C70" transform="translate(91,157)"/>
<path d="M0 0 C1.32 0 2.64 0 4 0 C4.268125 0.598125 4.53625 1.19625 4.8125 1.8125 C5.98493467 3.97224808 7.19369282 5.35790256 9 7 C2.29787234 5.06382979 2.29787234 5.06382979 0 2 C0 1.34 0 0.68 0 0 Z " fill="#076D98" transform="translate(52,65)"/>
<path d="M0 0 C0.33 0.66 0.66 1.32 1 2 C0.67 2.66 0.34 3.32 0 4 C-0.22622081 5.70363822 -0.40888473 7.41328701 -0.5625 9.125 C-0.68818359 10.49011719 -0.68818359 10.49011719 -0.81640625 11.8828125 C-0.87699219 12.58148438 -0.93757813 13.28015625 -1 14 C-1.33 14 -1.66 14 -2 14 C-2 11.03 -2 8.06 -2 5 C-2.66 4.67 -3.32 4.34 -4 4 C-2.68 2.68 -1.36 1.36 0 0 Z " fill="#10A7D5" transform="translate(52,48)"/>
<path d="M0 0 C0.66 0.66 1.32 1.32 2 2 C1.31292969 2.33773438 0.62585938 2.67546875 -0.08203125 3.0234375 C-0.98308594 3.46945313 -1.88414063 3.91546875 -2.8125 4.375 C-4.15248047 5.03628906 -4.15248047 5.03628906 -5.51953125 5.7109375 C-8.14556381 7.01866905 -8.14556381 7.01866905 -11 9 C-11 8.01 -11 7.02 -11 6 C-7.37 4.02 -3.74 2.04 0 0 Z " fill="#249BC7" transform="translate(75,24)"/>
<path d="M0 0 C0.33 0.99 0.66 1.98 1 3 C1.66 2.67 2.32 2.34 3 2 C2.375 3.875 2.375 3.875 1 6 C-2.125 7.25 -2.125 7.25 -5 8 C-1.125 1.125 -1.125 1.125 0 0 Z " fill="#0E6176" transform="translate(146,112)"/>
<path d="M0 0 C0.66 0.33 1.32 0.66 2 1 C1.8125 2.875 1.8125 2.875 1 5 C-1.5625 6.25 -1.5625 6.25 -4 7 C-3.6875 4.625 -3.6875 4.625 -3 2 C-2.01 1.34 -1.02 0.68 0 0 Z " fill="#0DB6E7" transform="translate(146,88)"/>
<path d="M0 0 C0.33 0.66 0.66 1.32 1 2 C4.465 1.505 4.465 1.505 8 1 C7.67 1.99 7.34 2.98 7 4 C3.625 4.1875 3.625 4.1875 0 4 C-0.66 3.01 -1.32 2.02 -2 1 C-1.34 0.67 -0.68 0.34 0 0 Z " fill="#CBE9F0" transform="translate(109,161)"/>
<path d="M0 0 C0.66 1.32 1.32 2.64 2 4 C0.3125 5.5625 0.3125 5.5625 -2 7 C-4.75 6.6875 -4.75 6.6875 -7 6 C-6.401875 5.566875 -5.80375 5.13375 -5.1875 4.6875 C-3.29216913 3.22538761 -1.6471407 1.72949773 0 0 Z " fill="#164F65" transform="translate(132,126)"/>
<path d="M0 0 C0.99 0.33 1.98 0.66 3 1 C3 2.32 3 3.64 3 5 C1.35 4.67 -0.3 4.34 -2 4 C-1.34 2.68 -0.68 1.36 0 0 Z " fill="#7CA7BB" transform="translate(98,172)"/>
<path d="M0 0 C0.598125 0.350625 1.19625 0.70125 1.8125 1.0625 C0.1625 1.3925 -1.4875 1.7225 -3.1875 2.0625 C-2.8575 3.3825 -2.5275 4.7025 -2.1875 6.0625 C-3.1775 5.7325 -4.1675 5.4025 -5.1875 5.0625 C-5.1875 3.4125 -5.1875 1.7625 -5.1875 0.0625 C-2.1875 -0.9375 -2.1875 -0.9375 0 0 Z " fill="#185876" transform="translate(85.1875,164.9375)"/>
<path d="M0 0 C4.95 0 9.9 0 15 0 C15.33 0.99 15.66 1.98 16 3 C15.01 2.67 14.02 2.34 13 2 C10.77425665 1.77548542 8.54418481 1.59217122 6.3125 1.4375 C5.13300781 1.35371094 3.95351563 1.26992187 2.73828125 1.18359375 C1.83464844 1.12300781 0.93101563 1.06242187 0 1 C0 0.67 0 0.34 0 0 Z " fill="#42ADAC" transform="translate(59,92)"/>
<path d="M0 0 C0.33 1.32 0.66 2.64 1 4 C-5.75 3.25 -5.75 3.25 -8 1 C-2.25 0 -2.25 0 0 0 Z " fill="#3CB5B2" transform="translate(55,88)"/>
<path d="M0 0 C2.31 0 4.62 0 7 0 C7.33 0.66 7.66 1.32 8 2 C5.36 2.33 2.72 2.66 0 3 C0 2.01 0 1.02 0 0 Z " fill="#2F5C72" transform="translate(109,165)"/>
<path d="M0 0 C1 3 1 3 -0.25 5.625 C-2 8 -2 8 -5 9 C-3.7508258 5.54074837 -2.32472205 2.85306797 0 0 Z " fill="#066D9A" transform="translate(59,38)"/>
<path d="M0 0 C4.28359673 1.8855148 6.15103592 4.35965701 9 8 C8.01 8 7.02 8 6 8 C4.39453125 6.25 4.39453125 6.25 2.8125 4 C2.28269531 3.2575 1.75289062 2.515 1.20703125 1.75 C0.80871094 1.1725 0.41039062 0.595 0 0 Z " fill="#2B94BF" transform="translate(134,35)"/>
<path d="M0 0 C0 1.98 0 3.96 0 6 C-1.32 5.34 -2.64 4.68 -4 4 C-4 3.01 -4 2.02 -4 1 C-1 0 -1 0 0 0 Z " fill="#5A899F" transform="translate(111,171)"/>
<path d="M0 0 C1.65 0 3.3 0 5 0 C4.34 1.98 3.68 3.96 3 6 C0.8614515 3.8614515 0.57344937 2.86724686 0 0 Z " fill="#30596A" transform="translate(94,155)"/>
<path d="M0 0 C0 1.32 0 2.64 0 4 C-0.66 4 -1.32 4 -2 4 C-2 3.34 -2 2.68 -2 2 C-2.66 2 -3.32 2 -4 2 C-4.33 2.66 -4.66 3.32 -5 4 C-5.33 3.01 -5.66 2.02 -6 1 C-4 0 -4 0 0 0 Z " fill="#C2E0E9" transform="translate(130,153)"/>
<path d="M0 0 C1.98 0 3.96 0 6 0 C6 1.32 6 2.64 6 4 C5.34 4 4.68 4 4 4 C4 3.34 4 2.68 4 2 C2.68 2 1.36 2 0 2 C0 1.34 0 0.68 0 0 Z " fill="#B3D6DF" transform="translate(72,153)"/>
<path d="M0 0 C-2.71182212 2.60334924 -3.89133813 2.99456691 -7.75 3.1875 C-8.8225 3.125625 -9.895 3.06375 -11 3 C-7.11595442 0.41063628 -4.5725325 -0.12358196 0 0 Z " fill="#36C2BE" transform="translate(122,129)"/>
<path d="M0 0 C1.65 0 3.3 0 5 0 C2.47211993 2.79872437 0.79588866 4.45773019 -3 5 C-3 4.34 -3 3.68 -3 3 C-2.01 3 -1.02 3 0 3 C0 2.01 0 1.02 0 0 Z " fill="#045D84" transform="translate(128,104)"/>
<path d="M0 0 C0.66 0.66 1.32 1.32 2 2 C-1.96 3.98 -1.96 3.98 -6 6 C-3.75 1.5 -3.75 1.5 0 0 Z " fill="#0A6B8F" transform="translate(71,24)"/>
<path d="M0 0 C2.79872437 2.52788007 4.45773019 4.20411134 5 8 C4.34 8 3.68 8 3 8 C2.67 7.01 2.34 6.02 2 5 C0.70644173 3.62804426 -0.62298702 2.28817344 -2 1 C-1.34 0.67 -0.68 0.34 0 0 Z " fill="#0B688E" transform="translate(101,20)"/>
</svg>
